<svg xmlns="http://www.w3.org/2000/svg" xmlns:xlink="http://www.w3.org/1999/xlink" width="500" zoomAndPan="magnify" viewBox="0 0 375 374.999991" height="500" preserveAspectRatio="xMidYMid meet" version="1.0"><defs><g/></defs><g fill="#000000" fill-opacity="1"><g transform="translate(162.507192, 106.197126)"><g><path d="M 0.984375 -0.796875 C 0.304688 -1.242188 -0.09375 -1.863281 -0.21875 -2.65625 C -0.21875 -2.695312 -0.195312 -2.722656 -0.15625 -2.734375 L 0.203125 -2.78125 C 0.210938 -2.789062 0.222656 -2.785156 0.234375 -2.765625 C 0.242188 -2.753906 0.25 -2.734375 0.25 -2.703125 C 0.226562 -2.640625 0.226562 -2.5 0.25 -2.28125 C 0.28125 -2.070312 0.347656 -1.835938 0.453125 -1.578125 C 0.554688 -1.328125 0.757812 -1.101562 1.0625 -0.90625 C 1.050781 -0.90625 1.050781 -0.90625 1.0625 -0.90625 L 1.078125 -0.890625 C 1.617188 -0.535156 2.21875 -0.410156 2.875 -0.515625 C 2.914062 -0.523438 2.957031 -0.535156 3 -0.546875 C 3.394531 -0.640625 3.738281 -0.828125 4.03125 -1.109375 C 4.320312 -1.390625 4.53125 -1.734375 4.65625 -2.140625 C 4.789062 -2.554688 4.820312 -2.992188 4.75 -3.453125 L 3.578125 -10.84375 C 3.554688 -10.96875 3.476562 -11.019531 3.34375 -11 C 3.3125 -10.988281 3.296875 -11.003906 3.296875 -11.046875 C 3.285156 -11.085938 3.296875 -11.113281 3.328125 -11.125 L 3.578125 -11.15625 L 3.875 -11.203125 L 4.109375 -11.25 C 4.148438 -11.25 4.175781 -11.226562 4.1875 -11.1875 C 4.1875 -11.144531 4.164062 -11.125 4.125 -11.125 C 4.007812 -11.101562 3.960938 -11.03125 3.984375 -10.90625 L 5.171875 -3.46875 C 5.171875 -3.46875 5.171875 -3.460938 5.171875 -3.453125 C 5.242188 -2.984375 5.191406 -2.53125 5.015625 -2.09375 C 4.835938 -1.664062 4.578125 -1.300781 4.234375 -1 C 3.890625 -0.707031 3.492188 -0.515625 3.046875 -0.421875 C 3.046875 -0.421875 3.039062 -0.421875 3.03125 -0.421875 C 2.988281 -0.410156 2.945312 -0.398438 2.90625 -0.390625 C 2.21875 -0.285156 1.582031 -0.421875 1 -0.796875 Z M 0.984375 -0.796875 "/></g></g></g><g fill="#000000" fill-opacity="1"><g transform="translate(173.188196, 104.6261)"><g><path d="M 1.921875 -1.625 C 1.921875 -1.625 1.914062 -1.625 1.90625 -1.625 C 1.90625 -1.632812 1.898438 -1.640625 1.890625 -1.640625 C 1.410156 -2.179688 1.054688 -2.769531 0.828125 -3.40625 C 0.597656 -4.039062 0.492188 -4.6875 0.515625 -5.34375 C 0.535156 -6.007812 0.675781 -6.65625 0.9375 -7.28125 C 1.195312 -7.90625 1.582031 -8.46875 2.09375 -8.96875 C 2.59375 -9.476562 3.148438 -9.863281 3.765625 -10.125 C 4.390625 -10.394531 5.035156 -10.539062 5.703125 -10.5625 C 6.367188 -10.582031 7.019531 -10.476562 7.65625 -10.25 C 8.289062 -10.019531 8.878906 -9.675781 9.421875 -9.21875 C 9.421875 -9.207031 9.421875 -9.195312 9.421875 -9.1875 C 9.429688 -9.1875 9.441406 -9.1875 9.453125 -9.1875 L 9.484375 -9.15625 C 9.484375 -9.144531 9.488281 -9.132812 9.5 -9.125 C 9.519531 -9.113281 9.539062 -9.097656 9.5625 -9.078125 C 9.5625 -9.078125 9.5625 -9.070312 9.5625 -9.0625 L 9.84375 -8.8125 C 10.3125 -8.28125 10.660156 -7.691406 10.890625 -7.046875 C 11.117188 -6.410156 11.222656 -5.753906 11.203125 -5.078125 C 11.191406 -4.410156 11.054688 -3.765625 10.796875 -3.140625 C 10.546875 -2.515625 10.164062 -1.941406 9.65625 -1.421875 C 9.144531 -0.910156 8.5625 -0.519531 7.90625 -0.25 C 7.25 0.0078125 6.570312 0.140625 5.875 0.140625 C 5.238281 0.140625 4.609375 0.03125 3.984375 -0.1875 C 3.367188 -0.414062 2.8125 -0.765625 2.3125 -1.234375 L 2.03125 -1.5 C 2.019531 -1.5 2.007812 -1.503906 2 -1.515625 C 2 -1.523438 1.988281 -1.535156 1.96875 -1.546875 C 1.957031 -1.554688 1.945312 -1.570312 1.9375 -1.59375 Z M 9.34375 -1.765625 C 9.832031 -2.253906 10.207031 -2.800781 10.46875 -3.40625 C 10.726562 -4.007812 10.875 -4.625 10.90625 -5.25 C 10.945312 -5.882812 10.875 -6.5 10.6875 -7.09375 C 10.5 -7.695312 10.1875 -8.234375 9.75 -8.703125 L 9.40625 -9.0625 C 9.382812 -9.070312 9.363281 -9.082031 9.34375 -9.09375 C 9.332031 -9.113281 9.316406 -9.128906 9.296875 -9.140625 C 9.285156 -9.148438 9.273438 -9.164062 9.265625 -9.1875 C 9.222656 -9.207031 9.175781 -9.238281 9.125 -9.28125 C 9.09375 -9.3125 9.070312 -9.332031 9.0625 -9.34375 C 9.039062 -9.351562 9.003906 -9.375 8.953125 -9.40625 C 8.910156 -9.4375 8.878906 -9.460938 8.859375 -9.484375 C 8.847656 -9.484375 8.835938 -9.484375 8.828125 -9.484375 C 8.828125 -9.492188 8.820312 -9.503906 8.8125 -9.515625 C 8.414062 -9.765625 7.992188 -9.953125 7.546875 -10.078125 C 7.109375 -10.203125 6.660156 -10.265625 6.203125 -10.265625 C 5.566406 -10.265625 4.941406 -10.144531 4.328125 -9.90625 C 3.722656 -9.675781 3.160156 -9.328125 2.640625 -8.859375 C 2.640625 -8.859375 2.632812 -8.851562 2.625 -8.84375 C 2.625 -8.84375 2.617188 -8.835938 2.609375 -8.828125 C 2.546875 -8.773438 2.484375 -8.71875 2.421875 -8.65625 C 2.359375 -8.59375 2.296875 -8.523438 2.234375 -8.453125 C 1.703125 -7.867188 1.316406 -7.21875 1.078125 -6.5 C 0.847656 -5.78125 0.773438 -5.050781 0.859375 -4.3125 C 0.941406 -3.582031 1.175781 -2.90625 1.5625 -2.28125 C 1.570312 -2.28125 1.578125 -2.273438 1.578125 -2.265625 C 1.578125 -2.265625 1.582031 -2.257812 1.59375 -2.25 C 1.613281 -2.207031 1.644531 -2.160156 1.6875 -2.109375 C 1.707031 -2.085938 1.726562 -2.0625 1.75 -2.03125 C 1.769531 -2.007812 1.789062 -1.976562 1.8125 -1.9375 C 1.84375 -1.894531 1.875 -1.859375 1.90625 -1.828125 C 1.925781 -1.796875 1.945312 -1.773438 1.96875 -1.765625 C 1.976562 -1.742188 1.988281 -1.726562 2 -1.71875 C 2.007812 -1.707031 2.023438 -1.691406 2.046875 -1.671875 L 2.390625 -1.328125 C 2.898438 -0.867188 3.472656 -0.546875 4.109375 -0.359375 C 4.742188 -0.171875 5.390625 -0.113281 6.046875 -0.1875 C 6.640625 -0.25 7.21875 -0.410156 7.78125 -0.671875 C 8.351562 -0.929688 8.875 -1.296875 9.34375 -1.765625 Z M 9.34375 -1.765625 "/></g></g></g><g fill="#000000" fill-opacity="1"><g transform="translate(188.974528, 105.072741)"><g><path d="M 1.421875 -2.1875 C 1.429688 -2.175781 1.429688 -2.15625 1.421875 -2.125 C 1.347656 -1.90625 1.316406 -1.65625 1.328125 -1.375 C 1.347656 -1.101562 1.453125 -0.828125 1.640625 -0.546875 C 1.828125 -0.265625 2.148438 0 2.609375 0.25 C 2.972656 0.4375 3.363281 0.5625 3.78125 0.625 C 3.8125 0.632812 3.863281 0.644531 3.9375 0.65625 C 4 0.65625 4.046875 0.65625 4.078125 0.65625 C 4.554688 0.707031 5.003906 0.660156 5.421875 0.515625 C 5.835938 0.367188 6.179688 0.15625 6.453125 -0.125 C 6.734375 -0.40625 6.90625 -0.722656 6.96875 -1.078125 C 7.019531 -1.429688 6.96875 -1.769531 6.8125 -2.09375 C 6.65625 -2.425781 6.421875 -2.722656 6.109375 -2.984375 L 2.828125 -5.65625 C 2.453125 -5.96875 2.179688 -6.3125 2.015625 -6.6875 C 1.847656 -7.070312 1.796875 -7.460938 1.859375 -7.859375 C 1.921875 -8.273438 2.101562 -8.640625 2.40625 -8.953125 C 2.71875 -9.273438 3.109375 -9.515625 3.578125 -9.671875 C 4.054688 -9.835938 4.570312 -9.898438 5.125 -9.859375 C 5.144531 -9.847656 5.164062 -9.84375 5.1875 -9.84375 C 5.21875 -9.84375 5.25 -9.84375 5.28125 -9.84375 C 5.28125 -9.84375 5.285156 -9.84375 5.296875 -9.84375 C 5.347656 -9.832031 5.394531 -9.828125 5.4375 -9.828125 C 5.851562 -9.753906 6.25 -9.617188 6.625 -9.421875 C 7.1875 -9.140625 7.609375 -8.765625 7.890625 -8.296875 C 8.179688 -7.828125 8.289062 -7.34375 8.21875 -6.84375 C 8.207031 -6.800781 8.179688 -6.785156 8.140625 -6.796875 L 7.796875 -6.859375 C 7.785156 -6.859375 7.773438 -6.863281 7.765625 -6.875 C 7.753906 -6.894531 7.753906 -6.914062 7.765625 -6.9375 C 7.828125 -7.15625 7.851562 -7.398438 7.84375 -7.671875 C 7.84375 -7.953125 7.742188 -8.234375 7.546875 -8.515625 C 7.347656 -8.796875 7.023438 -9.066406 6.578125 -9.328125 C 6.210938 -9.503906 5.828125 -9.628906 5.421875 -9.703125 C 5.378906 -9.703125 5.328125 -9.707031 5.265625 -9.71875 C 5.191406 -9.71875 5.132812 -9.722656 5.09375 -9.734375 C 4.625 -9.765625 4.179688 -9.707031 3.765625 -9.5625 C 3.347656 -9.425781 3 -9.21875 2.71875 -8.9375 C 2.445312 -8.65625 2.28125 -8.328125 2.21875 -7.953125 C 2.164062 -7.609375 2.210938 -7.269531 2.359375 -6.9375 C 2.515625 -6.613281 2.75 -6.320312 3.0625 -6.0625 L 6.359375 -3.40625 C 6.722656 -3.101562 6.988281 -2.757812 7.15625 -2.375 C 7.320312 -1.988281 7.378906 -1.597656 7.328125 -1.203125 C 7.253906 -0.785156 7.0625 -0.414062 6.75 -0.09375 C 6.445312 0.21875 6.0625 0.453125 5.59375 0.609375 C 5.125 0.773438 4.613281 0.832031 4.0625 0.78125 C 4.039062 0.78125 4.015625 0.773438 3.984375 0.765625 C 3.960938 0.765625 3.9375 0.769531 3.90625 0.78125 C 3.90625 0.78125 3.894531 0.78125 3.875 0.78125 C 3.820312 0.769531 3.78125 0.757812 3.75 0.75 C 3.3125 0.6875 2.910156 0.5625 2.546875 0.375 C 1.992188 0.0703125 1.570312 -0.304688 1.28125 -0.765625 C 0.988281 -1.234375 0.882812 -1.71875 0.96875 -2.21875 C 0.96875 -2.257812 0.984375 -2.273438 1.015625 -2.265625 L 1.375 -2.21875 C 1.382812 -2.21875 1.398438 -2.207031 1.421875 -2.1875 Z M 1.421875 -2.1875 "/></g></g></g><g fill="#000000" fill-opacity="1"><g transform="translate(200.578915, 107.203707)"><g><path d="M 10.1875 -7.828125 C 10.226562 -7.816406 10.242188 -7.789062 10.234375 -7.75 L 10.03125 -7.125 C 10.03125 -7.113281 10.019531 -7.097656 10 -7.078125 C 9.988281 -7.078125 9.976562 -7.082031 9.96875 -7.09375 C 9.957031 -7.09375 9.945312 -7.09375 9.9375 -7.09375 C 9.695312 -7.320312 9.421875 -7.53125 9.109375 -7.71875 C 8.804688 -7.90625 8.441406 -8.078125 8.015625 -8.234375 C 7.597656 -8.398438 7.097656 -8.582031 6.515625 -8.78125 C 5.929688 -8.976562 5.238281 -9.195312 4.4375 -9.4375 L 2.953125 -4.59375 L 6.59375 -3.484375 C 6.625 -3.472656 6.632812 -3.445312 6.625 -3.40625 C 6.613281 -3.363281 6.59375 -3.347656 6.5625 -3.359375 L 2.921875 -4.46875 L 1.4375 0.375 C 2.238281 0.613281 2.9375 0.816406 3.53125 0.984375 C 4.125 1.148438 4.640625 1.28125 5.078125 1.375 C 5.523438 1.46875 5.925781 1.519531 6.28125 1.53125 C 6.644531 1.539062 6.988281 1.53125 7.3125 1.5 C 7.332031 1.488281 7.351562 1.492188 7.375 1.515625 C 7.394531 1.523438 7.398438 1.546875 7.390625 1.578125 L 7.203125 2.1875 C 7.191406 2.226562 7.164062 2.242188 7.125 2.234375 L 4 1.28125 C 4 1.28125 3.910156 1.253906 3.734375 1.203125 C 3.554688 1.148438 3.332031 1.082031 3.0625 1 C 2.800781 0.914062 2.539062 0.832031 2.28125 0.75 C 2.019531 0.675781 1.800781 0.613281 1.625 0.5625 C 1.445312 0.507812 1.359375 0.484375 1.359375 0.484375 L 0.84375 0.328125 C 0.800781 0.304688 0.785156 0.273438 0.796875 0.234375 C 0.804688 0.191406 0.832031 0.179688 0.875 0.203125 C 0.988281 0.234375 1.066406 0.191406 1.109375 0.078125 L 3.984375 -9.390625 C 4.023438 -9.503906 3.988281 -9.578125 3.875 -9.609375 C 3.832031 -9.628906 3.816406 -9.660156 3.828125 -9.703125 C 3.835938 -9.742188 3.863281 -9.753906 3.90625 -9.734375 L 4.421875 -9.578125 Z M 10.1875 -7.828125 "/></g></g></g><g fill="#000000" fill-opacity="1"><g transform="translate(211.915077, 110.960497)"><g><path d="M 0.84375 0.3125 C 0.957031 0.363281 1.039062 0.332031 1.09375 0.21875 L 5.25 -8.75 C 5.300781 -8.863281 5.269531 -8.945312 5.15625 -9 C 5.113281 -9.019531 5.097656 -9.046875 5.109375 -9.078125 C 5.128906 -9.117188 5.160156 -9.128906 5.203125 -9.109375 L 5.6875 -8.875 L 11.171875 -6.34375 C 11.203125 -6.332031 11.207031 -6.304688 11.1875 -6.265625 L 10.921875 -5.671875 C 10.910156 -5.660156 10.894531 -5.648438 10.875 -5.640625 C 10.863281 -5.648438 10.851562 -5.65625 10.84375 -5.65625 C 10.832031 -5.664062 10.820312 -5.671875 10.8125 -5.671875 C 10.601562 -5.921875 10.359375 -6.160156 10.078125 -6.390625 C 9.804688 -6.617188 9.472656 -6.84375 9.078125 -7.0625 C 8.679688 -7.28125 8.207031 -7.523438 7.65625 -7.796875 C 7.113281 -8.078125 6.457031 -8.394531 5.6875 -8.75 L 3.5625 -4.15625 L 7.03125 -2.5625 C 7.050781 -2.539062 7.046875 -2.503906 7.015625 -2.453125 C 7.003906 -2.421875 6.988281 -2.414062 6.96875 -2.4375 L 3.5 -4.03125 L 1.453125 0.390625 C 1.398438 0.503906 1.4375 0.585938 1.5625 0.640625 C 1.59375 0.660156 1.597656 0.691406 1.578125 0.734375 C 1.554688 0.773438 1.53125 0.785156 1.5 0.765625 L 0.78125 0.4375 C 0.738281 0.414062 0.726562 0.382812 0.75 0.34375 C 0.769531 0.300781 0.800781 0.289062 0.84375 0.3125 Z M 0.84375 0.3125 "/></g></g></g><g fill="#000000" fill-opacity="1"><g transform="translate(222.476974, 116.249941)"><g><path d="M 6.78125 -7.96875 C 6.65625 -8.039062 6.5625 -8.023438 6.5 -7.921875 L 1.390625 0.546875 C 1.328125 0.660156 1.359375 0.753906 1.484375 0.828125 C 1.503906 0.835938 1.503906 0.859375 1.484375 0.890625 C 1.460938 0.921875 1.441406 0.929688 1.421875 0.921875 L 0.734375 0.5 C 0.691406 0.476562 0.679688 0.453125 0.703125 0.421875 C 0.722656 0.390625 0.753906 0.382812 0.796875 0.40625 C 0.898438 0.476562 0.984375 0.457031 1.046875 0.34375 L 6.15625 -8.125 C 6.21875 -8.226562 6.195312 -8.316406 6.09375 -8.390625 C 6.050781 -8.410156 6.039062 -8.441406 6.0625 -8.484375 C 6.082031 -8.515625 6.113281 -8.519531 6.15625 -8.5 L 6.84375 -8.078125 C 6.863281 -8.066406 6.863281 -8.046875 6.84375 -8.015625 C 6.820312 -7.972656 6.800781 -7.957031 6.78125 -7.96875 Z M 6.78125 -7.96875 "/></g></g></g><g fill="#000000" fill-opacity="1"><g transform="translate(228.256252, 119.814764)"><g><path d="M 0.734375 0.5 C 0.835938 0.570312 0.929688 0.554688 1.015625 0.453125 L 7.109375 -7.484375 C 7.078125 -7.554688 7.039062 -7.609375 7 -7.640625 C 6.96875 -7.671875 6.960938 -7.703125 6.984375 -7.734375 C 7.003906 -7.773438 7.03125 -7.78125 7.0625 -7.75 L 7.265625 -7.609375 L 7.53125 -7.390625 C 7.550781 -7.378906 7.5625 -7.359375 7.5625 -7.328125 L 6.0625 3.9375 L 11.890625 -3.65625 C 11.972656 -3.75 11.96875 -3.832031 11.875 -3.90625 C 11.84375 -3.925781 11.835938 -3.953125 11.859375 -3.984375 C 11.878906 -4.023438 11.90625 -4.035156 11.9375 -4.015625 L 12.328125 -3.703125 C 12.359375 -3.679688 12.363281 -3.648438 12.34375 -3.609375 C 12.320312 -3.578125 12.296875 -3.570312 12.265625 -3.59375 C 12.171875 -3.675781 12.082031 -3.671875 12 -3.578125 C 12 -3.578125 11.910156 -3.460938 11.734375 -3.234375 C 11.566406 -3.003906 11.335938 -2.695312 11.046875 -2.3125 C 10.753906 -1.9375 10.421875 -1.507812 10.046875 -1.03125 C 9.679688 -0.550781 9.300781 -0.0625 8.90625 0.4375 C 8.519531 0.945312 8.144531 1.441406 7.78125 1.921875 C 7.414062 2.398438 7.082031 2.828125 6.78125 3.203125 C 6.488281 3.585938 6.253906 3.894531 6.078125 4.125 C 5.910156 4.351562 5.828125 4.46875 5.828125 4.46875 C 5.816406 4.476562 5.8125 4.488281 5.8125 4.5 C 5.78125 4.5 5.757812 4.492188 5.75 4.484375 C 5.75 4.484375 5.726562 4.46875 5.6875 4.4375 C 5.644531 4.40625 5.625 4.390625 5.625 4.390625 C 5.601562 4.367188 5.59375 4.351562 5.59375 4.34375 L 7.140625 -7.265625 C 7.140625 -7.273438 7.132812 -7.289062 7.125 -7.3125 L 1.109375 0.53125 C 1.023438 0.632812 1.035156 0.722656 1.140625 0.796875 C 1.171875 0.828125 1.175781 0.859375 1.15625 0.890625 C 1.132812 0.921875 1.109375 0.921875 1.078125 0.890625 L 0.671875 0.59375 C 0.640625 0.5625 0.632812 0.53125 0.65625 0.5 C 0.675781 0.46875 0.703125 0.46875 0.734375 0.5 Z M 0.734375 0.5 "/></g></g></g><g fill="#000000" fill-opacity="1"><g transform="translate(238.012504, 127.786176)"><g/></g></g><g fill="#000000" fill-opacity="1"><g transform="translate(244.06067, 133.874739)"><g><path d="M 9.578125 1.25 C 9.816406 1.644531 9.960938 2.046875 10.015625 2.453125 C 10.078125 2.859375 10.050781 3.238281 9.9375 3.59375 C 9.832031 3.945312 9.640625 4.234375 9.359375 4.453125 C 9.085938 4.660156 8.769531 4.78125 8.40625 4.8125 C 8.039062 4.851562 7.671875 4.796875 7.296875 4.640625 L 6.234375 4.21875 C 5.847656 4.519531 5.378906 4.660156 4.828125 4.640625 C 4.273438 4.617188 3.738281 4.429688 3.21875 4.078125 C 3.195312 4.066406 3.195312 4.066406 3.21875 4.078125 C 2.882812 3.847656 2.585938 3.566406 2.328125 3.234375 L 2.265625 3.171875 C 2.242188 3.148438 2.226562 3.132812 2.21875 3.125 C 2.21875 3.113281 2.210938 3.097656 2.203125 3.078125 L 2.109375 2.953125 C 1.804688 2.566406 1.625 2.140625 1.5625 1.671875 C 1.507812 1.203125 1.570312 0.742188 1.75 0.296875 C 1.925781 -0.140625 2.207031 -0.507812 2.59375 -0.8125 C 2.9375 -1.082031 3.304688 -1.253906 3.703125 -1.328125 C 4.109375 -1.410156 4.507812 -1.398438 4.90625 -1.296875 C 5.3125 -1.203125 5.664062 -1.023438 5.96875 -0.765625 C 5.800781 -1.128906 5.71875 -1.515625 5.71875 -1.921875 C 5.726562 -2.335938 5.816406 -2.726562 5.984375 -3.09375 C 6.160156 -3.46875 6.425781 -3.789062 6.78125 -4.0625 C 7.164062 -4.363281 7.59375 -4.539062 8.0625 -4.59375 C 8.539062 -4.65625 9 -4.601562 9.4375 -4.4375 C 9.875 -4.269531 10.242188 -3.992188 10.546875 -3.609375 L 10.640625 -3.484375 C 10.640625 -3.484375 10.644531 -3.476562 10.65625 -3.46875 C 10.695312 -3.414062 10.726562 -3.378906 10.75 -3.359375 C 11.007812 -3.023438 11.210938 -2.65625 11.359375 -2.25 C 11.578125 -1.65625 11.628906 -1.085938 11.515625 -0.546875 C 11.410156 -0.015625 11.15625 0.40625 10.75 0.71875 C 10.71875 0.75 10.6875 0.75 10.65625 0.71875 L 10.453125 0.4375 C 10.441406 0.425781 10.429688 0.410156 10.421875 0.390625 C 10.429688 0.367188 10.445312 0.351562 10.46875 0.34375 C 10.675781 0.226562 10.867188 0.0664062 11.046875 -0.140625 C 11.222656 -0.347656 11.335938 -0.617188 11.390625 -0.953125 C 11.453125 -1.296875 11.398438 -1.71875 11.234375 -2.21875 C 11.097656 -2.59375 10.90625 -2.945312 10.65625 -3.28125 C 10.632812 -3.300781 10.601562 -3.335938 10.5625 -3.390625 C 10.5625 -3.390625 10.554688 -3.394531 10.546875 -3.40625 C 10.285156 -3.738281 9.953125 -3.972656 9.546875 -4.109375 C 9.140625 -4.253906 8.71875 -4.289062 8.28125 -4.21875 C 7.84375 -4.144531 7.441406 -3.96875 7.078125 -3.6875 C 6.691406 -3.394531 6.410156 -3.046875 6.234375 -2.640625 C 6.066406 -2.234375 6 -1.816406 6.03125 -1.390625 C 6.0625 -0.972656 6.207031 -0.597656 6.46875 -0.265625 C 6.78125 -0.347656 7.113281 -0.351562 7.46875 -0.28125 C 7.832031 -0.21875 8.1875 -0.078125 8.53125 0.140625 C 8.53125 0.140625 8.53125 0.144531 8.53125 0.15625 C 8.832031 0.363281 9.101562 0.613281 9.34375 0.90625 C 9.40625 0.988281 9.457031 1.066406 9.5 1.140625 C 9.519531 1.171875 9.546875 1.207031 9.578125 1.25 Z M 3.296875 3.953125 C 3.679688 4.210938 4.023438 4.363281 4.328125 4.40625 C 4.628906 4.457031 4.898438 4.441406 5.140625 4.359375 C 5.378906 4.273438 5.582031 4.160156 5.75 4.015625 L 3.890625 3.265625 C 3.367188 3.078125 2.894531 3.0625 2.46875 3.21875 C 2.71875 3.507812 2.992188 3.753906 3.296875 3.953125 Z M 7.484375 4.265625 C 7.828125 4.398438 8.148438 4.453125 8.453125 4.421875 C 8.765625 4.398438 9.039062 4.296875 9.28125 4.109375 C 9.519531 3.921875 9.6875 3.671875 9.78125 3.359375 C 9.875 3.054688 9.894531 2.726562 9.84375 2.375 C 9.800781 2.03125 9.675781 1.679688 9.46875 1.328125 C 9.445312 1.273438 9.425781 1.238281 9.40625 1.21875 C 9.363281 1.144531 9.3125 1.066406 9.25 0.984375 C 9.03125 0.703125 8.773438 0.46875 8.484375 0.28125 C 8.472656 0.269531 8.46875 0.265625 8.46875 0.265625 C 8.09375 0.015625 7.757812 -0.117188 7.46875 -0.140625 C 7.175781 -0.160156 6.921875 -0.117188 6.703125 -0.015625 C 6.492188 0.0859375 6.316406 0.210938 6.171875 0.359375 C 6.160156 0.367188 6.140625 0.378906 6.109375 0.390625 C 6.097656 0.390625 6.085938 0.378906 6.078125 0.359375 L 5.890625 0.125 C 5.859375 0.09375 5.863281 0.0664062 5.90625 0.046875 C 6.03125 -0.0546875 6.171875 -0.140625 6.328125 -0.203125 C 6.054688 -0.535156 5.722656 -0.765625 5.328125 -0.890625 C 4.929688 -1.023438 4.515625 -1.054688 4.078125 -0.984375 C 3.648438 -0.910156 3.253906 -0.726562 2.890625 -0.4375 C 2.523438 -0.15625 2.253906 0.179688 2.078125 0.578125 C 1.898438 0.972656 1.820312 1.375 1.84375 1.78125 C 1.875 2.195312 2.007812 2.578125 2.25 2.921875 C 2.78125 2.628906 3.390625 2.617188 4.078125 2.890625 Z M 7.484375 4.265625 "/></g></g></g><g fill="#000000" fill-opacity="1"><g transform="translate(252.389746, 145.35608)"><g/></g></g><g fill="#000000" fill-opacity="1"><g transform="translate(256.588715, 152.863054)"><g><path d="M 0.421875 0.78125 C 0.460938 0.894531 0.539062 0.929688 0.65625 0.890625 L 9.734375 -3.046875 C 9.847656 -3.085938 9.882812 -3.164062 9.84375 -3.28125 C 9.820312 -3.3125 9.828125 -3.335938 9.859375 -3.359375 C 9.898438 -3.378906 9.929688 -3.375 9.953125 -3.34375 L 10.265625 -2.609375 C 10.273438 -2.578125 10.257812 -2.550781 10.21875 -2.53125 C 10.1875 -2.507812 10.164062 -2.515625 10.15625 -2.546875 C 10.101562 -2.671875 10.019531 -2.710938 9.90625 -2.671875 L 4.890625 -0.5 C 4.753906 -0.4375 4.65625 -0.332031 4.59375 -0.1875 C 4.539062 -0.0507812 4.546875 0.0859375 4.609375 0.234375 C 4.691406 0.429688 4.835938 0.539062 5.046875 0.5625 L 11.734375 1.484375 C 11.804688 1.503906 11.847656 1.5 11.859375 1.46875 C 11.878906 1.457031 11.878906 1.4375 11.859375 1.40625 C 11.847656 1.375 11.859375 1.347656 11.890625 1.328125 C 11.929688 1.304688 11.957031 1.3125 11.96875 1.34375 L 12.171875 1.796875 C 12.179688 1.835938 12.164062 1.867188 12.125 1.890625 C 12.09375 1.910156 12.070312 1.898438 12.0625 1.859375 C 12.007812 1.734375 11.894531 1.65625 11.71875 1.625 L 6.96875 0.953125 L 3.25 5.9375 C 3 6.238281 2.941406 6.578125 3.078125 6.953125 C 3.097656 6.992188 3.085938 7.023438 3.046875 7.046875 C 3.003906 7.066406 2.972656 7.054688 2.953125 7.015625 C 2.847656 6.710938 2.816406 6.410156 2.859375 6.109375 C 2.910156 5.816406 3.03125 5.546875 3.21875 5.296875 L 6.453125 0.890625 L 5.03125 0.6875 C 4.78125 0.644531 4.601562 0.507812 4.5 0.28125 C 4.40625 0.0703125 4.414062 -0.132812 4.53125 -0.34375 L 0.828125 1.265625 C 0.710938 1.304688 0.679688 1.390625 0.734375 1.515625 C 0.742188 1.546875 0.726562 1.570312 0.6875 1.59375 C 0.644531 1.613281 0.617188 1.609375 0.609375 1.578125 L 0.296875 0.84375 C 0.273438 0.8125 0.285156 0.785156 0.328125 0.765625 C 0.367188 0.742188 0.398438 0.75 0.421875 0.78125 Z M 0.421875 0.78125 "/></g></g></g><g fill="#000000" fill-opacity="1"><g transform="translate(260.982907, 163.951898)"><g><path d="M 10.375 -1.4375 C 10.332031 -1.5625 10.25 -1.601562 10.125 -1.5625 L 0.671875 1.34375 C 0.554688 1.382812 0.519531 1.46875 0.5625 1.59375 C 0.570312 1.625 0.554688 1.644531 0.515625 1.65625 C 0.472656 1.664062 0.445312 1.65625 0.4375 1.625 L 0.203125 0.859375 C 0.191406 0.828125 0.207031 0.804688 0.25 0.796875 C 0.289062 0.785156 0.316406 0.796875 0.328125 0.828125 C 0.359375 0.953125 0.429688 0.992188 0.546875 0.953125 L 10 -1.953125 C 10.125 -1.992188 10.171875 -2.078125 10.140625 -2.203125 C 10.128906 -2.234375 10.140625 -2.253906 10.171875 -2.265625 C 10.210938 -2.273438 10.238281 -2.265625 10.25 -2.234375 L 10.484375 -1.46875 C 10.492188 -1.4375 10.476562 -1.414062 10.4375 -1.40625 C 10.40625 -1.394531 10.382812 -1.40625 10.375 -1.4375 Z M 10.375 -1.4375 "/></g></g></g><g fill="#000000" fill-opacity="1"><g transform="translate(262.892853, 170.478633)"><g><path d="M -0.03125 0.21875 C -0.03125 0.175781 -0.0078125 0.148438 0.03125 0.140625 C 0.0703125 0.128906 0.09375 0.144531 0.09375 0.1875 C 0.125 0.320312 0.210938 0.394531 0.359375 0.40625 L 5.90625 0.96875 L 10.453125 1.421875 L 10.984375 1.46875 L 10.984375 1.484375 C 10.984375 1.472656 10.988281 1.472656 11 1.484375 C 11 1.492188 11 1.5 11 1.5 C 11.007812 1.5 11.015625 1.5 11.015625 1.5 C 11.015625 1.5 11.015625 1.503906 11.015625 1.515625 C 11.023438 1.523438 11.03125 1.523438 11.03125 1.515625 C 11.019531 1.515625 11.019531 1.515625 11.03125 1.515625 C 11.03125 1.523438 11.03125 1.53125 11.03125 1.53125 C 11.039062 1.539062 11.046875 1.546875 11.046875 1.546875 C 11.035156 1.554688 11.035156 1.5625 11.046875 1.5625 C 11.046875 1.550781 11.039062 1.550781 11.03125 1.5625 C 11.03125 1.570312 11.03125 1.578125 11.03125 1.578125 C 11.019531 1.578125 11.019531 1.578125 11.03125 1.578125 C 11.03125 1.578125 11.023438 1.582031 11.015625 1.59375 C 11.003906 1.59375 11 1.59375 11 1.59375 L 1.5625 6.59375 C 1.4375 6.65625 1.382812 6.75 1.40625 6.875 C 1.414062 6.914062 1.398438 6.941406 1.359375 6.953125 C 1.316406 6.960938 1.289062 6.945312 1.28125 6.90625 L 1.171875 6.359375 L 1.140625 6.140625 C 1.128906 6.097656 1.144531 6.070312 1.1875 6.0625 C 1.226562 6.050781 1.253906 6.066406 1.265625 6.109375 C 1.265625 6.148438 1.285156 6.175781 1.328125 6.1875 C 1.359375 6.195312 1.398438 6.1875 1.453125 6.15625 L 3.09375 5.296875 C 3.101562 5.296875 3.101562 5.296875 3.09375 5.296875 C 3.863281 4.859375 4.488281 4.265625 4.96875 3.515625 C 5.445312 2.773438 5.734375 1.960938 5.828125 1.078125 L 0.34375 0.515625 C 0.289062 0.515625 0.25 0.53125 0.21875 0.5625 C 0.195312 0.59375 0.191406 0.628906 0.203125 0.671875 C 0.203125 0.710938 0.179688 0.738281 0.140625 0.75 C 0.0976562 0.757812 0.078125 0.742188 0.078125 0.703125 Z M 5.953125 1.09375 C 5.878906 1.832031 5.664062 2.523438 5.3125 3.171875 C 4.96875 3.816406 4.519531 4.367188 3.96875 4.828125 L 10.21875 1.515625 Z M 5.953125 1.09375 "/></g></g></g><g fill="#000000" fill-opacity="1"><g transform="translate(264.833174, 181.711063)"><g><path d="M 0.109375 0.890625 C 0.117188 1.015625 0.1875 1.070312 0.3125 1.0625 L 10.1875 0.53125 C 10.3125 0.519531 10.367188 0.453125 10.359375 0.328125 C 10.359375 0.285156 10.378906 0.265625 10.421875 0.265625 C 10.460938 0.265625 10.484375 0.285156 10.484375 0.328125 L 10.515625 0.84375 L 10.671875 3.796875 C 10.703125 4.296875 10.609375 4.75 10.390625 5.15625 C 10.171875 5.5625 9.863281 5.894531 9.46875 6.15625 C 9.070312 6.414062 8.632812 6.5625 8.15625 6.59375 C 7.664062 6.625 7.210938 6.53125 6.796875 6.3125 C 6.390625 6.09375 6.054688 5.789062 5.796875 5.40625 C 5.535156 5.019531 5.390625 4.578125 5.359375 4.078125 L 5.328125 3.53125 C 5.253906 3.851562 5.117188 4.148438 4.921875 4.421875 C 4.734375 4.703125 4.492188 4.929688 4.203125 5.109375 L 1.015625 7.1875 C 0.679688 7.394531 0.507812 7.691406 0.5 8.078125 C 0.5 8.117188 0.476562 8.140625 0.4375 8.140625 C 0.394531 8.140625 0.375 8.117188 0.375 8.078125 C 0.375 7.765625 0.445312 7.472656 0.59375 7.203125 C 0.738281 6.941406 0.941406 6.726562 1.203125 6.5625 L 4.375 4.5 C 4.675781 4.289062 4.90625 4.023438 5.0625 3.703125 C 5.226562 3.390625 5.300781 3.054688 5.28125 2.703125 L 5.203125 1.203125 L 0.328125 1.46875 C 0.203125 1.476562 0.144531 1.550781 0.15625 1.6875 C 0.15625 1.71875 0.132812 1.734375 0.09375 1.734375 C 0.0507812 1.734375 0.03125 1.71875 0.03125 1.6875 L -0.015625 0.890625 C -0.015625 0.847656 0.00390625 0.828125 0.046875 0.828125 C 0.0859375 0.828125 0.109375 0.847656 0.109375 0.890625 Z M 5.34375 1.203125 L 5.5 3.921875 C 5.519531 4.359375 5.648438 4.742188 5.890625 5.078125 C 6.140625 5.421875 6.457031 5.6875 6.84375 5.875 C 7.238281 6.0625 7.671875 6.144531 8.140625 6.125 C 8.609375 6.101562 9.03125 5.976562 9.40625 5.75 C 9.78125 5.519531 10.066406 5.21875 10.265625 4.84375 C 10.472656 4.476562 10.566406 4.078125 10.546875 3.640625 L 10.390625 0.921875 Z M 5.34375 1.203125 "/></g></g></g><g fill="#000000" fill-opacity="1"><g transform="translate(265.181906, 194.163537)"><g><path d="M -0.078125 0.203125 C -0.078125 0.160156 -0.0546875 0.140625 -0.015625 0.140625 C 0.0234375 0.140625 0.046875 0.160156 0.046875 0.203125 C 0.0351562 0.335938 0.09375 0.429688 0.21875 0.484375 L 5.421875 2.546875 L 9.671875 4.234375 L 10.15625 4.421875 L 10.15625 4.4375 C 10.15625 4.425781 10.160156 4.425781 10.171875 4.4375 C 10.171875 4.4375 10.175781 4.4375 10.1875 4.4375 C 10.1875 4.445312 10.1875 4.453125 10.1875 4.453125 C 10.195312 4.453125 10.203125 4.453125 10.203125 4.453125 C 10.203125 4.453125 10.203125 4.457031 10.203125 4.46875 C 10.203125 4.476562 10.207031 4.476562 10.21875 4.46875 C 10.207031 4.46875 10.207031 4.46875 10.21875 4.46875 C 10.207031 4.476562 10.203125 4.484375 10.203125 4.484375 C 10.203125 4.492188 10.203125 4.5 10.203125 4.5 C 10.191406 4.507812 10.191406 4.515625 10.203125 4.515625 C 10.203125 4.503906 10.195312 4.503906 10.1875 4.515625 C 10.1875 4.523438 10.1875 4.53125 10.1875 4.53125 C 10.175781 4.53125 10.175781 4.53125 10.1875 4.53125 C 10.1875 4.53125 10.179688 4.535156 10.171875 4.546875 C 10.160156 4.546875 10.15625 4.546875 10.15625 4.546875 C 10.144531 4.546875 10.140625 4.546875 10.140625 4.546875 L -0.3125 6.75 C -0.445312 6.78125 -0.519531 6.859375 -0.53125 6.984375 C -0.53125 7.023438 -0.550781 7.046875 -0.59375 7.046875 C -0.632812 7.046875 -0.65625 7.023438 -0.65625 6.984375 L -0.640625 6.75 L -0.609375 6.453125 L -0.59375 6.21875 C -0.582031 6.175781 -0.554688 6.15625 -0.515625 6.15625 C -0.472656 6.15625 -0.457031 6.175781 -0.46875 6.21875 C -0.46875 6.257812 -0.453125 6.296875 -0.421875 6.328125 C -0.390625 6.347656 -0.347656 6.347656 -0.296875 6.328125 L 1.53125 5.953125 C 1.539062 5.953125 1.539062 5.953125 1.53125 5.953125 C 2.382812 5.734375 3.144531 5.332031 3.8125 4.75 C 4.476562 4.164062 4.976562 3.460938 5.3125 2.640625 L 0.1875 0.59375 C 0.132812 0.582031 0.09375 0.585938 0.0625 0.609375 C 0.03125 0.628906 0.0078125 0.660156 0 0.703125 C 0 0.742188 -0.0195312 0.765625 -0.0625 0.765625 C -0.101562 0.765625 -0.125 0.742188 -0.125 0.703125 Z M 5.4375 2.671875 C 5.15625 3.367188 4.757812 3.976562 4.25 4.5 C 3.738281 5.03125 3.148438 5.441406 2.484375 5.734375 L 9.421875 4.265625 Z M 5.4375 2.671875 "/></g></g></g><g fill="#000000" fill-opacity="1"><g transform="translate(263.97497, 205.364245)"><g><path d="M 2.09375 1.546875 C 2.082031 1.554688 2.0625 1.554688 2.03125 1.546875 C 1.820312 1.453125 1.578125 1.40625 1.296875 1.40625 C 1.023438 1.40625 0.738281 1.488281 0.4375 1.65625 C 0.144531 1.832031 -0.132812 2.140625 -0.40625 2.578125 C -0.613281 2.941406 -0.765625 3.328125 -0.859375 3.734375 C -0.867188 3.765625 -0.878906 3.816406 -0.890625 3.890625 C -0.890625 3.953125 -0.894531 4 -0.90625 4.03125 C -0.976562 4.507812 -0.953125 4.957031 -0.828125 5.375 C -0.710938 5.800781 -0.523438 6.160156 -0.265625 6.453125 C -0.00390625 6.742188 0.300781 6.929688 0.65625 7.015625 C 1 7.085938 1.34375 7.054688 1.6875 6.921875 C 2.03125 6.796875 2.335938 6.582031 2.609375 6.28125 L 5.484375 3.15625 C 5.804688 2.8125 6.164062 2.5625 6.5625 2.40625 C 6.957031 2.257812 7.347656 2.226562 7.734375 2.3125 C 8.148438 2.40625 8.503906 2.613281 8.796875 2.9375 C 9.097656 3.269531 9.3125 3.675781 9.4375 4.15625 C 9.570312 4.644531 9.597656 5.164062 9.515625 5.71875 C 9.515625 5.738281 9.507812 5.757812 9.5 5.78125 C 9.5 5.8125 9.5 5.835938 9.5 5.859375 C 9.5 5.859375 9.5 5.863281 9.5 5.875 C 9.488281 5.925781 9.476562 5.972656 9.46875 6.015625 C 9.375 6.429688 9.21875 6.816406 9 7.171875 C 8.6875 7.722656 8.285156 8.128906 7.796875 8.390625 C 7.316406 8.648438 6.828125 8.722656 6.328125 8.609375 C 6.285156 8.609375 6.269531 8.585938 6.28125 8.546875 L 6.359375 8.203125 C 6.367188 8.191406 6.378906 8.179688 6.390625 8.171875 C 6.410156 8.148438 6.429688 8.148438 6.453125 8.171875 C 6.660156 8.242188 6.898438 8.285156 7.171875 8.296875 C 7.453125 8.304688 7.738281 8.222656 8.03125 8.046875 C 8.332031 7.867188 8.617188 7.5625 8.890625 7.125 C 9.097656 6.769531 9.25 6.390625 9.34375 5.984375 C 9.351562 5.941406 9.363281 5.890625 9.375 5.828125 C 9.375 5.773438 9.378906 5.726562 9.390625 5.6875 C 9.453125 5.207031 9.425781 4.753906 9.3125 4.328125 C 9.207031 3.910156 9.023438 3.554688 8.765625 3.265625 C 8.503906 2.984375 8.191406 2.800781 7.828125 2.71875 C 7.472656 2.632812 7.128906 2.65625 6.796875 2.78125 C 6.460938 2.914062 6.148438 3.132812 5.859375 3.4375 L 3 6.546875 C 2.6875 6.890625 2.332031 7.132812 1.9375 7.28125 C 1.539062 7.4375 1.144531 7.46875 0.75 7.375 C 0.332031 7.289062 -0.0195312 7.082031 -0.3125 6.75 C -0.613281 6.414062 -0.828125 6.007812 -0.953125 5.53125 C -1.085938 5.0625 -1.113281 4.550781 -1.03125 4 C -1.03125 3.976562 -1.023438 3.953125 -1.015625 3.921875 C -1.015625 3.898438 -1.015625 3.878906 -1.015625 3.859375 C -1.015625 3.859375 -1.015625 3.847656 -1.015625 3.828125 C -1.003906 3.773438 -0.992188 3.734375 -0.984375 3.703125 C -0.890625 3.273438 -0.738281 2.878906 -0.53125 2.515625 C -0.195312 1.984375 0.207031 1.582031 0.6875 1.3125 C 1.175781 1.050781 1.664062 0.972656 2.15625 1.078125 C 2.195312 1.085938 2.210938 1.113281 2.203125 1.15625 L 2.125 1.5 C 2.125 1.507812 2.113281 1.523438 2.09375 1.546875 Z M 2.09375 1.546875 "/></g></g></g><g fill="#000000" fill-opacity="1"><g transform="translate(261.173311, 216.817729)"><g><path d="M 6.90625 10.953125 C 6.945312 10.835938 6.910156 10.753906 6.796875 10.703125 L -2.453125 7.21875 C -2.566406 7.164062 -2.644531 7.195312 -2.6875 7.3125 C -2.707031 7.351562 -2.738281 7.367188 -2.78125 7.359375 C -2.820312 7.347656 -2.832031 7.320312 -2.8125 7.28125 L -2.53125 6.53125 C -2.519531 6.488281 -2.492188 6.472656 -2.453125 6.484375 C -2.410156 6.492188 -2.394531 6.519531 -2.40625 6.5625 C -2.457031 6.675781 -2.425781 6.757812 -2.3125 6.8125 L 3.453125 8.984375 C 2.898438 8.503906 2.523438 7.695312 2.328125 6.5625 C 2.128906 5.425781 2.144531 4.066406 2.375 2.484375 L -0.296875 1.484375 C -0.410156 1.429688 -0.488281 1.46875 -0.53125 1.59375 C -0.539062 1.625 -0.566406 1.632812 -0.609375 1.625 C -0.648438 1.613281 -0.664062 1.59375 -0.65625 1.5625 L -0.375 0.8125 C -0.363281 0.78125 -0.335938 0.769531 -0.296875 0.78125 C -0.253906 0.789062 -0.238281 0.8125 -0.25 0.84375 C -0.289062 0.96875 -0.253906 1.054688 -0.140625 1.109375 L 9.109375 4.59375 C 9.222656 4.644531 9.300781 4.609375 9.34375 4.484375 C 9.351562 4.453125 9.378906 4.441406 9.421875 4.453125 C 9.460938 4.472656 9.476562 4.5 9.46875 4.53125 L 9.1875 5.28125 C 9.175781 5.3125 9.148438 5.316406 9.109375 5.296875 C 9.066406 5.285156 9.050781 5.265625 9.0625 5.234375 C 9.101562 5.109375 9.066406 5.019531 8.953125 4.96875 L 2.5 2.53125 C 2.332031 3.726562 2.285156 4.789062 2.359375 5.71875 C 2.429688 6.65625 2.613281 7.425781 2.90625 8.03125 C 3.195312 8.632812 3.585938 9.03125 4.078125 9.21875 L 6.9375 10.296875 C 7.050781 10.347656 7.132812 10.316406 7.1875 10.203125 C 7.195312 10.160156 7.222656 10.144531 7.265625 10.15625 C 7.304688 10.175781 7.320312 10.207031 7.3125 10.25 L 7.03125 11 C 7.007812 11.039062 6.976562 11.050781 6.9375 11.03125 C 6.894531 11.019531 6.882812 10.992188 6.90625 10.953125 Z M 6.90625 10.953125 "/></g></g></g><g fill="#000000" fill-opacity="1"><g transform="translate(91.763146, 201.157616)"><g><path d="M 9.78125 -0.453125 C 9.769531 -0.472656 9.773438 -0.488281 9.796875 -0.5 C 9.828125 -0.53125 9.859375 -0.53125 9.890625 -0.5 L 10.421875 0.0625 L 10.6875 0.328125 C 10.6875 0.335938 10.691406 0.347656 10.703125 0.359375 C 10.703125 0.367188 10.695312 0.378906 10.6875 0.390625 C 10.695312 0.398438 10.695312 0.398438 10.6875 0.390625 C 10.695312 0.398438 10.703125 0.40625 10.703125 0.40625 C 10.703125 0.414062 10.695312 0.421875 10.6875 0.421875 C 10.6875 0.421875 10.679688 0.421875 10.671875 0.421875 C 10.660156 0.421875 10.65625 0.421875 10.65625 0.421875 C 10.644531 0.421875 10.644531 0.421875 10.65625 0.421875 L 0.53125 1.890625 C 0.40625 1.898438 0.347656 1.96875 0.359375 2.09375 C 0.367188 2.132812 0.351562 2.160156 0.3125 2.171875 C 0.269531 2.179688 0.242188 2.164062 0.234375 2.125 L 0.203125 1.875 C 0.203125 1.875 0.195312 1.828125 0.1875 1.734375 C 0.175781 1.640625 0.171875 1.59375 0.171875 1.59375 C 0.171875 1.59375 0.160156 1.550781 0.140625 1.46875 C 0.128906 1.382812 0.125 1.34375 0.125 1.34375 C 0.125 1.300781 0.144531 1.273438 0.1875 1.265625 C 0.226562 1.253906 0.25 1.269531 0.25 1.3125 C 0.269531 1.4375 0.34375 1.492188 0.46875 1.484375 L 10.25 0.0625 L 9.796875 -0.40625 C 9.785156 -0.414062 9.78125 -0.429688 9.78125 -0.453125 Z M 9.78125 -0.453125 "/></g></g></g><g fill="#000000" fill-opacity="1"><g transform="translate(92.913759, 208.419953)"><g><path d="M 0.140625 0.703125 C 0.160156 0.691406 0.179688 0.691406 0.203125 0.703125 L 11.65625 3.890625 L 11 1.359375 C 10.851562 0.765625 10.722656 0.28125 10.609375 -0.09375 C 10.492188 -0.476562 10.378906 -0.796875 10.265625 -1.046875 C 10.160156 -1.296875 10.03125 -1.515625 9.875 -1.703125 C 9.863281 -1.703125 9.851562 -1.707031 9.84375 -1.71875 C 9.84375 -1.726562 9.847656 -1.738281 9.859375 -1.75 C 9.867188 -1.769531 9.878906 -1.78125 9.890625 -1.78125 L 10.234375 -1.875 C 10.273438 -1.882812 10.300781 -1.875 10.3125 -1.84375 L 11.796875 3.96875 L 11.875 4.28125 C 11.882812 4.3125 11.878906 4.335938 11.859375 4.359375 C 11.847656 4.367188 11.828125 4.375 11.796875 4.375 L 0.265625 1.140625 C 0.234375 1.140625 0.21875 1.125 0.21875 1.09375 L 0.125 0.765625 C 0.125 0.742188 0.128906 0.722656 0.140625 0.703125 Z M 0.140625 0.703125 "/></g></g></g><g fill="#000000" fill-opacity="1"><g transform="translate(96.355459, 220.314342)"><g><path d="M 6.046875 1.0625 C 6.054688 1.101562 6.035156 1.132812 5.984375 1.15625 C 5.941406 1.164062 5.914062 1.148438 5.90625 1.109375 L 4.90625 -1.5 C 4.882812 -1.539062 4.894531 -1.566406 4.9375 -1.578125 C 4.988281 -1.597656 5.023438 -1.585938 5.046875 -1.546875 Z M 6.046875 1.0625 "/></g></g></g><g fill="#000000" fill-opacity="1"><g transform="translate(99.438311, 227.805905)"><g><path d="M 9.171875 -3.40625 C 9.160156 -3.425781 9.160156 -3.445312 9.171875 -3.46875 C 9.203125 -3.5 9.234375 -3.503906 9.265625 -3.484375 L 9.9375 -3.125 L 10.28125 -2.953125 C 10.28125 -2.941406 10.289062 -2.929688 10.3125 -2.921875 C 10.3125 -2.910156 10.304688 -2.898438 10.296875 -2.890625 C 10.304688 -2.878906 10.304688 -2.878906 10.296875 -2.890625 C 10.304688 -2.878906 10.3125 -2.875 10.3125 -2.875 C 10.3125 -2.875 10.304688 -2.875 10.296875 -2.875 C 10.296875 -2.875 10.289062 -2.867188 10.28125 -2.859375 C 10.269531 -2.859375 10.265625 -2.859375 10.265625 -2.859375 C 10.253906 -2.847656 10.253906 -2.847656 10.265625 -2.859375 L 1.0625 1.625 C 0.957031 1.675781 0.9375 1.757812 1 1.875 C 1.007812 1.914062 0.992188 1.945312 0.953125 1.96875 C 0.910156 1.988281 0.882812 1.976562 0.875 1.9375 L 0.765625 1.71875 C 0.765625 1.71875 0.742188 1.675781 0.703125 1.59375 C 0.660156 1.507812 0.640625 1.46875 0.640625 1.46875 C 0.640625 1.46875 0.617188 1.425781 0.578125 1.34375 C 0.546875 1.269531 0.53125 1.234375 0.53125 1.234375 C 0.507812 1.203125 0.519531 1.175781 0.5625 1.15625 C 0.601562 1.132812 0.632812 1.140625 0.65625 1.171875 C 0.707031 1.285156 0.785156 1.316406 0.890625 1.265625 L 9.796875 -3.0625 L 9.203125 -3.359375 C 9.191406 -3.367188 9.179688 -3.382812 9.171875 -3.40625 Z M 9.171875 -3.40625 "/></g></g></g><g fill="#000000" fill-opacity="1"><g transform="translate(102.769191, 234.447868)"><g><path d="M 2.671875 -0.5625 C 3.035156 -0.800781 3.414062 -0.9375 3.8125 -0.96875 C 4.21875 -1.007812 4.613281 -0.960938 5 -0.828125 C 5.394531 -0.703125 5.734375 -0.492188 6.015625 -0.203125 C 5.878906 -0.585938 5.832031 -0.984375 5.875 -1.390625 C 5.914062 -1.796875 6.039062 -2.175781 6.25 -2.53125 C 6.46875 -2.882812 6.765625 -3.175781 7.140625 -3.40625 C 7.554688 -3.675781 8 -3.816406 8.46875 -3.828125 C 8.945312 -3.835938 9.394531 -3.738281 9.8125 -3.53125 C 10.238281 -3.320312 10.582031 -3.007812 10.84375 -2.59375 L 11.5625 -1.46875 C 11.820312 -1.070312 11.953125 -0.632812 11.953125 -0.15625 C 11.960938 0.3125 11.859375 0.753906 11.640625 1.171875 C 11.429688 1.597656 11.117188 1.945312 10.703125 2.21875 C 10.328125 2.445312 9.9375 2.582031 9.53125 2.625 C 9.125 2.675781 8.726562 2.632812 8.34375 2.5 C 7.96875 2.363281 7.628906 2.15625 7.328125 1.875 C 7.484375 2.25 7.535156 2.640625 7.484375 3.046875 C 7.429688 3.460938 7.300781 3.84375 7.09375 4.1875 C 6.882812 4.53125 6.597656 4.820312 6.234375 5.0625 C 5.816406 5.320312 5.367188 5.457031 4.890625 5.46875 C 4.410156 5.488281 3.960938 5.390625 3.546875 5.171875 C 3.128906 4.960938 2.789062 4.660156 2.53125 4.265625 L 1.8125 3.140625 C 1.550781 2.722656 1.414062 2.28125 1.40625 1.8125 C 1.394531 1.34375 1.5 0.894531 1.71875 0.46875 C 1.9375 0.0390625 2.253906 -0.300781 2.671875 -0.5625 Z M 6.359375 0.4375 C 6.128906 0.0820312 5.820312 -0.179688 5.4375 -0.359375 C 5.050781 -0.546875 4.632812 -0.625 4.1875 -0.59375 C 3.738281 -0.5625 3.316406 -0.414062 2.921875 -0.15625 C 2.523438 0.09375 2.21875 0.410156 2 0.796875 C 1.78125 1.179688 1.664062 1.585938 1.65625 2.015625 C 1.65625 2.453125 1.769531 2.847656 2 3.203125 L 2.53125 4.046875 C 2.757812 4.410156 3.066406 4.679688 3.453125 4.859375 C 3.847656 5.035156 4.269531 5.109375 4.71875 5.078125 C 5.164062 5.054688 5.585938 4.925781 5.984375 4.6875 C 6.378906 4.425781 6.6875 4.097656 6.90625 3.703125 C 7.125 3.304688 7.234375 2.894531 7.234375 2.46875 C 7.234375 2.039062 7.117188 1.644531 6.890625 1.28125 Z M 11.359375 -1.546875 L 10.828125 -2.390625 C 10.597656 -2.742188 10.285156 -3.007812 9.890625 -3.1875 C 9.503906 -3.375 9.085938 -3.453125 8.640625 -3.421875 C 8.203125 -3.390625 7.785156 -3.25 7.390625 -3 C 6.984375 -2.738281 6.671875 -2.414062 6.453125 -2.03125 C 6.242188 -1.644531 6.140625 -1.238281 6.140625 -0.8125 C 6.140625 -0.382812 6.253906 0.00390625 6.484375 0.359375 L 7.015625 1.203125 C 7.242188 1.566406 7.550781 1.835938 7.9375 2.015625 C 8.320312 2.203125 8.734375 2.285156 9.171875 2.265625 C 9.617188 2.242188 10.046875 2.101562 10.453125 1.84375 C 10.847656 1.59375 11.148438 1.269531 11.359375 0.875 C 11.578125 0.476562 11.6875 0.0664062 11.6875 -0.359375 C 11.695312 -0.785156 11.585938 -1.179688 11.359375 -1.546875 Z M 11.359375 -1.546875 "/></g></g></g><g fill="#000000" fill-opacity="1"><g transform="translate(110.217895, 245.398299)"><g/></g></g><g fill="#000000" fill-opacity="1"><g transform="translate(116.136595, 252.257893)"><g><path d="M 1.21875 0.296875 C 1.175781 -0.503906 1.429688 -1.191406 1.984375 -1.765625 C 2.015625 -1.796875 2.046875 -1.796875 2.078125 -1.765625 L 2.34375 -1.515625 C 2.351562 -1.503906 2.351562 -1.488281 2.34375 -1.46875 C 2.351562 -1.445312 2.34375 -1.429688 2.3125 -1.421875 C 2.257812 -1.398438 2.148438 -1.316406 1.984375 -1.171875 C 1.828125 -1.035156 1.679688 -0.84375 1.546875 -0.59375 C 1.410156 -0.351562 1.351562 -0.0546875 1.375 0.296875 C 1.363281 0.285156 1.363281 0.285156 1.375 0.296875 L 1.359375 0.3125 C 1.410156 0.96875 1.675781 1.523438 2.15625 1.984375 C 2.175781 2.015625 2.203125 2.039062 2.234375 2.0625 C 2.546875 2.320312 2.898438 2.484375 3.296875 2.546875 C 3.703125 2.617188 4.109375 2.582031 4.515625 2.4375 C 4.921875 2.289062 5.285156 2.054688 5.609375 1.734375 L 10.8125 -3.65625 C 10.894531 -3.75 10.890625 -3.84375 10.796875 -3.9375 C 10.773438 -3.957031 10.78125 -3.984375 10.8125 -4.015625 C 10.84375 -4.035156 10.867188 -4.035156 10.890625 -4.015625 L 11.0625 -3.84375 L 11.28125 -3.640625 L 11.453125 -3.46875 C 11.484375 -3.4375 11.484375 -3.410156 11.453125 -3.390625 C 11.421875 -3.359375 11.390625 -3.359375 11.359375 -3.390625 C 11.273438 -3.472656 11.191406 -3.46875 11.109375 -3.375 L 5.875 2.046875 C 5.875 2.046875 5.867188 2.050781 5.859375 2.0625 C 5.523438 2.40625 5.132812 2.632812 4.6875 2.75 C 4.25 2.863281 3.804688 2.867188 3.359375 2.765625 C 2.910156 2.671875 2.507812 2.472656 2.15625 2.171875 C 2.15625 2.171875 2.148438 2.164062 2.140625 2.15625 C 2.109375 2.132812 2.082031 2.109375 2.0625 2.078125 C 1.5625 1.597656 1.285156 1.007812 1.234375 0.3125 C 1.234375 0.3125 1.234375 0.304688 1.234375 0.296875 Z M 1.21875 0.296875 "/></g></g></g><g fill="#000000" fill-opacity="1"><g transform="translate(124.490404, 259.956809)"><g><path d="M 6.734375 -7.875 C 6.703125 -7.894531 6.695312 -7.921875 6.71875 -7.953125 C 6.75 -7.984375 6.78125 -7.988281 6.8125 -7.96875 L 7.015625 -7.8125 L 7.25 -7.640625 L 7.453125 -7.5 C 7.484375 -7.476562 7.484375 -7.453125 7.453125 -7.421875 C 7.429688 -7.390625 7.40625 -7.382812 7.375 -7.40625 C 7.28125 -7.476562 7.203125 -7.46875 7.140625 -7.375 L 3 -1.71875 C 2.6875 -1.28125 2.503906 -0.800781 2.453125 -0.28125 C 2.398438 0.226562 2.472656 0.722656 2.671875 1.203125 C 2.878906 1.691406 3.203125 2.097656 3.640625 2.421875 C 4.023438 2.703125 4.453125 2.875 4.921875 2.9375 C 5.390625 3 5.847656 2.957031 6.296875 2.8125 C 6.742188 2.675781 7.132812 2.441406 7.46875 2.109375 C 7.476562 2.109375 7.484375 2.109375 7.484375 2.109375 C 7.515625 2.078125 7.539062 2.046875 7.5625 2.015625 C 7.5625 2.015625 7.566406 2.007812 7.578125 2 C 7.609375 1.96875 7.640625 1.929688 7.671875 1.890625 C 7.710938 1.835938 7.742188 1.796875 7.765625 1.765625 L 11.890625 -3.875 C 11.960938 -3.976562 11.945312 -4.066406 11.84375 -4.140625 C 11.8125 -4.160156 11.804688 -4.1875 11.828125 -4.21875 C 11.859375 -4.25 11.890625 -4.253906 11.921875 -4.234375 L 12.125 -4.078125 L 12.3125 -3.953125 C 12.351562 -3.921875 12.359375 -3.890625 12.328125 -3.859375 C 12.304688 -3.828125 12.273438 -3.828125 12.234375 -3.859375 C 12.140625 -3.921875 12.054688 -3.898438 11.984375 -3.796875 L 7.859375 1.84375 C 7.828125 1.882812 7.796875 1.925781 7.765625 1.96875 C 7.734375 2.007812 7.695312 2.046875 7.65625 2.078125 C 7.625 2.117188 7.597656 2.160156 7.578125 2.203125 C 7.566406 2.191406 7.5625 2.1875 7.5625 2.1875 C 7.195312 2.582031 6.765625 2.851562 6.265625 3 C 5.773438 3.15625 5.273438 3.191406 4.765625 3.109375 C 4.265625 3.035156 3.796875 2.84375 3.359375 2.53125 C 2.878906 2.175781 2.523438 1.738281 2.296875 1.21875 C 2.078125 0.707031 1.992188 0.171875 2.046875 -0.390625 C 2.109375 -0.960938 2.3125 -1.488281 2.65625 -1.96875 L 6.78125 -7.609375 C 6.851562 -7.710938 6.835938 -7.800781 6.734375 -7.875 Z M 6.734375 -7.875 "/></g></g></g><g fill="#000000" fill-opacity="1"><g transform="translate(135.308784, 267.417486)"><g><path d="M 6.640625 3.546875 C 6.617188 3.585938 6.59375 3.597656 6.5625 3.578125 L 0.75 0.484375 C 0.71875 0.460938 0.710938 0.429688 0.734375 0.390625 C 0.753906 0.347656 0.78125 0.335938 0.8125 0.359375 C 0.925781 0.410156 1.015625 0.382812 1.078125 0.28125 L 5.71875 -8.453125 C 5.78125 -8.554688 5.753906 -8.632812 5.640625 -8.6875 C 5.609375 -8.707031 5.601562 -8.738281 5.625 -8.78125 C 5.644531 -8.8125 5.671875 -8.816406 5.703125 -8.796875 L 6.40625 -8.421875 C 6.4375 -8.410156 6.441406 -8.390625 6.421875 -8.359375 C 6.398438 -8.316406 6.375 -8.300781 6.34375 -8.3125 C 6.226562 -8.375 6.140625 -8.351562 6.078125 -8.25 L 1.34375 0.640625 C 2.082031 1.035156 2.722656 1.367188 3.265625 1.640625 C 3.816406 1.921875 4.300781 2.148438 4.71875 2.328125 C 5.144531 2.503906 5.53125 2.632812 5.875 2.71875 C 6.21875 2.8125 6.554688 2.863281 6.890625 2.875 C 6.921875 2.875 6.941406 2.882812 6.953125 2.90625 C 6.960938 2.925781 6.957031 2.953125 6.9375 2.984375 Z M 6.640625 3.546875 "/></g></g></g><g fill="#000000" fill-opacity="1"><g transform="translate(146.312915, 272.907328)"><g><path d="M 3.71875 -9.640625 C 3.6875 -9.648438 3.679688 -9.671875 3.703125 -9.703125 C 3.710938 -9.742188 3.734375 -9.757812 3.765625 -9.75 L 4 -9.65625 L 4.3125 -9.546875 L 4.53125 -9.46875 C 4.570312 -9.445312 4.585938 -9.414062 4.578125 -9.375 C 4.554688 -9.34375 4.523438 -9.335938 4.484375 -9.359375 C 4.441406 -9.367188 4.410156 -9.367188 4.390625 -9.359375 C 4.367188 -9.328125 4.359375 -9.285156 4.359375 -9.234375 L 4.8125 -2.296875 L 9.6875 -7.25 C 9.71875 -7.289062 9.726562 -7.332031 9.71875 -7.375 C 9.71875 -7.394531 9.695312 -7.414062 9.65625 -7.4375 C 9.613281 -7.445312 9.601562 -7.46875 9.625 -7.5 C 9.632812 -7.539062 9.660156 -7.554688 9.703125 -7.546875 L 9.921875 -7.46875 C 9.929688 -7.457031 9.972656 -7.4375 10.046875 -7.40625 C 10.117188 -7.382812 10.15625 -7.375 10.15625 -7.375 C 10.195312 -7.363281 10.210938 -7.335938 10.203125 -7.296875 C 10.179688 -7.265625 10.148438 -7.253906 10.109375 -7.265625 C 9.992188 -7.304688 9.875 -7.273438 9.75 -7.171875 L 4.78125 -2.078125 L 3.609375 1.078125 C 3.554688 1.191406 3.59375 1.269531 3.71875 1.3125 C 3.75 1.320312 3.757812 1.347656 3.75 1.390625 C 3.738281 1.429688 3.71875 1.445312 3.6875 1.4375 L 2.9375 1.15625 C 2.90625 1.144531 2.894531 1.117188 2.90625 1.078125 C 2.914062 1.035156 2.9375 1.019531 2.96875 1.03125 C 3.09375 1.082031 3.179688 1.050781 3.234375 0.9375 L 4.40625 -2.21875 L 3.921875 -9.328125 C 3.921875 -9.484375 3.851562 -9.585938 3.71875 -9.640625 Z M 3.71875 -9.640625 "/></g></g></g><g fill="#000000" fill-opacity="1"><g transform="translate(157.459253, 276.67553)"><g/></g></g><g fill="#000000" fill-opacity="1"><g transform="translate(166.317679, 278.666069)"><g><path d="M 6.5625 -5.734375 C 6.945312 -5.898438 7.253906 -6.125 7.484375 -6.40625 C 7.722656 -6.6875 7.863281 -7 7.90625 -7.34375 C 7.945312 -7.71875 7.875 -8.078125 7.6875 -8.421875 C 7.5 -8.765625 7.222656 -9.054688 6.859375 -9.296875 C 6.503906 -9.535156 6.082031 -9.707031 5.59375 -9.8125 C 5.59375 -9.8125 5.585938 -9.8125 5.578125 -9.8125 C 5.546875 -9.8125 5.503906 -9.820312 5.453125 -9.84375 C 5.378906 -9.851562 5.328125 -9.859375 5.296875 -9.859375 C 4.878906 -9.910156 4.476562 -9.894531 4.09375 -9.8125 C 3.570312 -9.707031 3.179688 -9.539062 2.921875 -9.3125 C 2.671875 -9.09375 2.5 -8.847656 2.40625 -8.578125 C 2.320312 -8.316406 2.285156 -8.070312 2.296875 -7.84375 C 2.285156 -7.820312 2.273438 -7.800781 2.265625 -7.78125 C 2.253906 -7.769531 2.238281 -7.765625 2.21875 -7.765625 L 1.890625 -7.8125 C 1.835938 -7.8125 1.8125 -7.832031 1.8125 -7.875 C 1.875 -8.382812 2.109375 -8.828125 2.515625 -9.203125 C 2.921875 -9.578125 3.4375 -9.820312 4.0625 -9.9375 C 4.457031 -10.019531 4.875 -10.035156 5.3125 -9.984375 C 5.34375 -9.984375 5.394531 -9.976562 5.46875 -9.96875 C 5.53125 -9.945312 5.582031 -9.9375 5.625 -9.9375 C 6.175781 -9.832031 6.648438 -9.640625 7.046875 -9.359375 C 7.453125 -9.085938 7.757812 -8.753906 7.96875 -8.359375 C 8.1875 -7.960938 8.269531 -7.550781 8.21875 -7.125 C 8.175781 -6.738281 8.019531 -6.382812 7.75 -6.0625 C 7.488281 -5.738281 7.132812 -5.476562 6.6875 -5.28125 L 4.609375 -4.375 C 3.703125 -3.96875 2.957031 -3.363281 2.375 -2.5625 C 1.789062 -1.769531 1.429688 -0.882812 1.296875 0.09375 L 3.96875 0.40625 C 4.582031 0.476562 5.085938 0.53125 5.484375 0.5625 C 5.878906 0.59375 6.210938 0.597656 6.484375 0.578125 C 6.765625 0.566406 7.015625 0.519531 7.234375 0.4375 C 7.265625 0.4375 7.289062 0.441406 7.3125 0.453125 C 7.320312 0.460938 7.328125 0.484375 7.328125 0.515625 L 7.28125 0.859375 C 7.28125 0.898438 7.257812 0.921875 7.21875 0.921875 L 3.96875 0.53125 C 3.96875 0.53125 3.875 0.519531 3.6875 0.5 C 3.507812 0.476562 3.285156 0.453125 3.015625 0.421875 C 2.742188 0.390625 2.46875 0.359375 2.1875 0.328125 C 1.914062 0.296875 1.6875 0.265625 1.5 0.234375 C 1.320312 0.210938 1.234375 0.203125 1.234375 0.203125 L 0.953125 0.171875 C 0.898438 0.171875 0.875 0.148438 0.875 0.109375 C 0.957031 -0.617188 1.160156 -1.304688 1.484375 -1.953125 C 1.816406 -2.609375 2.242188 -3.1875 2.765625 -3.6875 C 3.296875 -4.1875 3.90625 -4.585938 4.59375 -4.890625 Z M 6.5625 -5.734375 "/></g></g></g><g fill="#000000" fill-opacity="1"><g transform="translate(178.620058, 279.955896)"><g><path d="M 5.90625 -0.109375 C 5.195312 -0.117188 4.53125 -0.253906 3.90625 -0.515625 C 3.289062 -0.785156 2.742188 -1.148438 2.265625 -1.609375 C 1.785156 -2.078125 1.40625 -2.617188 1.125 -3.234375 C 0.84375 -3.847656 0.6875 -4.507812 0.65625 -5.21875 C 0.625 -5.9375 0.71875 -6.613281 0.9375 -7.25 C 1.164062 -7.882812 1.5 -8.453125 1.9375 -8.953125 C 2.375 -9.453125 2.890625 -9.859375 3.484375 -10.171875 C 4.085938 -10.492188 4.742188 -10.691406 5.453125 -10.765625 C 5.460938 -10.765625 5.472656 -10.765625 5.484375 -10.765625 C 5.492188 -10.773438 5.5 -10.78125 5.5 -10.78125 L 5.5625 -10.78125 C 5.570312 -10.78125 5.582031 -10.78125 5.59375 -10.78125 C 5.613281 -10.789062 5.628906 -10.796875 5.640625 -10.796875 L 6.046875 -10.796875 C 6.753906 -10.796875 7.414062 -10.660156 8.03125 -10.390625 C 8.65625 -10.128906 9.207031 -9.765625 9.6875 -9.296875 C 10.175781 -8.828125 10.5625 -8.285156 10.84375 -7.671875 C 11.132812 -7.066406 11.296875 -6.40625 11.328125 -5.6875 C 11.359375 -4.976562 11.257812 -4.300781 11.03125 -3.65625 C 10.800781 -3.019531 10.460938 -2.445312 10.015625 -1.9375 C 9.578125 -1.4375 9.054688 -1.023438 8.453125 -0.703125 C 7.859375 -0.390625 7.207031 -0.203125 6.5 -0.140625 C 6.5 -0.140625 6.492188 -0.140625 6.484375 -0.140625 L 6.234375 -0.125 L 6.09375 -0.125 C 6.082031 -0.125 6.066406 -0.125 6.046875 -0.125 C 6.035156 -0.125 6.023438 -0.125 6.015625 -0.125 L 5.953125 -0.125 C 5.953125 -0.125 5.945312 -0.117188 5.9375 -0.109375 C 5.925781 -0.109375 5.914062 -0.109375 5.90625 -0.109375 Z M 6.03125 -10.6875 L 5.78125 -10.671875 L 5.578125 -10.671875 C 5.523438 -10.660156 5.472656 -10.648438 5.421875 -10.640625 C 5.398438 -10.640625 5.375 -10.632812 5.34375 -10.625 C 5.289062 -10.625 5.238281 -10.617188 5.1875 -10.609375 C 5.15625 -10.609375 5.125 -10.597656 5.09375 -10.578125 C 5.050781 -10.566406 5.007812 -10.5625 4.96875 -10.5625 C 4.914062 -10.5625 4.863281 -10.550781 4.8125 -10.53125 C 4.8125 -10.53125 4.796875 -10.53125 4.765625 -10.53125 C 4.054688 -10.332031 3.425781 -9.988281 2.875 -9.5 C 2.332031 -9.007812 1.90625 -8.421875 1.59375 -7.734375 C 1.28125 -7.046875 1.117188 -6.304688 1.109375 -5.515625 C 1.109375 -5.429688 1.113281 -5.34375 1.125 -5.25 C 1.125 -5.164062 1.125 -5.082031 1.125 -5 C 1.207031 -4.207031 1.429688 -3.476562 1.796875 -2.8125 C 2.171875 -2.144531 2.65625 -1.59375 3.25 -1.15625 C 3.84375 -0.726562 4.503906 -0.453125 5.234375 -0.328125 C 5.253906 -0.316406 5.265625 -0.3125 5.265625 -0.3125 C 5.316406 -0.300781 5.375 -0.289062 5.4375 -0.28125 C 5.46875 -0.269531 5.5 -0.265625 5.53125 -0.265625 C 5.5625 -0.273438 5.601562 -0.273438 5.65625 -0.265625 C 5.695312 -0.253906 5.742188 -0.25 5.796875 -0.25 C 5.828125 -0.25 5.851562 -0.242188 5.875 -0.234375 C 5.925781 -0.242188 5.976562 -0.25 6.03125 -0.25 L 6.234375 -0.234375 L 6.484375 -0.265625 C 7.242188 -0.335938 7.925781 -0.578125 8.53125 -0.984375 C 9.144531 -1.390625 9.648438 -1.910156 10.046875 -2.546875 C 10.453125 -3.179688 10.707031 -3.890625 10.8125 -4.671875 C 10.863281 -5.003906 10.882812 -5.335938 10.875 -5.671875 C 10.84375 -6.367188 10.695312 -7.015625 10.4375 -7.609375 C 10.175781 -8.210938 9.820312 -8.738281 9.375 -9.1875 C 8.9375 -9.644531 8.429688 -10.003906 7.859375 -10.265625 C 7.296875 -10.523438 6.6875 -10.664062 6.03125 -10.6875 Z M 6.03125 -10.6875 "/></g></g></g><g fill="#000000" fill-opacity="1"><g transform="translate(195.223353, 278.720134)"><g><path d="M 4.40625 -7.515625 C 4.71875 -7.796875 4.941406 -8.101562 5.078125 -8.4375 C 5.210938 -8.78125 5.242188 -9.125 5.171875 -9.46875 C 5.097656 -9.832031 4.914062 -10.144531 4.625 -10.40625 C 4.34375 -10.675781 3.988281 -10.867188 3.5625 -10.984375 C 3.132812 -11.109375 2.675781 -11.140625 2.1875 -11.078125 C 2.1875 -11.078125 2.179688 -11.078125 2.171875 -11.078125 C 2.140625 -11.078125 2.097656 -11.078125 2.046875 -11.078125 C 1.972656 -11.054688 1.921875 -11.046875 1.890625 -11.046875 C 1.484375 -10.953125 1.109375 -10.804688 0.765625 -10.609375 C 0.304688 -10.335938 -0.00390625 -10.054688 -0.171875 -9.765625 C -0.335938 -9.472656 -0.421875 -9.1875 -0.421875 -8.90625 C -0.429688 -8.632812 -0.394531 -8.390625 -0.3125 -8.171875 C -0.3125 -8.148438 -0.3125 -8.128906 -0.3125 -8.109375 C -0.320312 -8.085938 -0.335938 -8.078125 -0.359375 -8.078125 L -0.6875 -8 C -0.738281 -7.988281 -0.769531 -8.003906 -0.78125 -8.046875 C -0.882812 -8.546875 -0.800781 -9.035156 -0.53125 -9.515625 C -0.269531 -10.003906 0.132812 -10.398438 0.6875 -10.703125 C 1.050781 -10.921875 1.445312 -11.078125 1.875 -11.171875 C 1.90625 -11.171875 1.957031 -11.179688 2.03125 -11.203125 C 2.09375 -11.203125 2.144531 -11.207031 2.1875 -11.21875 C 2.738281 -11.28125 3.25 -11.242188 3.71875 -11.109375 C 4.195312 -10.984375 4.597656 -10.765625 4.921875 -10.453125 C 5.242188 -10.140625 5.445312 -9.773438 5.53125 -9.359375 C 5.613281 -8.972656 5.582031 -8.585938 5.4375 -8.203125 C 5.289062 -7.816406 5.035156 -7.460938 4.671875 -7.140625 L 2.984375 -5.609375 C 2.242188 -4.929688 1.722656 -4.125 1.421875 -3.1875 C 1.128906 -2.25 1.078125 -1.296875 1.265625 -0.328125 L 3.90625 -0.875 C 4.5 -1 4.988281 -1.109375 5.375 -1.203125 C 5.769531 -1.304688 6.09375 -1.40625 6.34375 -1.5 C 6.601562 -1.601562 6.820312 -1.722656 7 -1.859375 C 7.03125 -1.878906 7.054688 -1.882812 7.078125 -1.875 C 7.085938 -1.863281 7.097656 -1.847656 7.109375 -1.828125 L 7.171875 -1.484375 C 7.179688 -1.441406 7.164062 -1.421875 7.125 -1.421875 L 3.9375 -0.75 C 3.9375 -0.75 3.84375 -0.726562 3.65625 -0.6875 C 3.476562 -0.65625 3.253906 -0.609375 2.984375 -0.546875 C 2.710938 -0.492188 2.441406 -0.4375 2.171875 -0.375 C 1.910156 -0.320312 1.6875 -0.273438 1.5 -0.234375 C 1.320312 -0.203125 1.234375 -0.1875 1.234375 -0.1875 L 0.953125 -0.125 C 0.898438 -0.113281 0.867188 -0.128906 0.859375 -0.171875 C 0.710938 -0.890625 0.691406 -1.609375 0.796875 -2.328125 C 0.898438 -3.046875 1.117188 -3.726562 1.453125 -4.375 C 1.796875 -5.019531 2.25 -5.59375 2.8125 -6.09375 Z M 4.40625 -7.515625 "/></g></g></g><g fill="#000000" fill-opacity="1"><g transform="translate(207.383776, 275.894513)"><g><path d="M 3.5 -1.125 C 3.03125 -0.945312 2.5625 -0.898438 2.09375 -0.984375 C 1.632812 -1.078125 1.222656 -1.273438 0.859375 -1.578125 C 0.503906 -1.890625 0.242188 -2.273438 0.078125 -2.734375 L -1.71875 -7.71875 C -1.894531 -8.1875 -1.9375 -8.648438 -1.84375 -9.109375 C -1.757812 -9.578125 -1.566406 -9.992188 -1.265625 -10.359375 C -0.972656 -10.722656 -0.59375 -10.992188 -0.125 -11.171875 L 0.5 -11.390625 C 0.5625 -11.410156 0.601562 -11.425781 0.625 -11.4375 C 1.03125 -11.582031 1.441406 -11.660156 1.859375 -11.671875 C 2.492188 -11.703125 3.050781 -11.582031 3.53125 -11.3125 C 4.007812 -11.039062 4.332031 -10.660156 4.5 -10.171875 C 4.519531 -10.140625 4.515625 -10.117188 4.484375 -10.109375 L 4.15625 -10 C 4.125 -9.976562 4.101562 -9.972656 4.09375 -9.984375 C 4.082031 -9.992188 4.078125 -10.007812 4.078125 -10.03125 C 4.015625 -10.257812 3.910156 -10.488281 3.765625 -10.71875 C 3.628906 -10.957031 3.40625 -11.15625 3.09375 -11.3125 C 2.789062 -11.46875 2.378906 -11.546875 1.859375 -11.546875 C 1.472656 -11.535156 1.078125 -11.457031 0.671875 -11.3125 C 0.640625 -11.300781 0.597656 -11.285156 0.546875 -11.265625 C 0.546875 -11.265625 0.539062 -11.265625 0.53125 -11.265625 L 0.0625 -11.09375 C -0.34375 -10.945312 -0.675781 -10.703125 -0.9375 -10.359375 C -1.195312 -10.015625 -1.359375 -9.625 -1.421875 -9.1875 C -1.492188 -8.757812 -1.445312 -8.320312 -1.28125 -7.875 L -0.015625 -4.34375 C 0.0859375 -4.738281 0.285156 -5.109375 0.578125 -5.453125 C 0.878906 -5.796875 1.242188 -6.046875 1.671875 -6.203125 L 2.90625 -6.640625 C 3.363281 -6.804688 3.828125 -6.84375 4.296875 -6.75 C 4.765625 -6.664062 5.175781 -6.46875 5.53125 -6.15625 C 5.882812 -5.84375 6.148438 -5.453125 6.328125 -4.984375 C 6.492188 -4.523438 6.535156 -4.0625 6.453125 -3.59375 C 6.367188 -3.132812 6.175781 -2.722656 5.875 -2.359375 C 5.570312 -1.992188 5.191406 -1.726562 4.734375 -1.5625 Z M 1.859375 -6.125 C 1.453125 -5.976562 1.117188 -5.734375 0.859375 -5.390625 C 0.597656 -5.046875 0.429688 -4.65625 0.359375 -4.21875 C 0.296875 -3.789062 0.347656 -3.347656 0.515625 -2.890625 C 0.671875 -2.453125 0.910156 -2.082031 1.234375 -1.78125 C 1.566406 -1.476562 1.941406 -1.28125 2.359375 -1.1875 C 2.785156 -1.09375 3.203125 -1.117188 3.609375 -1.265625 L 4.546875 -1.609375 C 4.953125 -1.753906 5.28125 -1.992188 5.53125 -2.328125 C 5.789062 -2.671875 5.957031 -3.066406 6.03125 -3.515625 C 6.101562 -3.960938 6.0625 -4.398438 5.90625 -4.828125 C 5.738281 -5.285156 5.488281 -5.660156 5.15625 -5.953125 C 4.820312 -6.242188 4.445312 -6.4375 4.03125 -6.53125 C 3.613281 -6.632812 3.203125 -6.613281 2.796875 -6.46875 Z M 1.859375 -6.125 "/></g></g></g><g fill="#ffffff" fill-opacity="1"><g transform="translate(154.790738, 191.431951)"><g><path d="M 4.074219 -1.503906 C 0.382812 -4.820312 -1.460938 -8.964844 -1.460938 -13.9375 C -1.460938 -14.757812 -1.183594 -15.441406 -0.628906 -15.996094 C -0.0742188 -16.550781 0.609375 -16.828125 1.429688 -16.828125 L 3.265625 -16.828125 C 3.734375 -16.828125 4.167969 -16.726562 4.574219 -16.527344 C 5.125 -16.25 5.539062 -15.835938 5.816406 -15.285156 C 6.175781 -14.5625 6.222656 -13.800781 5.953125 -12.996094 C 5.929688 -12.921875 5.878906 -12.417969 5.804688 -11.492188 C 5.738281 -10.640625 5.851562 -9.636719 6.144531 -8.480469 C 6.378906 -7.554688 6.984375 -6.648438 7.960938 -5.769531 L 12.902344 -1.324219 L 6.222656 -1.324219 L 6.222656 -6.425781 L 7.832031 -6.425781 L 8.605469 -4.878906 L 6.324219 -3.738281 L 8.003906 -5.65625 C 10.109375 -3.8125 12.5625 -2.890625 15.367188 -2.890625 L 15.980469 -2.890625 L 15.980469 -0.339844 L 15.816406 -2.886719 C 17.460938 -2.988281 18.960938 -3.523438 20.308594 -4.488281 C 21.714844 -5.492188 22.832031 -6.816406 23.664062 -8.460938 C 24.5 -10.117188 24.921875 -11.941406 24.921875 -13.9375 L 24.921875 -53.238281 C 24.921875 -52.820312 25.105469 -52.433594 25.476562 -52.089844 C 25.796875 -51.792969 26.121094 -51.640625 26.449219 -51.640625 C 25.542969 -51.640625 24.8125 -51.988281 24.253906 -52.683594 C 23.835938 -53.207031 23.628906 -53.824219 23.628906 -54.53125 C 23.628906 -55.242188 23.835938 -55.859375 24.253906 -56.378906 C 24.8125 -57.074219 25.542969 -57.421875 26.449219 -57.421875 L 30.597656 -57.421875 C 31.414062 -57.421875 32.101562 -57.144531 32.65625 -56.589844 C 33.210938 -56.035156 33.488281 -55.347656 33.488281 -54.53125 C 33.488281 -53.714844 33.210938 -53.027344 32.65625 -52.472656 C 32.101562 -51.917969 31.414062 -51.640625 30.597656 -51.640625 C 30.984375 -51.640625 31.347656 -51.8125 31.6875 -52.152344 C 32.027344 -52.488281 32.195312 -52.851562 32.195312 -53.238281 L 32.195312 -13.597656 C 32.140625 -10.617188 31.375 -7.898438 29.890625 -5.445312 C 28.433594 -3.039062 26.527344 -1.09375 24.171875 0.390625 C 21.78125 1.894531 19.117188 2.726562 16.1875 2.886719 L 16.117188 2.890625 L 15.367188 2.890625 C 11.097656 2.890625 7.359375 1.476562 4.160156 -1.351562 L 3.296875 -2.113281 L 3.296875 -3.332031 L 5.847656 -3.332031 L 4.042969 -1.527344 L 3.976562 -1.597656 L 5.78125 -3.398438 Z M 7.535156 -5.25 L 8.398438 -4.386719 L 8.398438 -3.265625 L 5.847656 -3.265625 L 7.535156 -5.175781 C 9.773438 -3.199219 12.382812 -2.210938 15.367188 -2.210938 L 16.046875 -2.210938 L 16.046875 0.339844 L 15.90625 -2.207031 C 17.960938 -2.316406 19.808594 -2.890625 21.453125 -3.925781 C 23.128906 -4.980469 24.488281 -6.367188 25.527344 -8.085938 C 26.535156 -9.753906 27.058594 -11.59375 27.097656 -13.597656 L 27.097656 -53.238281 C 27.097656 -54.261719 27.425781 -55.101562 28.082031 -55.757812 C 28.738281 -56.414062 29.578125 -56.742188 30.597656 -56.742188 C 30.007812 -56.742188 29.492188 -56.519531 29.050781 -56.082031 C 28.609375 -55.640625 28.386719 -55.121094 28.386719 -54.53125 C 28.386719 -53.941406 28.609375 -53.425781 29.050781 -52.984375 C 29.492188 -52.542969 30.007812 -52.320312 30.597656 -52.320312 L 26.449219 -52.320312 C 27.175781 -52.320312 27.773438 -52.613281 28.238281 -53.195312 C 28.566406 -53.601562 28.726562 -54.050781 28.726562 -54.53125 C 28.726562 -55.015625 28.566406 -55.460938 28.238281 -55.871094 C 27.773438 -56.453125 27.175781 -56.742188 26.449219 -56.742188 C 27.460938 -56.742188 28.296875 -56.433594 28.953125 -55.816406 C 29.664062 -55.15625 30.019531 -54.296875 30.019531 -53.238281 L 30.019531 -13.9375 C 30.019531 -11.132812 29.417969 -8.539062 28.214844 -6.160156 C 27.007812 -3.769531 25.359375 -1.828125 23.273438 -0.339844 C 21.132812 1.191406 18.757812 2.039062 16.140625 2.203125 L 16.058594 2.210938 L 15.367188 2.210938 C 11.28125 2.210938 7.707031 0.867188 4.640625 -1.824219 L 4.265625 -2.152344 L 3.976562 -2.734375 L 6.253906 -3.875 L 6.253906 -1.324219 L 6.222656 -1.324219 C 5.882812 -1.324219 5.558594 -1.390625 5.246094 -1.519531 C 4.933594 -1.648438 4.65625 -1.832031 4.417969 -2.074219 C 4.179688 -2.3125 3.996094 -2.585938 3.867188 -2.898438 C 3.734375 -3.210938 3.671875 -3.539062 3.671875 -3.875 C 3.671875 -4.214844 3.734375 -4.539062 3.867188 -4.851562 C 3.996094 -5.164062 4.179688 -5.441406 4.417969 -5.679688 C 4.65625 -5.917969 4.933594 -6.101562 5.246094 -6.230469 C 5.558594 -6.359375 5.882812 -6.425781 6.222656 -6.425781 L 6.253906 -6.425781 L 6.253906 -3.875 L 4.550781 -1.980469 C 2.804688 -3.550781 1.691406 -5.296875 1.199219 -7.226562 C 0.769531 -8.925781 0.609375 -10.484375 0.722656 -11.898438 C 0.828125 -13.238281 0.960938 -14.140625 1.117188 -14.609375 C 0.9375 -14.078125 0.984375 -13.542969 1.253906 -13.003906 C 1.484375 -12.542969 1.832031 -12.195312 2.292969 -11.964844 C 2.605469 -11.808594 2.929688 -11.730469 3.265625 -11.730469 L 1.429688 -11.730469 C 2.019531 -11.730469 2.535156 -11.949219 2.976562 -12.390625 C 3.417969 -12.832031 3.636719 -13.347656 3.636719 -13.9375 C 3.636719 -10.480469 4.917969 -7.601562 7.484375 -5.296875 Z M 7.535156 -5.25 "/></g></g></g><g fill="#000000" fill-opacity="1"><g transform="translate(154.790738, 191.431951)"><g><path d="M 5.78125 -3.40625 C 2.65625 -6.207031 1.09375 -9.71875 1.09375 -13.9375 C 1.09375 -14.164062 1.203125 -14.28125 1.421875 -14.28125 L 3.265625 -14.28125 C 3.398438 -14.28125 3.488281 -14.234375 3.53125 -14.140625 C 3.582031 -14.054688 3.582031 -13.941406 3.53125 -13.796875 C 3.445312 -13.523438 3.359375 -12.820312 3.265625 -11.6875 C 3.171875 -10.5625 3.304688 -9.285156 3.671875 -7.859375 C 4.035156 -6.429688 4.894531 -5.101562 6.25 -3.875 C 6.207031 -3.875 6.207031 -3.875 6.25 -3.875 L 6.328125 -3.734375 C 8.910156 -1.472656 11.925781 -0.34375 15.375 -0.34375 C 15.59375 -0.34375 15.796875 -0.34375 15.984375 -0.34375 C 18.109375 -0.476562 20.039062 -1.164062 21.78125 -2.40625 C 23.53125 -3.65625 24.914062 -5.289062 25.9375 -7.3125 C 26.957031 -9.332031 27.46875 -11.539062 27.46875 -13.9375 L 27.46875 -53.25 C 27.46875 -53.882812 27.128906 -54.203125 26.453125 -54.203125 C 26.273438 -54.203125 26.1875 -54.3125 26.1875 -54.53125 C 26.1875 -54.757812 26.273438 -54.875 26.453125 -54.875 L 30.59375 -54.875 C 30.820312 -54.875 30.9375 -54.757812 30.9375 -54.53125 C 30.9375 -54.3125 30.820312 -54.203125 30.59375 -54.203125 C 29.957031 -54.203125 29.640625 -53.882812 29.640625 -53.25 L 29.640625 -13.671875 C 29.640625 -13.671875 29.640625 -13.644531 29.640625 -13.59375 C 29.597656 -11.101562 28.953125 -8.828125 27.703125 -6.765625 C 26.460938 -4.703125 24.832031 -3.035156 22.8125 -1.765625 C 20.789062 -0.492188 18.535156 0.207031 16.046875 0.34375 C 16.046875 0.34375 16.023438 0.34375 15.984375 0.34375 C 15.796875 0.34375 15.59375 0.34375 15.375 0.34375 C 11.738281 0.34375 8.5625 -0.859375 5.84375 -3.265625 C 5.84375 -3.265625 5.84375 -3.285156 5.84375 -3.328125 Z M 5.78125 -3.40625 "/></g></g></g><g fill="#ffffff" fill-opacity="1"><g transform="translate(168.863636, 232.644316)"><g><path d="M 4.691406 -2.890625 C 4.304688 -2.890625 3.941406 -2.71875 3.601562 -2.382812 C 3.261719 -2.042969 3.09375 -1.679688 3.09375 -1.292969 L 3.09375 -53.238281 C 3.09375 -52.851562 3.261719 -52.488281 3.601562 -52.152344 C 3.941406 -51.8125 4.304688 -51.640625 4.691406 -51.640625 C 3.875 -51.640625 3.1875 -51.917969 2.632812 -52.472656 C 2.078125 -53.027344 1.800781 -53.714844 1.800781 -54.53125 C 1.800781 -55.347656 2.078125 -56.035156 2.632812 -56.589844 C 3.1875 -57.144531 3.875 -57.421875 4.691406 -57.421875 L 8.839844 -57.421875 C 9.746094 -57.421875 10.480469 -57.074219 11.035156 -56.378906 C 11.453125 -55.859375 11.660156 -55.242188 11.660156 -54.53125 C 11.660156 -53.824219 11.453125 -53.207031 11.035156 -52.683594 C 10.480469 -51.988281 9.746094 -51.640625 8.839844 -51.640625 C 9.167969 -51.640625 9.496094 -51.792969 9.8125 -52.089844 C 10.183594 -52.433594 10.371094 -52.820312 10.371094 -53.238281 L 10.371094 -24.613281 C 10.371094 -24.523438 10.390625 -24.457031 10.433594 -24.414062 C 10.507812 -24.34375 10.609375 -24.308594 10.742188 -24.308594 C 10.847656 -24.308594 10.910156 -24.316406 10.933594 -24.328125 L 10.929688 -24.328125 C 10.949219 -24.347656 10.976562 -24.382812 11.003906 -24.429688 L 29.535156 -54.816406 L 29.5625 -54.859375 C 29.476562 -54.730469 29.414062 -54.5625 29.367188 -54.355469 C 29.230469 -53.746094 29.34375 -53.175781 29.699219 -52.640625 L 29.613281 -52.773438 L 29.539062 -52.914062 C 29.808594 -52.382812 30.210938 -52.007812 30.753906 -51.789062 C 31.003906 -51.691406 31.246094 -51.640625 31.480469 -51.640625 C 30.664062 -51.640625 29.976562 -51.917969 29.421875 -52.472656 C 28.867188 -53.027344 28.589844 -53.714844 28.589844 -54.53125 C 28.589844 -55.347656 28.867188 -56.035156 29.421875 -56.589844 C 29.976562 -57.144531 30.664062 -57.421875 31.480469 -57.421875 L 34.066406 -57.421875 C 34.972656 -57.421875 35.703125 -57.074219 36.261719 -56.378906 C 36.679688 -55.859375 36.886719 -55.242188 36.886719 -54.53125 C 36.886719 -53.824219 36.679688 -53.207031 36.261719 -52.683594 C 35.703125 -51.988281 34.972656 -51.640625 34.066406 -51.640625 C 34.167969 -51.640625 34.269531 -51.671875 34.363281 -51.726562 C 34.386719 -51.738281 34.402344 -51.75 34.410156 -51.757812 C 34.386719 -51.738281 34.363281 -51.703125 34.332031 -51.660156 L 32.230469 -53.105469 L 34.40625 -51.777344 L 21.285156 -30.222656 L 19.105469 -31.550781 L 21.316406 -32.820312 L 37.570312 -4.535156 C 37.875 -3.976562 38.226562 -3.574219 38.621094 -3.320312 C 39.011719 -3.066406 39.5 -2.921875 40.082031 -2.882812 L 39.914062 -0.339844 L 39.914062 -2.890625 C 40.730469 -2.890625 41.417969 -2.613281 41.972656 -2.058594 C 42.527344 -1.503906 42.804688 -0.816406 42.804688 0 C 42.804688 0.816406 42.527344 1.503906 41.972656 2.058594 C 41.417969 2.613281 40.730469 2.890625 39.914062 2.890625 L 39.84375 2.890625 L 39.773438 2.886719 C 37.707031 2.769531 35.8125 2.179688 34.085938 1.117188 C 32.363281 0.0546875 30.988281 -1.363281 29.957031 -3.140625 L 15.476562 -27.882812 L 17.679688 -29.167969 L 19.859375 -27.847656 L 15.96875 -21.429688 L 15.949219 -21.402344 C 15.355469 -20.476562 14.617188 -19.765625 13.734375 -19.273438 C 12.835938 -18.777344 11.839844 -18.527344 10.742188 -18.527344 C 8.652344 -18.527344 6.992188 -19.378906 5.757812 -21.074219 L 7.820312 -22.574219 L 10.371094 -22.574219 L 10.371094 -1.292969 C 10.371094 -1.714844 10.183594 -2.097656 9.8125 -2.441406 C 9.496094 -2.742188 9.167969 -2.890625 8.839844 -2.890625 C 9.746094 -2.890625 10.480469 -2.542969 11.035156 -1.847656 C 11.453125 -1.324219 11.660156 -0.710938 11.660156 0 C 11.660156 0.710938 11.453125 1.324219 11.035156 1.847656 C 10.480469 2.542969 9.746094 2.890625 8.839844 2.890625 L 4.691406 2.890625 C 3.875 2.890625 3.1875 2.613281 2.632812 2.058594 C 2.078125 1.503906 1.800781 0.816406 1.800781 0 C 1.800781 -0.816406 2.078125 -1.503906 2.632812 -2.058594 C 3.1875 -2.613281 3.875 -2.890625 4.691406 -2.890625 Z M 4.691406 2.210938 C 5.28125 2.210938 5.796875 1.988281 6.238281 1.546875 C 6.679688 1.105469 6.902344 0.589844 6.902344 0 C 6.902344 -0.589844 6.679688 -1.105469 6.238281 -1.546875 C 5.796875 -1.988281 5.28125 -2.210938 4.691406 -2.210938 L 8.839844 -2.210938 C 8.113281 -2.210938 7.515625 -1.917969 7.050781 -1.339844 C 6.726562 -0.929688 6.5625 -0.484375 6.5625 0 C 6.5625 0.484375 6.726562 0.929688 7.050781 1.339844 C 7.515625 1.917969 8.113281 2.210938 8.839844 2.210938 C 7.828125 2.210938 6.996094 1.902344 6.335938 1.285156 C 5.625 0.625 5.269531 -0.234375 5.269531 -1.292969 L 5.269531 -30.417969 L 9.882812 -24.074219 C 10.003906 -23.902344 10.128906 -23.785156 10.253906 -23.722656 C 10.378906 -23.660156 10.539062 -23.628906 10.742188 -23.628906 C 10.960938 -23.628906 11.128906 -23.664062 11.253906 -23.734375 C 11.390625 -23.808594 11.523438 -23.949219 11.65625 -24.152344 L 13.804688 -22.777344 L 11.621094 -24.101562 L 17.71875 -34.152344 L 34.367188 -5.699219 C 34.96875 -4.664062 35.765625 -3.839844 36.765625 -3.222656 C 37.757812 -2.613281 38.851562 -2.273438 40.054688 -2.207031 L 39.914062 0.339844 L 39.914062 -2.210938 C 39.320312 -2.210938 38.804688 -1.988281 38.363281 -1.546875 C 37.921875 -1.105469 37.703125 -0.589844 37.703125 0 C 37.703125 0.589844 37.921875 1.105469 38.363281 1.546875 C 38.804688 1.988281 39.320312 2.210938 39.914062 2.210938 L 39.828125 2.210938 L 39.742188 2.203125 C 38.285156 2.105469 36.996094 1.695312 35.867188 0.972656 C 34.746094 0.253906 33.835938 -0.734375 33.144531 -1.992188 L 16.144531 -31.585938 L 30.089844 -54.492188 L 30.128906 -54.546875 C 30.589844 -55.21875 31.132812 -55.742188 31.761719 -56.113281 C 32.46875 -56.53125 33.238281 -56.742188 34.066406 -56.742188 C 33.339844 -56.742188 32.742188 -56.453125 32.277344 -55.871094 C 31.949219 -55.460938 31.789062 -55.015625 31.789062 -54.53125 C 31.789062 -54.050781 31.949219 -53.601562 32.277344 -53.195312 C 32.742188 -52.613281 33.339844 -52.320312 34.066406 -52.320312 L 31.480469 -52.320312 C 32.074219 -52.320312 32.589844 -52.542969 33.03125 -52.984375 C 33.472656 -53.425781 33.691406 -53.941406 33.691406 -54.53125 C 33.691406 -55.121094 33.472656 -55.640625 33.03125 -56.082031 C 32.589844 -56.519531 32.074219 -56.742188 31.480469 -56.742188 C 31.898438 -56.742188 32.289062 -56.667969 32.648438 -56.527344 C 33.304688 -56.261719 33.789062 -55.820312 34.101562 -55.195312 L 31.820312 -54.054688 L 33.945312 -55.46875 C 34.390625 -54.800781 34.523438 -54.058594 34.34375 -53.246094 C 34.253906 -52.835938 34.074219 -52.429688 33.808594 -52.03125 L 31.6875 -53.445312 L 33.863281 -52.117188 L 15.378906 -21.804688 C 14.871094 -20.960938 14.214844 -20.316406 13.410156 -19.871094 C 12.617188 -19.429688 11.726562 -19.207031 10.742188 -19.207031 C 9.242188 -19.207031 7.964844 -19.71875 6.902344 -20.734375 C 5.8125 -21.78125 5.269531 -23.074219 5.269531 -24.613281 L 5.269531 -53.238281 C 5.269531 -54.296875 5.625 -55.15625 6.335938 -55.816406 C 6.996094 -56.433594 7.828125 -56.742188 8.839844 -56.742188 C 8.113281 -56.742188 7.515625 -56.453125 7.050781 -55.871094 C 6.726562 -55.460938 6.5625 -55.015625 6.5625 -54.53125 C 6.5625 -54.050781 6.726562 -53.601562 7.050781 -53.195312 C 7.515625 -52.613281 8.113281 -52.320312 8.839844 -52.320312 L 4.691406 -52.320312 C 5.28125 -52.320312 5.796875 -52.542969 6.238281 -52.984375 C 6.679688 -53.425781 6.902344 -53.941406 6.902344 -54.53125 C 6.902344 -55.121094 6.679688 -55.640625 6.238281 -56.082031 C 5.796875 -56.519531 5.28125 -56.742188 4.691406 -56.742188 C 5.714844 -56.742188 6.550781 -56.414062 7.207031 -55.757812 C 7.867188 -55.101562 8.195312 -54.261719 8.195312 -53.238281 L 8.195312 -1.292969 C 8.195312 -0.269531 7.867188 0.570312 7.207031 1.226562 C 6.550781 1.882812 5.714844 2.210938 4.691406 2.210938 Z M 4.691406 2.210938 "/></g></g></g><g fill="#000000" fill-opacity="1"><g transform="translate(168.863636, 232.644316)"><g><path d="M 4.6875 -0.34375 C 5.320312 -0.34375 5.640625 -0.660156 5.640625 -1.296875 L 5.640625 -53.25 C 5.640625 -53.882812 5.320312 -54.203125 4.6875 -54.203125 C 4.46875 -54.203125 4.359375 -54.3125 4.359375 -54.53125 C 4.359375 -54.757812 4.46875 -54.875 4.6875 -54.875 L 8.84375 -54.875 C 9.019531 -54.875 9.109375 -54.757812 9.109375 -54.53125 C 9.109375 -54.3125 9.019531 -54.203125 8.84375 -54.203125 C 8.15625 -54.203125 7.8125 -53.882812 7.8125 -53.25 L 7.8125 -24.609375 C 7.8125 -23.796875 8.09375 -23.117188 8.65625 -22.578125 C 9.226562 -22.035156 9.925781 -21.765625 10.75 -21.765625 C 11.832031 -21.765625 12.644531 -22.21875 13.1875 -23.125 L 31.6875 -53.453125 C 31.863281 -53.722656 31.910156 -53.925781 31.828125 -54.0625 C 31.773438 -54.15625 31.660156 -54.203125 31.484375 -54.203125 C 31.253906 -54.203125 31.140625 -54.3125 31.140625 -54.53125 C 31.140625 -54.757812 31.253906 -54.875 31.484375 -54.875 L 34.0625 -54.875 C 34.25 -54.875 34.34375 -54.757812 34.34375 -54.53125 C 34.34375 -54.3125 34.25 -54.203125 34.0625 -54.203125 C 33.34375 -54.203125 32.734375 -53.835938 32.234375 -53.109375 L 19.109375 -31.546875 L 35.359375 -3.265625 C 36.359375 -1.453125 37.878906 -0.476562 39.921875 -0.34375 C 40.140625 -0.34375 40.25 -0.226562 40.25 0 C 40.25 0.226562 40.140625 0.34375 39.921875 0.34375 C 38.285156 0.25 36.785156 -0.210938 35.421875 -1.046875 C 34.066406 -1.890625 32.976562 -3.015625 32.15625 -4.421875 L 17.6875 -29.171875 L 13.796875 -22.78125 C 13.078125 -21.644531 12.0625 -21.078125 10.75 -21.078125 C 9.519531 -21.078125 8.539062 -21.578125 7.8125 -22.578125 L 7.8125 -1.296875 C 7.8125 -0.660156 8.15625 -0.34375 8.84375 -0.34375 C 9.019531 -0.34375 9.109375 -0.226562 9.109375 0 C 9.109375 0.226562 9.019531 0.34375 8.84375 0.34375 L 4.6875 0.34375 C 4.46875 0.34375 4.359375 0.226562 4.359375 0 C 4.359375 -0.226562 4.46875 -0.34375 4.6875 -0.34375 Z M 4.6875 -0.34375 "/></g></g></g></svg>