<svg xmlns="http://www.w3.org/2000/svg" xmlns:xlink="http://www.w3.org/1999/xlink" width="500" zoomAndPan="magnify" viewBox="0 0 375 374.999991" height="500" preserveAspectRatio="xMidYMid meet" version="1.0"><defs><g/><clipPath id="717144308d"><rect x="0" width="292" y="0" height="295"/></clipPath></defs><g transform="matrix(1, 0, 0, 1, 32, 43)"><g clip-path="url(#717144308d)"><g fill="#000000" fill-opacity="1"><g transform="translate(117.395816, 20.548117)"><g><path d="M 1.5 -1.234375 C 0.476562 -1.898438 -0.128906 -2.835938 -0.328125 -4.046875 C -0.335938 -4.109375 -0.304688 -4.144531 -0.234375 -4.15625 L 0.28125 -4.25 C 0.3125 -4.25 0.34375 -4.238281 0.375 -4.21875 C 0.382812 -4.195312 0.390625 -4.164062 0.390625 -4.125 C 0.367188 -4.039062 0.367188 -3.832031 0.390625 -3.5 C 0.421875 -3.175781 0.519531 -2.816406 0.6875 -2.421875 C 0.851562 -2.023438 1.164062 -1.679688 1.625 -1.390625 C 1.613281 -1.390625 1.613281 -1.390625 1.625 -1.390625 L 1.65625 -1.375 C 2.5 -0.832031 3.410156 -0.640625 4.390625 -0.796875 C 4.453125 -0.804688 4.507812 -0.816406 4.5625 -0.828125 C 5.164062 -0.960938 5.6875 -1.25 6.125 -1.6875 C 6.570312 -2.125 6.898438 -2.65625 7.109375 -3.28125 C 7.316406 -3.90625 7.363281 -4.5625 7.25 -5.25 L 5.46875 -16.53125 C 5.4375 -16.707031 5.320312 -16.78125 5.125 -16.75 C 5.070312 -16.738281 5.039062 -16.765625 5.03125 -16.828125 C 5.019531 -16.890625 5.039062 -16.925781 5.09375 -16.9375 L 5.46875 -17 L 5.90625 -17.078125 L 6.28125 -17.125 C 6.34375 -17.132812 6.378906 -17.109375 6.390625 -17.046875 C 6.398438 -16.984375 6.375 -16.945312 6.3125 -16.9375 C 6.125 -16.90625 6.046875 -16.800781 6.078125 -16.625 L 7.875 -5.265625 C 7.875 -5.265625 7.875 -5.257812 7.875 -5.25 C 7.976562 -4.53125 7.894531 -3.84375 7.625 -3.1875 C 7.363281 -2.539062 6.972656 -1.988281 6.453125 -1.53125 C 5.929688 -1.082031 5.316406 -0.785156 4.609375 -0.640625 C 4.609375 -0.640625 4.601562 -0.640625 4.59375 -0.640625 C 4.539062 -0.628906 4.484375 -0.617188 4.421875 -0.609375 C 3.390625 -0.441406 2.425781 -0.640625 1.53125 -1.203125 C 1.53125 -1.203125 1.53125 -1.207031 1.53125 -1.21875 Z M 1.5 -1.234375 "/></g></g></g><g fill="#000000" fill-opacity="1"><g transform="translate(133.679739, 18.152987)"><g><path d="M 2.921875 -2.46875 C 2.921875 -2.46875 2.914062 -2.472656 2.90625 -2.484375 C 2.90625 -2.503906 2.898438 -2.515625 2.890625 -2.515625 C 2.148438 -3.328125 1.609375 -4.21875 1.265625 -5.1875 C 0.921875 -6.15625 0.757812 -7.144531 0.78125 -8.15625 C 0.8125 -9.164062 1.023438 -10.144531 1.421875 -11.09375 C 1.816406 -12.039062 2.40625 -12.90625 3.1875 -13.6875 C 3.945312 -14.476562 4.804688 -15.066406 5.765625 -15.453125 C 6.722656 -15.847656 7.707031 -16.066406 8.71875 -16.109375 C 9.726562 -16.148438 10.71875 -15.992188 11.6875 -15.640625 C 12.65625 -15.296875 13.539062 -14.765625 14.34375 -14.046875 C 14.351562 -14.035156 14.363281 -14.023438 14.375 -14.015625 C 14.382812 -14.015625 14.394531 -14.015625 14.40625 -14.015625 L 14.453125 -13.96875 C 14.460938 -13.945312 14.476562 -13.925781 14.5 -13.90625 C 14.519531 -13.894531 14.539062 -13.878906 14.5625 -13.859375 C 14.5625 -13.859375 14.566406 -13.851562 14.578125 -13.84375 L 15 -13.421875 C 15.71875 -12.617188 16.253906 -11.726562 16.609375 -10.75 C 16.960938 -9.78125 17.125 -8.785156 17.09375 -7.765625 C 17.070312 -6.742188 16.863281 -5.75 16.46875 -4.78125 C 16.082031 -3.820312 15.503906 -2.957031 14.734375 -2.1875 C 13.941406 -1.394531 13.046875 -0.796875 12.046875 -0.390625 C 11.046875 0.00390625 10.019531 0.207031 8.96875 0.21875 C 7.988281 0.21875 7.03125 0.046875 6.09375 -0.296875 C 5.15625 -0.648438 4.296875 -1.179688 3.515625 -1.890625 L 3.09375 -2.296875 C 3.082031 -2.296875 3.070312 -2.300781 3.0625 -2.3125 C 3.050781 -2.320312 3.035156 -2.335938 3.015625 -2.359375 C 2.992188 -2.378906 2.976562 -2.398438 2.96875 -2.421875 Z M 14.234375 -2.703125 C 14.972656 -3.429688 15.546875 -4.253906 15.953125 -5.171875 C 16.367188 -6.097656 16.601562 -7.046875 16.65625 -8.015625 C 16.707031 -8.984375 16.582031 -9.914062 16.28125 -10.8125 C 15.988281 -11.71875 15.515625 -12.539062 14.859375 -13.28125 L 14.328125 -13.8125 C 14.296875 -13.84375 14.265625 -13.867188 14.234375 -13.890625 C 14.210938 -13.910156 14.191406 -13.929688 14.171875 -13.953125 C 14.160156 -13.960938 14.140625 -13.984375 14.109375 -14.015625 C 14.054688 -14.054688 13.988281 -14.101562 13.90625 -14.15625 C 13.851562 -14.207031 13.820312 -14.238281 13.8125 -14.25 C 13.769531 -14.257812 13.71875 -14.289062 13.65625 -14.34375 C 13.570312 -14.394531 13.519531 -14.4375 13.5 -14.46875 C 13.488281 -14.46875 13.476562 -14.46875 13.46875 -14.46875 C 13.457031 -14.476562 13.445312 -14.492188 13.4375 -14.515625 C 12.84375 -14.890625 12.207031 -15.171875 11.53125 -15.359375 C 10.851562 -15.554688 10.164062 -15.648438 9.46875 -15.640625 C 8.507812 -15.640625 7.554688 -15.460938 6.609375 -15.109375 C 5.671875 -14.753906 4.804688 -14.226562 4.015625 -13.53125 C 4.015625 -13.53125 4.007812 -13.523438 4 -13.515625 C 4 -13.503906 3.992188 -13.492188 3.984375 -13.484375 C 3.867188 -13.390625 3.769531 -13.296875 3.6875 -13.203125 C 3.59375 -13.117188 3.5 -13.019531 3.40625 -12.90625 C 2.59375 -12 2.007812 -10.992188 1.65625 -9.890625 C 1.300781 -8.796875 1.179688 -7.6875 1.296875 -6.5625 C 1.421875 -5.445312 1.78125 -4.414062 2.375 -3.46875 C 2.382812 -3.46875 2.390625 -3.460938 2.390625 -3.453125 C 2.390625 -3.453125 2.394531 -3.445312 2.40625 -3.4375 C 2.445312 -3.375 2.5 -3.300781 2.5625 -3.21875 C 2.601562 -3.175781 2.640625 -3.132812 2.671875 -3.09375 C 2.691406 -3.0625 2.722656 -3.007812 2.765625 -2.9375 C 2.816406 -2.882812 2.863281 -2.832031 2.90625 -2.78125 C 2.925781 -2.738281 2.957031 -2.707031 3 -2.6875 C 3.007812 -2.65625 3.023438 -2.628906 3.046875 -2.609375 C 3.066406 -2.597656 3.09375 -2.578125 3.125 -2.546875 L 3.65625 -2.03125 C 4.425781 -1.34375 5.296875 -0.847656 6.265625 -0.546875 C 7.234375 -0.253906 8.21875 -0.160156 9.21875 -0.265625 C 10.132812 -0.367188 11.019531 -0.617188 11.875 -1.015625 C 12.738281 -1.421875 13.523438 -1.984375 14.234375 -2.703125 Z M 14.234375 -2.703125 "/></g></g></g><g fill="#000000" fill-opacity="1"><g transform="translate(157.747071, 18.833907)"><g><path d="M 2.1875 -3.34375 C 2.1875 -3.320312 2.1875 -3.296875 2.1875 -3.265625 C 2.070312 -2.910156 2.023438 -2.523438 2.046875 -2.109375 C 2.066406 -1.691406 2.21875 -1.265625 2.5 -0.828125 C 2.78125 -0.390625 3.269531 0.015625 3.96875 0.390625 C 4.53125 0.671875 5.125 0.859375 5.75 0.953125 C 5.800781 0.960938 5.878906 0.976562 5.984375 1 C 6.085938 0.988281 6.160156 0.988281 6.203125 1 C 6.953125 1.0625 7.644531 0.984375 8.28125 0.765625 C 8.914062 0.554688 9.4375 0.238281 9.84375 -0.1875 C 10.257812 -0.613281 10.507812 -1.101562 10.59375 -1.65625 C 10.675781 -2.195312 10.601562 -2.71875 10.375 -3.21875 C 10.15625 -3.71875 9.796875 -4.164062 9.296875 -4.5625 L 4.3125 -8.640625 C 3.738281 -9.085938 3.320312 -9.601562 3.0625 -10.1875 C 2.800781 -10.78125 2.71875 -11.375 2.8125 -11.96875 C 2.914062 -12.625 3.203125 -13.191406 3.671875 -13.671875 C 4.148438 -14.148438 4.75 -14.507812 5.46875 -14.75 C 6.1875 -14.988281 6.972656 -15.078125 7.828125 -15.015625 C 7.847656 -15.015625 7.878906 -15.007812 7.921875 -15 C 7.960938 -14.988281 8.003906 -14.988281 8.046875 -15 C 8.046875 -15 8.054688 -15 8.078125 -15 C 8.148438 -14.976562 8.210938 -14.96875 8.265625 -14.96875 C 8.921875 -14.863281 9.53125 -14.671875 10.09375 -14.390625 C 10.96875 -13.953125 11.625 -13.375 12.0625 -12.65625 C 12.5 -11.9375 12.65625 -11.191406 12.53125 -10.421875 C 12.519531 -10.359375 12.484375 -10.332031 12.421875 -10.34375 L 11.890625 -10.4375 C 11.867188 -10.4375 11.847656 -10.445312 11.828125 -10.46875 C 11.816406 -10.507812 11.816406 -10.535156 11.828125 -10.546875 C 11.941406 -10.898438 11.988281 -11.285156 11.96875 -11.703125 C 11.945312 -12.128906 11.789062 -12.554688 11.5 -12.984375 C 11.207031 -13.421875 10.710938 -13.832031 10.015625 -14.21875 C 9.472656 -14.476562 8.878906 -14.660156 8.234375 -14.765625 C 8.179688 -14.765625 8.113281 -14.773438 8.03125 -14.796875 C 7.925781 -14.796875 7.847656 -14.800781 7.796875 -14.8125 C 7.054688 -14.882812 6.367188 -14.804688 5.734375 -14.578125 C 5.097656 -14.359375 4.566406 -14.039062 4.140625 -13.625 C 3.722656 -13.207031 3.472656 -12.722656 3.390625 -12.171875 C 3.304688 -11.640625 3.375 -11.117188 3.59375 -10.609375 C 3.820312 -10.097656 4.1875 -9.644531 4.6875 -9.25 L 9.703125 -5.1875 C 10.253906 -4.738281 10.660156 -4.21875 10.921875 -3.625 C 11.179688 -3.03125 11.265625 -2.4375 11.171875 -1.84375 C 11.066406 -1.195312 10.773438 -0.628906 10.296875 -0.140625 C 9.828125 0.347656 9.234375 0.710938 8.515625 0.953125 C 7.804688 1.191406 7.03125 1.273438 6.1875 1.203125 C 6.144531 1.203125 6.101562 1.195312 6.0625 1.1875 C 6.03125 1.175781 6 1.175781 5.96875 1.1875 C 5.957031 1.1875 5.953125 1.1875 5.953125 1.1875 C 5.953125 1.1875 5.941406 1.1875 5.921875 1.1875 C 5.835938 1.164062 5.769531 1.148438 5.71875 1.140625 C 5.070312 1.046875 4.46875 0.851562 3.90625 0.5625 C 3.039062 0.113281 2.382812 -0.460938 1.9375 -1.171875 C 1.488281 -1.878906 1.328125 -2.617188 1.453125 -3.390625 C 1.460938 -3.453125 1.5 -3.476562 1.5625 -3.46875 L 2.109375 -3.375 C 2.128906 -3.375 2.15625 -3.363281 2.1875 -3.34375 Z M 2.1875 -3.34375 "/></g></g></g><g fill="#000000" fill-opacity="1"><g transform="translate(175.438757, 22.082708)"><g><path d="M 15.515625 -11.9375 C 15.578125 -11.914062 15.597656 -11.875 15.578125 -11.8125 L 15.296875 -10.875 C 15.285156 -10.84375 15.265625 -10.816406 15.234375 -10.796875 C 15.222656 -10.796875 15.203125 -10.800781 15.171875 -10.8125 C 15.160156 -10.8125 15.15625 -10.816406 15.15625 -10.828125 C 14.769531 -11.179688 14.34375 -11.492188 13.875 -11.765625 C 13.414062 -12.046875 12.867188 -12.3125 12.234375 -12.5625 C 11.597656 -12.820312 10.828125 -13.097656 9.921875 -13.390625 C 9.023438 -13.679688 7.96875 -14.015625 6.75 -14.390625 L 4.5 -7.015625 L 10.0625 -5.3125 C 10.101562 -5.300781 10.117188 -5.265625 10.109375 -5.203125 C 10.085938 -5.140625 10.054688 -5.113281 10.015625 -5.125 L 4.453125 -6.828125 L 2.203125 0.5625 C 3.421875 0.9375 4.484375 1.25 5.390625 1.5 C 6.304688 1.757812 7.097656 1.957031 7.765625 2.09375 C 8.441406 2.226562 9.046875 2.304688 9.578125 2.328125 C 10.117188 2.359375 10.648438 2.34375 11.171875 2.28125 C 11.203125 2.257812 11.226562 2.269531 11.25 2.3125 C 11.269531 2.332031 11.269531 2.363281 11.25 2.40625 L 10.96875 3.34375 C 10.945312 3.40625 10.90625 3.425781 10.84375 3.40625 L 6.09375 1.953125 C 6.09375 1.953125 5.957031 1.910156 5.6875 1.828125 C 5.414062 1.742188 5.078125 1.640625 4.671875 1.515625 C 4.265625 1.398438 3.863281 1.28125 3.46875 1.15625 C 3.082031 1.039062 2.75 0.941406 2.46875 0.859375 C 2.195312 0.773438 2.0625 0.734375 2.0625 0.734375 L 1.265625 0.484375 C 1.203125 0.472656 1.179688 0.4375 1.203125 0.375 C 1.222656 0.3125 1.265625 0.285156 1.328125 0.296875 C 1.503906 0.359375 1.617188 0.300781 1.671875 0.125 L 6.0625 -14.3125 C 6.113281 -14.476562 6.050781 -14.59375 5.875 -14.65625 C 5.8125 -14.664062 5.789062 -14.707031 5.8125 -14.78125 C 5.832031 -14.84375 5.875 -14.867188 5.9375 -14.859375 L 6.734375 -14.609375 Z M 15.515625 -11.9375 "/></g></g></g><g fill="#000000" fill-opacity="1"><g transform="translate(192.72151, 27.810184)"><g><path d="M 1.28125 0.5 C 1.445312 0.570312 1.566406 0.519531 1.640625 0.34375 L 7.984375 -13.34375 C 8.054688 -13.507812 8.007812 -13.628906 7.84375 -13.703125 C 7.789062 -13.734375 7.78125 -13.78125 7.8125 -13.84375 C 7.832031 -13.90625 7.867188 -13.921875 7.921875 -13.890625 L 8.671875 -13.546875 L 17.015625 -9.6875 C 17.066406 -9.664062 17.082031 -9.625 17.0625 -9.5625 L 16.640625 -8.671875 C 16.628906 -8.640625 16.609375 -8.617188 16.578125 -8.609375 C 16.566406 -8.609375 16.550781 -8.613281 16.53125 -8.625 C 16.519531 -8.632812 16.507812 -8.640625 16.5 -8.640625 C 16.164062 -9.046875 15.785156 -9.414062 15.359375 -9.75 C 14.941406 -10.082031 14.4375 -10.421875 13.84375 -10.765625 C 13.25 -11.109375 12.523438 -11.484375 11.671875 -11.890625 C 10.828125 -12.304688 9.828125 -12.785156 8.671875 -13.328125 L 5.421875 -6.328125 L 10.6875 -3.890625 C 10.738281 -3.867188 10.753906 -3.828125 10.734375 -3.765625 C 10.703125 -3.710938 10.660156 -3.695312 10.609375 -3.71875 L 5.34375 -6.15625 L 2.21875 0.609375 C 2.144531 0.785156 2.195312 0.914062 2.375 1 C 2.414062 1.019531 2.421875 1.054688 2.390625 1.109375 C 2.359375 1.160156 2.320312 1.175781 2.28125 1.15625 L 1.1875 0.65625 C 1.132812 0.625 1.125 0.582031 1.15625 0.53125 C 1.1875 0.476562 1.226562 0.46875 1.28125 0.5 Z M 1.28125 0.5 "/></g></g></g><g fill="#000000" fill-opacity="1"><g transform="translate(208.823834, 35.874307)"><g><path d="M 10.3125 -12.15625 C 10.132812 -12.257812 10.003906 -12.234375 9.921875 -12.078125 L 2.125 0.84375 C 2.03125 1.007812 2.070312 1.144531 2.25 1.25 C 2.289062 1.269531 2.296875 1.304688 2.265625 1.359375 C 2.234375 1.410156 2.195312 1.425781 2.15625 1.40625 L 1.125 0.78125 C 1.0625 0.75 1.046875 0.707031 1.078125 0.65625 C 1.109375 0.601562 1.15625 0.59375 1.21875 0.625 C 1.375 0.71875 1.5 0.679688 1.59375 0.515625 L 9.390625 -12.40625 C 9.472656 -12.5625 9.4375 -12.6875 9.28125 -12.78125 C 9.21875 -12.8125 9.207031 -12.859375 9.25 -12.921875 C 9.28125 -12.972656 9.328125 -12.984375 9.390625 -12.953125 L 10.421875 -12.328125 C 10.460938 -12.304688 10.46875 -12.269531 10.4375 -12.21875 C 10.394531 -12.15625 10.351562 -12.132812 10.3125 -12.15625 Z M 10.3125 -12.15625 "/></g></g></g><g fill="#000000" fill-opacity="1"><g transform="translate(217.634729, 41.30912)"><g><path d="M 1.140625 0.75 C 1.285156 0.863281 1.414062 0.847656 1.53125 0.703125 L 10.828125 -11.421875 C 10.773438 -11.523438 10.71875 -11.601562 10.65625 -11.65625 C 10.601562 -11.695312 10.601562 -11.742188 10.65625 -11.796875 C 10.6875 -11.847656 10.726562 -11.851562 10.78125 -11.8125 L 11.078125 -11.578125 L 11.484375 -11.265625 C 11.515625 -11.242188 11.53125 -11.21875 11.53125 -11.1875 L 9.234375 6.03125 L 18.140625 -5.5625 C 18.242188 -5.707031 18.222656 -5.835938 18.078125 -5.953125 C 18.023438 -5.992188 18.023438 -6.039062 18.078125 -6.09375 C 18.109375 -6.144531 18.148438 -6.148438 18.203125 -6.109375 L 18.796875 -5.65625 C 18.859375 -5.613281 18.875 -5.566406 18.84375 -5.515625 C 18.789062 -5.460938 18.734375 -5.457031 18.671875 -5.5 C 18.535156 -5.601562 18.414062 -5.582031 18.3125 -5.4375 C 18.3125 -5.4375 18.175781 -5.265625 17.90625 -4.921875 C 17.644531 -4.578125 17.289062 -4.113281 16.84375 -3.53125 C 16.394531 -2.945312 15.890625 -2.289062 15.328125 -1.5625 C 14.773438 -0.832031 14.195312 -0.0820312 13.59375 0.6875 C 13 1.46875 12.421875 2.222656 11.859375 2.953125 C 11.304688 3.679688 10.804688 4.335938 10.359375 4.921875 C 9.910156 5.503906 9.550781 5.96875 9.28125 6.3125 C 9.019531 6.65625 8.890625 6.828125 8.890625 6.828125 C 8.878906 6.835938 8.867188 6.847656 8.859375 6.859375 C 8.804688 6.867188 8.765625 6.859375 8.734375 6.828125 C 8.734375 6.828125 8.703125 6.800781 8.640625 6.75 C 8.578125 6.707031 8.546875 6.6875 8.546875 6.6875 C 8.535156 6.675781 8.523438 6.644531 8.515625 6.59375 L 10.875 -11.09375 C 10.875 -11.113281 10.878906 -11.128906 10.890625 -11.140625 L 1.703125 0.828125 C 1.585938 0.972656 1.597656 1.097656 1.734375 1.203125 C 1.796875 1.242188 1.804688 1.289062 1.765625 1.34375 C 1.722656 1.394531 1.671875 1.398438 1.609375 1.359375 L 1.015625 0.90625 C 0.960938 0.863281 0.957031 0.816406 1 0.765625 C 1.039062 0.710938 1.085938 0.707031 1.140625 0.75 Z M 1.140625 0.75 "/></g></g></g><g fill="#000000" fill-opacity="1"><g transform="translate(232.5088, 53.4621)"><g/></g></g><g fill="#000000" fill-opacity="1"><g transform="translate(241.729694, 62.744521)"><g><path d="M 14.609375 1.90625 C 14.972656 2.507812 15.203125 3.117188 15.296875 3.734375 C 15.390625 4.359375 15.347656 4.941406 15.171875 5.484375 C 14.992188 6.023438 14.691406 6.460938 14.265625 6.796875 C 13.847656 7.117188 13.359375 7.304688 12.796875 7.359375 C 12.242188 7.410156 11.679688 7.316406 11.109375 7.078125 L 9.53125 6.4375 C 8.914062 6.90625 8.1875 7.117188 7.34375 7.078125 C 6.507812 7.035156 5.691406 6.75 4.890625 6.21875 C 4.867188 6.1875 4.867188 6.1875 4.890625 6.21875 C 4.390625 5.863281 3.941406 5.429688 3.546875 4.921875 L 3.4375 4.8125 C 3.425781 4.800781 3.410156 4.78125 3.390625 4.75 C 3.378906 4.738281 3.367188 4.71875 3.359375 4.6875 L 3.21875 4.515625 C 2.757812 3.921875 2.488281 3.265625 2.40625 2.546875 C 2.320312 1.835938 2.414062 1.144531 2.6875 0.46875 C 2.957031 -0.207031 3.390625 -0.773438 3.984375 -1.234375 C 4.492188 -1.628906 5.054688 -1.890625 5.671875 -2.015625 C 6.285156 -2.148438 6.890625 -2.140625 7.484375 -1.984375 C 8.085938 -1.835938 8.628906 -1.570312 9.109375 -1.1875 C 8.847656 -1.738281 8.71875 -2.320312 8.71875 -2.9375 C 8.726562 -3.5625 8.875 -4.15625 9.15625 -4.71875 C 9.4375 -5.28125 9.832031 -5.765625 10.34375 -6.171875 C 10.945312 -6.640625 11.601562 -6.914062 12.3125 -7 C 13.03125 -7.09375 13.722656 -7.007812 14.390625 -6.75 C 15.066406 -6.5 15.632812 -6.078125 16.09375 -5.484375 L 16.234375 -5.3125 C 16.234375 -5.3125 16.238281 -5.304688 16.25 -5.296875 C 16.300781 -5.222656 16.34375 -5.164062 16.375 -5.125 C 16.78125 -4.601562 17.09375 -4.035156 17.3125 -3.421875 C 17.644531 -2.523438 17.726562 -1.664062 17.5625 -0.84375 C 17.394531 -0.0195312 17.003906 0.628906 16.390625 1.109375 C 16.335938 1.140625 16.289062 1.128906 16.25 1.078125 L 15.921875 0.671875 C 15.898438 0.640625 15.898438 0.613281 15.921875 0.59375 C 15.921875 0.550781 15.929688 0.523438 15.953125 0.515625 C 16.273438 0.359375 16.570312 0.117188 16.84375 -0.203125 C 17.125 -0.535156 17.304688 -0.957031 17.390625 -1.46875 C 17.472656 -1.988281 17.390625 -2.625 17.140625 -3.375 C 16.921875 -3.945312 16.613281 -4.488281 16.21875 -5 C 16.1875 -5.039062 16.144531 -5.097656 16.09375 -5.171875 C 16.09375 -5.171875 16.085938 -5.175781 16.078125 -5.1875 C 15.679688 -5.695312 15.171875 -6.054688 14.546875 -6.265625 C 13.929688 -6.484375 13.289062 -6.535156 12.625 -6.421875 C 11.957031 -6.316406 11.335938 -6.046875 10.765625 -5.609375 C 10.191406 -5.160156 9.773438 -4.628906 9.515625 -4.015625 C 9.253906 -3.410156 9.144531 -2.78125 9.1875 -2.125 C 9.238281 -1.476562 9.460938 -0.894531 9.859375 -0.375 C 10.335938 -0.539062 10.847656 -0.566406 11.390625 -0.453125 C 11.941406 -0.347656 12.476562 -0.117188 13 0.234375 C 13 0.234375 13.003906 0.238281 13.015625 0.25 C 13.472656 0.550781 13.882812 0.929688 14.25 1.390625 C 14.351562 1.515625 14.4375 1.628906 14.5 1.734375 C 14.519531 1.765625 14.554688 1.820312 14.609375 1.90625 Z M 5.015625 6.046875 C 5.585938 6.421875 6.113281 6.644531 6.59375 6.71875 C 7.070312 6.789062 7.488281 6.765625 7.84375 6.640625 C 8.207031 6.515625 8.523438 6.34375 8.796875 6.125 L 5.921875 4.984375 C 5.148438 4.679688 4.4375 4.65625 3.78125 4.90625 C 4.144531 5.34375 4.554688 5.722656 5.015625 6.046875 Z M 11.40625 6.5 C 11.925781 6.695312 12.421875 6.773438 12.890625 6.734375 C 13.367188 6.703125 13.785156 6.546875 14.140625 6.265625 C 14.515625 5.984375 14.773438 5.609375 14.921875 5.140625 C 15.078125 4.671875 15.113281 4.164062 15.03125 3.625 C 14.945312 3.09375 14.753906 2.5625 14.453125 2.03125 C 14.441406 2.019531 14.4375 2.015625 14.4375 2.015625 C 14.394531 1.929688 14.359375 1.875 14.328125 1.84375 C 14.273438 1.75 14.195312 1.640625 14.09375 1.515625 C 13.75 1.078125 13.359375 0.707031 12.921875 0.40625 C 12.910156 0.394531 12.90625 0.390625 12.90625 0.390625 C 12.90625 0.378906 12.90625 0.378906 12.90625 0.390625 C 12.34375 0.015625 11.835938 -0.1875 11.390625 -0.21875 C 10.941406 -0.25 10.550781 -0.1875 10.21875 -0.03125 C 9.894531 0.125 9.628906 0.320312 9.421875 0.5625 C 9.390625 0.570312 9.363281 0.585938 9.34375 0.609375 C 9.3125 0.585938 9.285156 0.570312 9.265625 0.5625 L 9 0.203125 C 8.945312 0.140625 8.945312 0.0859375 9 0.046875 C 9.195312 -0.109375 9.421875 -0.226562 9.671875 -0.3125 C 9.242188 -0.800781 8.722656 -1.148438 8.109375 -1.359375 C 7.503906 -1.578125 6.875 -1.625 6.21875 -1.5 C 5.5625 -1.375 4.957031 -1.097656 4.40625 -0.671875 C 3.851562 -0.242188 3.441406 0.265625 3.171875 0.859375 C 2.898438 1.453125 2.78125 2.066406 2.8125 2.703125 C 2.851562 3.335938 3.0625 3.921875 3.4375 4.453125 C 4.25 4.003906 5.179688 3.992188 6.234375 4.421875 Z M 11.40625 6.5 "/></g></g></g><g fill="#000000" fill-opacity="1"><g transform="translate(254.42791, 80.248619)"><g/></g></g><g fill="#000000" fill-opacity="1"><g transform="translate(260.829534, 91.693508)"><g><path d="M 0.640625 1.21875 C 0.710938 1.382812 0.832031 1.425781 1 1.34375 L 14.859375 -4.640625 C 15.015625 -4.710938 15.054688 -4.832031 14.984375 -5 C 14.953125 -5.0625 14.972656 -5.109375 15.046875 -5.140625 C 15.097656 -5.160156 15.140625 -5.140625 15.171875 -5.078125 L 15.640625 -3.96875 C 15.660156 -3.925781 15.644531 -3.894531 15.59375 -3.875 C 15.519531 -3.84375 15.472656 -3.847656 15.453125 -3.890625 C 15.378906 -4.078125 15.265625 -4.132812 15.109375 -4.0625 L 7.46875 -0.765625 C 7.25 -0.671875 7.097656 -0.515625 7.015625 -0.296875 C 6.929688 -0.078125 6.9375 0.144531 7.03125 0.375 C 7.15625 0.65625 7.375 0.8125 7.6875 0.84375 L 17.90625 2.28125 C 18 2.300781 18.054688 2.289062 18.078125 2.25 C 18.085938 2.21875 18.082031 2.179688 18.0625 2.140625 C 18.039062 2.078125 18.066406 2.03125 18.140625 2 C 18.191406 1.976562 18.226562 2 18.25 2.0625 L 18.546875 2.75 C 18.566406 2.800781 18.550781 2.835938 18.5 2.859375 C 18.425781 2.890625 18.378906 2.878906 18.359375 2.828125 C 18.273438 2.640625 18.113281 2.519531 17.875 2.46875 L 10.609375 1.453125 L 4.953125 9.046875 C 4.578125 9.523438 4.492188 10.046875 4.703125 10.609375 C 4.722656 10.671875 4.703125 10.710938 4.640625 10.734375 C 4.578125 10.753906 4.535156 10.734375 4.515625 10.671875 C 4.335938 10.234375 4.285156 9.785156 4.359375 9.328125 C 4.429688 8.867188 4.601562 8.445312 4.875 8.0625 L 9.8125 1.359375 L 7.65625 1.0625 C 7.28125 0.988281 7.015625 0.78125 6.859375 0.4375 C 6.722656 0.101562 6.742188 -0.21875 6.921875 -0.53125 L 1.25 1.921875 C 1.082031 2.003906 1.035156 2.140625 1.109375 2.328125 C 1.128906 2.367188 1.109375 2.398438 1.046875 2.421875 C 0.984375 2.441406 0.941406 2.429688 0.921875 2.390625 L 0.453125 1.28125 C 0.421875 1.21875 0.4375 1.175781 0.5 1.15625 C 0.5625 1.132812 0.609375 1.15625 0.640625 1.21875 Z M 0.640625 1.21875 "/></g></g></g><g fill="#000000" fill-opacity="1"><g transform="translate(267.528762, 108.599209)"><g><path d="M 15.78125 -2.1875 C 15.726562 -2.375 15.617188 -2.441406 15.453125 -2.390625 L 1.03125 2.0625 C 0.851562 2.113281 0.789062 2.234375 0.84375 2.421875 C 0.863281 2.460938 0.84375 2.492188 0.78125 2.515625 C 0.71875 2.535156 0.675781 2.523438 0.65625 2.484375 L 0.3125 1.328125 C 0.289062 1.265625 0.3125 1.222656 0.375 1.203125 C 0.4375 1.179688 0.476562 1.203125 0.5 1.265625 C 0.550781 1.441406 0.664062 1.503906 0.84375 1.453125 L 15.265625 -3 C 15.429688 -3.050781 15.488281 -3.164062 15.4375 -3.34375 C 15.414062 -3.40625 15.441406 -3.445312 15.515625 -3.46875 C 15.578125 -3.488281 15.617188 -3.46875 15.640625 -3.40625 L 15.984375 -2.25 C 16.003906 -2.207031 15.984375 -2.175781 15.921875 -2.15625 C 15.847656 -2.132812 15.800781 -2.144531 15.78125 -2.1875 Z M 15.78125 -2.1875 "/></g></g></g><g fill="#000000" fill-opacity="1"><g transform="translate(270.4406, 118.549652)"><g><path d="M -0.03125 0.328125 C -0.0390625 0.265625 -0.015625 0.226562 0.046875 0.21875 C 0.109375 0.207031 0.144531 0.234375 0.15625 0.296875 C 0.1875 0.484375 0.3125 0.59375 0.53125 0.625 L 9 1.484375 L 15.953125 2.171875 L 16.71875 2.25 L 16.75 2.28125 C 16.738281 2.257812 16.742188 2.253906 16.765625 2.265625 C 16.765625 2.265625 16.769531 2.265625 16.78125 2.265625 C 16.78125 2.273438 16.78125 2.28125 16.78125 2.28125 C 16.800781 2.28125 16.8125 2.28125 16.8125 2.28125 C 16.832031 2.3125 16.835938 2.316406 16.828125 2.296875 C 16.816406 2.296875 16.816406 2.296875 16.828125 2.296875 C 16.835938 2.316406 16.84375 2.328125 16.84375 2.328125 C 16.84375 2.335938 16.84375 2.34375 16.84375 2.34375 C 16.832031 2.351562 16.832031 2.359375 16.84375 2.359375 C 16.84375 2.347656 16.835938 2.347656 16.828125 2.359375 C 16.828125 2.367188 16.828125 2.375 16.828125 2.375 C 16.804688 2.375 16.804688 2.375 16.828125 2.375 C 16.828125 2.375 16.820312 2.382812 16.8125 2.40625 C 16.800781 2.414062 16.796875 2.421875 16.796875 2.421875 C 16.785156 2.429688 16.78125 2.4375 16.78125 2.4375 L 2.375 10.046875 C 2.1875 10.148438 2.109375 10.296875 2.140625 10.484375 C 2.160156 10.546875 2.140625 10.582031 2.078125 10.59375 C 2.015625 10.601562 1.972656 10.578125 1.953125 10.515625 L 1.890625 10.15625 L 1.796875 9.703125 L 1.734375 9.34375 C 1.710938 9.28125 1.734375 9.242188 1.796875 9.234375 C 1.859375 9.222656 1.898438 9.25 1.921875 9.3125 C 1.929688 9.375 1.957031 9.414062 2 9.4375 C 2.0625 9.457031 2.132812 9.453125 2.21875 9.421875 L 4.71875 8.078125 C 4.71875 8.066406 4.710938 8.0625 4.703125 8.0625 C 5.878906 7.394531 6.835938 6.492188 7.578125 5.359375 C 8.316406 4.222656 8.753906 2.992188 8.890625 1.671875 L 0.53125 0.8125 C 0.445312 0.8125 0.378906 0.828125 0.328125 0.859375 C 0.296875 0.910156 0.285156 0.96875 0.296875 1.03125 C 0.304688 1.101562 0.28125 1.144531 0.21875 1.15625 C 0.15625 1.164062 0.117188 1.132812 0.109375 1.0625 Z M 9.078125 1.65625 C 8.953125 2.789062 8.628906 3.851562 8.109375 4.84375 C 7.585938 5.832031 6.898438 6.675781 6.046875 7.375 L 15.609375 2.3125 Z M 9.078125 1.65625 "/></g></g></g><g fill="#000000" fill-opacity="1"><g transform="translate(273.398748, 135.674271)"><g><path d="M 0.171875 1.359375 C 0.179688 1.546875 0.28125 1.632812 0.46875 1.625 L 15.546875 0.796875 C 15.722656 0.785156 15.804688 0.6875 15.796875 0.5 C 15.785156 0.4375 15.8125 0.40625 15.875 0.40625 C 15.9375 0.40625 15.972656 0.4375 15.984375 0.5 L 16.015625 1.28125 L 16.265625 5.78125 C 16.304688 6.53125 16.164062 7.21875 15.84375 7.84375 C 15.519531 8.476562 15.054688 8.992188 14.453125 9.390625 C 13.859375 9.796875 13.191406 10.019531 12.453125 10.0625 C 11.703125 10.101562 11.007812 9.957031 10.375 9.625 C 9.738281 9.289062 9.222656 8.828125 8.828125 8.234375 C 8.429688 7.640625 8.210938 6.96875 8.171875 6.21875 L 8.125 5.375 C 8.007812 5.863281 7.800781 6.316406 7.5 6.734375 C 7.195312 7.148438 6.828125 7.503906 6.390625 7.796875 L 1.546875 10.953125 C 1.035156 11.265625 0.773438 11.722656 0.765625 12.328125 C 0.765625 12.390625 0.734375 12.421875 0.671875 12.421875 C 0.609375 12.421875 0.578125 12.390625 0.578125 12.328125 C 0.566406 11.859375 0.671875 11.421875 0.890625 11.015625 C 1.117188 10.609375 1.429688 10.273438 1.828125 10.015625 L 6.671875 6.828125 C 7.140625 6.535156 7.492188 6.144531 7.734375 5.65625 C 7.984375 5.175781 8.09375 4.671875 8.0625 4.140625 L 7.9375 1.84375 L 0.5 2.25 C 0.3125 2.257812 0.222656 2.363281 0.234375 2.5625 C 0.234375 2.613281 0.203125 2.640625 0.140625 2.640625 C 0.078125 2.640625 0.046875 2.613281 0.046875 2.5625 L -0.015625 1.359375 C -0.0234375 1.296875 0 1.265625 0.0625 1.265625 C 0.125 1.265625 0.160156 1.296875 0.171875 1.359375 Z M 8.125 1.828125 L 8.34375 5.953125 C 8.382812 6.617188 8.59375 7.21875 8.96875 7.75 C 9.34375 8.28125 9.832031 8.6875 10.4375 8.96875 C 11.050781 9.257812 11.710938 9.390625 12.421875 9.359375 C 13.128906 9.316406 13.765625 9.117188 14.328125 8.765625 C 14.898438 8.410156 15.34375 7.945312 15.65625 7.375 C 15.96875 6.8125 16.101562 6.195312 16.0625 5.53125 L 15.84375 1.40625 Z M 8.125 1.828125 "/></g></g></g><g fill="#000000" fill-opacity="1"><g transform="translate(273.930422, 154.658934)"><g><path d="M -0.125 0.296875 C -0.113281 0.234375 -0.078125 0.207031 -0.015625 0.21875 C 0.046875 0.226562 0.0703125 0.265625 0.0625 0.328125 C 0.0507812 0.523438 0.140625 0.664062 0.328125 0.75 L 8.25 3.890625 L 14.75 6.453125 L 15.46875 6.734375 L 15.484375 6.78125 C 15.484375 6.757812 15.488281 6.757812 15.5 6.78125 C 15.5 6.78125 15.503906 6.78125 15.515625 6.78125 C 15.515625 6.789062 15.515625 6.796875 15.515625 6.796875 C 15.535156 6.796875 15.546875 6.796875 15.546875 6.796875 C 15.546875 6.796875 15.539062 6.800781 15.53125 6.8125 C 15.539062 6.84375 15.546875 6.847656 15.546875 6.828125 C 15.535156 6.828125 15.535156 6.828125 15.546875 6.828125 C 15.546875 6.847656 15.546875 6.859375 15.546875 6.859375 C 15.546875 6.867188 15.546875 6.875 15.546875 6.875 C 15.535156 6.882812 15.535156 6.890625 15.546875 6.890625 C 15.546875 6.878906 15.539062 6.878906 15.53125 6.890625 C 15.53125 6.898438 15.53125 6.90625 15.53125 6.90625 C 15.507812 6.90625 15.507812 6.90625 15.53125 6.90625 C 15.53125 6.90625 15.519531 6.914062 15.5 6.9375 C 15.488281 6.945312 15.484375 6.953125 15.484375 6.953125 C 15.472656 6.953125 15.46875 6.953125 15.46875 6.953125 L -0.484375 10.3125 C -0.679688 10.363281 -0.789062 10.488281 -0.8125 10.6875 C -0.8125 10.75 -0.84375 10.773438 -0.90625 10.765625 C -0.96875 10.753906 -1 10.71875 -1 10.65625 L -0.96875 10.28125 L -0.921875 9.828125 L -0.890625 9.453125 C -0.890625 9.390625 -0.859375 9.363281 -0.796875 9.375 C -0.734375 9.382812 -0.703125 9.421875 -0.703125 9.484375 C -0.710938 9.546875 -0.695312 9.59375 -0.65625 9.625 C -0.601562 9.664062 -0.535156 9.675781 -0.453125 9.65625 L 2.3125 9.078125 C 2.320312 9.066406 2.320312 9.0625 2.3125 9.0625 C 3.632812 8.726562 4.804688 8.113281 5.828125 7.21875 C 6.847656 6.332031 7.601562 5.269531 8.09375 4.03125 L 0.28125 0.921875 C 0.195312 0.898438 0.128906 0.898438 0.078125 0.921875 C 0.0351562 0.960938 0.0078125 1.015625 0 1.078125 C 0 1.148438 -0.03125 1.179688 -0.09375 1.171875 C -0.15625 1.160156 -0.1875 1.117188 -0.1875 1.046875 Z M 8.28125 4.078125 C 7.851562 5.140625 7.253906 6.070312 6.484375 6.875 C 5.710938 7.675781 4.816406 8.296875 3.796875 8.734375 L 14.390625 6.5 Z M 8.28125 4.078125 "/></g></g></g><g fill="#000000" fill-opacity="1"><g transform="translate(272.090411, 171.735173)"><g><path d="M 3.203125 2.375 C 3.179688 2.382812 3.15625 2.382812 3.125 2.375 C 2.769531 2.25 2.382812 2.179688 1.96875 2.171875 C 1.550781 2.160156 1.113281 2.285156 0.65625 2.546875 C 0.207031 2.804688 -0.21875 3.269531 -0.625 3.9375 C -0.9375 4.476562 -1.164062 5.054688 -1.3125 5.671875 C -1.320312 5.722656 -1.335938 5.800781 -1.359375 5.90625 C -1.359375 6.019531 -1.363281 6.09375 -1.375 6.125 C -1.488281 6.875 -1.457031 7.570312 -1.28125 8.21875 C -1.101562 8.863281 -0.8125 9.40625 -0.40625 9.84375 C -0.0078125 10.28125 0.460938 10.5625 1.015625 10.6875 C 1.546875 10.800781 2.066406 10.757812 2.578125 10.5625 C 3.085938 10.363281 3.5625 10.03125 4 9.5625 L 8.359375 4.828125 C 8.847656 4.285156 9.390625 3.898438 9.984375 3.671875 C 10.585938 3.453125 11.179688 3.410156 11.765625 3.546875 C 12.410156 3.679688 12.957031 4 13.40625 4.5 C 13.863281 5 14.191406 5.613281 14.390625 6.34375 C 14.585938 7.082031 14.632812 7.875 14.53125 8.71875 C 14.519531 8.738281 14.507812 8.769531 14.5 8.8125 C 14.488281 8.851562 14.488281 8.898438 14.5 8.953125 C 14.5 8.953125 14.492188 8.957031 14.484375 8.96875 C 14.460938 9.050781 14.445312 9.117188 14.4375 9.171875 C 14.300781 9.816406 14.066406 10.40625 13.734375 10.9375 C 13.253906 11.78125 12.644531 12.398438 11.90625 12.796875 C 11.164062 13.203125 10.410156 13.320312 9.640625 13.15625 C 9.585938 13.144531 9.570312 13.101562 9.59375 13.03125 L 9.703125 12.515625 C 9.703125 12.492188 9.71875 12.472656 9.75 12.453125 C 9.769531 12.441406 9.789062 12.441406 9.8125 12.453125 C 10.15625 12.578125 10.539062 12.644531 10.96875 12.65625 C 11.394531 12.664062 11.828125 12.535156 12.265625 12.265625 C 12.710938 11.992188 13.148438 11.519531 13.578125 10.84375 C 13.878906 10.332031 14.097656 9.757812 14.234375 9.125 C 14.242188 9.070312 14.257812 9 14.28125 8.90625 C 14.300781 8.8125 14.316406 8.738281 14.328125 8.6875 C 14.429688 7.945312 14.394531 7.25 14.21875 6.59375 C 14.039062 5.945312 13.753906 5.398438 13.359375 4.953125 C 12.960938 4.515625 12.488281 4.238281 11.9375 4.125 C 11.40625 4 10.878906 4.03125 10.359375 4.21875 C 9.847656 4.414062 9.378906 4.757812 8.953125 5.25 L 4.59375 10 C 4.113281 10.53125 3.566406 10.90625 2.953125 11.125 C 2.347656 11.351562 1.753906 11.40625 1.171875 11.28125 C 0.523438 11.132812 -0.0234375 10.804688 -0.484375 10.296875 C -0.941406 9.796875 -1.269531 9.179688 -1.46875 8.453125 C -1.664062 7.722656 -1.703125 6.9375 -1.578125 6.09375 C -1.566406 6.0625 -1.554688 6.023438 -1.546875 5.984375 C -1.546875 5.953125 -1.546875 5.921875 -1.546875 5.890625 C -1.546875 5.878906 -1.546875 5.875 -1.546875 5.875 C -1.546875 5.875 -1.539062 5.863281 -1.53125 5.84375 C -1.519531 5.757812 -1.507812 5.691406 -1.5 5.640625 C -1.351562 5.003906 -1.117188 4.410156 -0.796875 3.859375 C -0.296875 3.023438 0.316406 2.40625 1.046875 2 C 1.773438 1.601562 2.523438 1.492188 3.296875 1.671875 C 3.347656 1.679688 3.367188 1.710938 3.359375 1.765625 L 3.25 2.3125 C 3.238281 2.332031 3.222656 2.351562 3.203125 2.375 Z M 3.203125 2.375 "/></g></g></g><g fill="#000000" fill-opacity="1"><g transform="translate(267.819086, 189.196787)"><g><path d="M 10.515625 16.6875 C 10.578125 16.507812 10.523438 16.390625 10.359375 16.328125 L -3.765625 10.984375 C -3.929688 10.921875 -4.046875 10.976562 -4.109375 11.15625 C -4.128906 11.207031 -4.171875 11.222656 -4.234375 11.203125 C -4.296875 11.179688 -4.316406 11.144531 -4.296875 11.09375 L -3.875 9.96875 C -3.851562 9.90625 -3.8125 9.882812 -3.75 9.90625 C -3.6875 9.925781 -3.664062 9.96875 -3.6875 10.03125 C -3.75 10.207031 -3.695312 10.328125 -3.53125 10.390625 L 5.28125 13.71875 C 4.425781 12.976562 3.847656 11.738281 3.546875 10 C 3.253906 8.269531 3.28125 6.203125 3.625 3.796875 L -0.453125 2.25 C -0.617188 2.1875 -0.738281 2.242188 -0.8125 2.421875 C -0.832031 2.472656 -0.875 2.488281 -0.9375 2.46875 C -1 2.445312 -1.019531 2.410156 -1 2.359375 L -0.578125 1.234375 C -0.554688 1.179688 -0.515625 1.164062 -0.453125 1.1875 C -0.390625 1.207031 -0.367188 1.242188 -0.390625 1.296875 C -0.453125 1.472656 -0.398438 1.59375 -0.234375 1.65625 L 13.890625 7 C 14.054688 7.0625 14.171875 7.003906 14.234375 6.828125 C 14.253906 6.773438 14.300781 6.757812 14.375 6.78125 C 14.425781 6.8125 14.441406 6.851562 14.421875 6.90625 L 14 8.03125 C 13.976562 8.082031 13.941406 8.09375 13.890625 8.0625 C 13.816406 8.039062 13.789062 8.003906 13.8125 7.953125 C 13.882812 7.773438 13.835938 7.65625 13.671875 7.59375 L 3.828125 3.875 C 3.566406 5.6875 3.488281 7.304688 3.59375 8.734375 C 3.707031 10.160156 3.984375 11.335938 4.421875 12.265625 C 4.867188 13.191406 5.46875 13.796875 6.21875 14.078125 L 10.59375 15.734375 C 10.757812 15.796875 10.875 15.738281 10.9375 15.5625 C 10.957031 15.5 11.003906 15.476562 11.078125 15.5 C 11.128906 15.53125 11.144531 15.578125 11.125 15.640625 L 10.703125 16.765625 C 10.679688 16.816406 10.644531 16.828125 10.59375 16.796875 C 10.519531 16.773438 10.492188 16.738281 10.515625 16.6875 Z M 10.515625 16.6875 "/></g></g></g><g fill="#000000" fill-opacity="1"><g transform="translate(9.541674, 165.321898)"><g><path d="M 14.90625 -0.671875 C 14.90625 -0.710938 14.914062 -0.742188 14.9375 -0.765625 C 14.976562 -0.804688 15.023438 -0.800781 15.078125 -0.75 L 15.90625 0.09375 L 16.296875 0.46875 C 16.296875 0.488281 16.300781 0.507812 16.3125 0.53125 C 16.3125 0.550781 16.3125 0.566406 16.3125 0.578125 C 16.3125 0.585938 16.3125 0.585938 16.3125 0.578125 C 16.3125 0.585938 16.3125 0.59375 16.3125 0.59375 C 16.3125 0.601562 16.300781 0.613281 16.28125 0.625 C 16.28125 0.625 16.28125 0.632812 16.28125 0.65625 C 16.269531 0.65625 16.257812 0.65625 16.25 0.65625 C 16.226562 0.65625 16.226562 0.65625 16.25 0.65625 L 0.796875 2.890625 C 0.609375 2.910156 0.53125 3.007812 0.5625 3.1875 C 0.570312 3.257812 0.546875 3.300781 0.484375 3.3125 C 0.421875 3.320312 0.382812 3.289062 0.375 3.21875 L 0.3125 2.84375 C 0.3125 2.84375 0.300781 2.769531 0.28125 2.625 C 0.257812 2.476562 0.25 2.40625 0.25 2.40625 C 0.25 2.40625 0.238281 2.34375 0.21875 2.21875 C 0.207031 2.101562 0.203125 2.046875 0.203125 2.046875 C 0.191406 1.984375 0.21875 1.945312 0.28125 1.9375 C 0.34375 1.925781 0.378906 1.953125 0.390625 2.015625 C 0.410156 2.191406 0.515625 2.269531 0.703125 2.25 L 15.640625 0.09375 L 14.9375 -0.625 C 14.925781 -0.632812 14.914062 -0.648438 14.90625 -0.671875 Z M 14.90625 -0.671875 "/></g></g></g><g fill="#000000" fill-opacity="1"><g transform="translate(11.295851, 176.393835)"><g><path d="M 0.234375 1.09375 C 0.253906 1.050781 0.285156 1.039062 0.328125 1.0625 L 17.765625 5.953125 L 16.78125 2.078125 C 16.550781 1.171875 16.351562 0.425781 16.1875 -0.15625 C 16.019531 -0.75 15.847656 -1.226562 15.671875 -1.59375 C 15.492188 -1.96875 15.289062 -2.300781 15.0625 -2.59375 C 15.039062 -2.59375 15.03125 -2.597656 15.03125 -2.609375 C 15.019531 -2.640625 15.023438 -2.664062 15.046875 -2.6875 C 15.054688 -2.707031 15.070312 -2.722656 15.09375 -2.734375 L 15.609375 -2.859375 C 15.671875 -2.878906 15.710938 -2.859375 15.734375 -2.796875 L 17.984375 6.03125 L 18.125 6.53125 C 18.125 6.5625 18.117188 6.597656 18.109375 6.640625 C 18.066406 6.660156 18.03125 6.671875 18 6.671875 L 0.390625 1.734375 C 0.359375 1.722656 0.335938 1.703125 0.328125 1.671875 L 0.203125 1.171875 C 0.191406 1.128906 0.203125 1.101562 0.234375 1.09375 Z M 0.234375 1.09375 "/></g></g></g><g fill="#000000" fill-opacity="1"><g transform="translate(16.542953, 194.5276)"><g><path d="M 9.1875 1.625 C 9.21875 1.675781 9.207031 1.710938 9.15625 1.734375 C 9.09375 1.753906 9.046875 1.738281 9.015625 1.6875 L 7.5 -2.296875 C 7.476562 -2.359375 7.5 -2.398438 7.5625 -2.421875 C 7.613281 -2.441406 7.648438 -2.421875 7.671875 -2.359375 Z M 9.1875 1.625 "/></g></g></g><g fill="#000000" fill-opacity="1"><g transform="translate(21.242976, 205.949024)"><g><path d="M 14 -5.171875 C 13.976562 -5.210938 13.976562 -5.25 14 -5.28125 C 14.019531 -5.332031 14.0625 -5.34375 14.125 -5.3125 L 15.1875 -4.734375 L 15.65625 -4.515625 C 15.664062 -4.492188 15.679688 -4.472656 15.703125 -4.453125 C 15.710938 -4.441406 15.710938 -4.429688 15.703125 -4.421875 C 15.710938 -4.410156 15.710938 -4.410156 15.703125 -4.421875 C 15.710938 -4.410156 15.71875 -4.40625 15.71875 -4.40625 C 15.71875 -4.394531 15.710938 -4.382812 15.703125 -4.375 C 15.703125 -4.375 15.703125 -4.363281 15.703125 -4.34375 C 15.691406 -4.332031 15.679688 -4.328125 15.671875 -4.328125 C 15.648438 -4.316406 15.648438 -4.316406 15.671875 -4.328125 L 1.640625 2.5 C 1.460938 2.582031 1.414062 2.703125 1.5 2.859375 C 1.53125 2.921875 1.519531 2.96875 1.46875 3 C 1.414062 3.03125 1.375 3.015625 1.34375 2.953125 L 1.171875 2.625 C 1.171875 2.625 1.140625 2.554688 1.078125 2.421875 C 1.015625 2.285156 0.984375 2.21875 0.984375 2.21875 C 0.984375 2.21875 0.953125 2.160156 0.890625 2.046875 C 0.835938 1.941406 0.8125 1.890625 0.8125 1.890625 C 0.789062 1.828125 0.804688 1.78125 0.859375 1.75 C 0.910156 1.71875 0.945312 1.734375 0.96875 1.796875 C 1.050781 1.960938 1.179688 2.003906 1.359375 1.921875 L 14.921875 -4.671875 L 14.03125 -5.15625 C 14.019531 -5.15625 14.007812 -5.160156 14 -5.171875 Z M 14 -5.171875 "/></g></g></g><g fill="#000000" fill-opacity="1"><g transform="translate(26.321136, 216.075131)"><g><path d="M 4.0625 -0.84375 C 4.613281 -1.195312 5.203125 -1.40625 5.828125 -1.46875 C 6.460938 -1.539062 7.066406 -1.476562 7.640625 -1.28125 C 8.222656 -1.082031 8.738281 -0.757812 9.1875 -0.3125 C 8.96875 -0.90625 8.890625 -1.503906 8.953125 -2.109375 C 9.023438 -2.722656 9.222656 -3.296875 9.546875 -3.828125 C 9.878906 -4.367188 10.320312 -4.816406 10.875 -5.171875 C 11.507812 -5.578125 12.1875 -5.789062 12.90625 -5.8125 C 13.632812 -5.84375 14.320312 -5.695312 14.96875 -5.375 C 15.613281 -5.0625 16.140625 -4.585938 16.546875 -3.953125 L 17.625 -2.25 C 18.019531 -1.625 18.222656 -0.953125 18.234375 -0.234375 C 18.242188 0.484375 18.082031 1.160156 17.75 1.796875 C 17.425781 2.441406 16.945312 2.96875 16.3125 3.375 C 15.757812 3.726562 15.164062 3.941406 14.53125 4.015625 C 13.90625 4.085938 13.300781 4.019531 12.71875 3.8125 C 12.144531 3.613281 11.632812 3.289062 11.1875 2.84375 C 11.40625 3.4375 11.476562 4.039062 11.40625 4.65625 C 11.34375 5.269531 11.144531 5.84375 10.8125 6.375 C 10.488281 6.90625 10.050781 7.347656 9.5 7.703125 C 8.863281 8.097656 8.179688 8.304688 7.453125 8.328125 C 6.734375 8.359375 6.050781 8.21875 5.40625 7.90625 C 4.769531 7.59375 4.253906 7.125 3.859375 6.5 L 2.78125 4.796875 C 2.375 4.160156 2.160156 3.476562 2.140625 2.75 C 2.128906 2.03125 2.285156 1.347656 2.609375 0.703125 C 2.941406 0.0664062 3.425781 -0.445312 4.0625 -0.84375 Z M 9.703125 0.671875 C 9.347656 0.109375 8.875 -0.304688 8.28125 -0.578125 C 7.695312 -0.847656 7.0625 -0.957031 6.375 -0.90625 C 5.695312 -0.863281 5.050781 -0.644531 4.4375 -0.25 C 3.820312 0.132812 3.351562 0.625 3.03125 1.21875 C 2.71875 1.8125 2.550781 2.429688 2.53125 3.078125 C 2.519531 3.734375 2.691406 4.34375 3.046875 4.90625 L 3.859375 6.171875 C 4.210938 6.734375 4.6875 7.148438 5.28125 7.421875 C 5.882812 7.691406 6.523438 7.800781 7.203125 7.75 C 7.890625 7.707031 8.53125 7.5 9.125 7.125 C 9.738281 6.726562 10.207031 6.226562 10.53125 5.625 C 10.863281 5.03125 11.03125 4.40625 11.03125 3.75 C 11.039062 3.101562 10.867188 2.5 10.515625 1.9375 Z M 17.3125 -2.375 L 16.5 -3.640625 C 16.144531 -4.203125 15.671875 -4.613281 15.078125 -4.875 C 14.484375 -5.144531 13.847656 -5.257812 13.171875 -5.21875 C 12.492188 -5.175781 11.851562 -4.960938 11.25 -4.578125 C 10.632812 -4.179688 10.160156 -3.6875 9.828125 -3.09375 C 9.503906 -2.5 9.335938 -1.878906 9.328125 -1.234375 C 9.328125 -0.585938 9.503906 0.015625 9.859375 0.578125 L 10.671875 1.84375 C 11.023438 2.40625 11.492188 2.820312 12.078125 3.09375 C 12.671875 3.375 13.304688 3.492188 13.984375 3.453125 C 14.671875 3.410156 15.320312 3.191406 15.9375 2.796875 C 16.539062 2.410156 17.003906 1.921875 17.328125 1.328125 C 17.648438 0.734375 17.816406 0.109375 17.828125 -0.546875 C 17.835938 -1.203125 17.664062 -1.8125 17.3125 -2.375 Z M 17.3125 -2.375 "/></g></g></g><g fill="#000000" fill-opacity="1"><g transform="translate(37.67719, 232.769806)"><g/></g></g><g fill="#000000" fill-opacity="1"><g transform="translate(46.700653, 243.227766)"><g><path d="M 1.890625 0.453125 C 1.804688 -0.765625 2.1875 -1.8125 3.03125 -2.6875 C 3.070312 -2.738281 3.117188 -2.738281 3.171875 -2.6875 L 3.5625 -2.328125 C 3.582031 -2.304688 3.59375 -2.273438 3.59375 -2.234375 C 3.582031 -2.203125 3.554688 -2.179688 3.515625 -2.171875 C 3.441406 -2.128906 3.28125 -2 3.03125 -1.78125 C 2.789062 -1.570312 2.5625 -1.28125 2.34375 -0.90625 C 2.132812 -0.53125 2.046875 -0.078125 2.078125 0.453125 C 2.078125 0.441406 2.078125 0.441406 2.078125 0.453125 L 2.09375 0.5 C 2.164062 1.5 2.5625 2.347656 3.28125 3.046875 C 3.320312 3.085938 3.363281 3.125 3.40625 3.15625 C 3.875 3.550781 4.421875 3.789062 5.046875 3.875 C 5.671875 3.96875 6.289062 3.910156 6.90625 3.703125 C 7.519531 3.492188 8.070312 3.140625 8.5625 2.640625 L 16.484375 -5.578125 C 16.609375 -5.710938 16.597656 -5.847656 16.453125 -5.984375 C 16.410156 -6.023438 16.414062 -6.070312 16.46875 -6.125 C 16.507812 -6.164062 16.550781 -6.164062 16.59375 -6.125 L 16.859375 -5.875 L 17.1875 -5.5625 L 17.453125 -5.296875 C 17.503906 -5.253906 17.507812 -5.210938 17.46875 -5.171875 C 17.414062 -5.117188 17.363281 -5.113281 17.3125 -5.15625 C 17.175781 -5.28125 17.046875 -5.273438 16.921875 -5.140625 L 8.9375 3.125 C 8.9375 3.125 8.9375 3.128906 8.9375 3.140625 C 8.425781 3.648438 7.828125 3.992188 7.140625 4.171875 C 6.460938 4.347656 5.785156 4.367188 5.109375 4.234375 C 4.441406 4.097656 3.832031 3.785156 3.28125 3.296875 C 3.28125 3.296875 3.28125 3.289062 3.28125 3.28125 C 3.238281 3.25 3.195312 3.210938 3.15625 3.171875 C 2.394531 2.429688 1.96875 1.539062 1.875 0.5 C 1.875 0.5 1.878906 0.492188 1.890625 0.484375 Z M 1.890625 0.453125 "/></g></g></g><g fill="#000000" fill-opacity="1"><g transform="translate(59.436599, 254.965259)"><g><path d="M 10.265625 -11.984375 C 10.210938 -12.023438 10.207031 -12.078125 10.25 -12.140625 C 10.289062 -12.179688 10.335938 -12.179688 10.390625 -12.140625 L 10.6875 -11.921875 L 11.0625 -11.65625 L 11.34375 -11.4375 C 11.40625 -11.394531 11.414062 -11.351562 11.375 -11.3125 C 11.332031 -11.25 11.28125 -11.238281 11.21875 -11.28125 C 11.082031 -11.382812 10.96875 -11.367188 10.875 -11.234375 L 4.578125 -2.625 C 4.085938 -1.957031 3.804688 -1.226562 3.734375 -0.4375 C 3.660156 0.34375 3.773438 1.097656 4.078125 1.828125 C 4.390625 2.566406 4.878906 3.179688 5.546875 3.671875 C 6.140625 4.097656 6.789062 4.363281 7.5 4.46875 C 8.21875 4.570312 8.914062 4.519531 9.59375 4.3125 C 10.269531 4.101562 10.867188 3.738281 11.390625 3.21875 C 11.390625 3.207031 11.390625 3.203125 11.390625 3.203125 C 11.460938 3.148438 11.515625 3.101562 11.546875 3.0625 C 11.546875 3.0625 11.550781 3.054688 11.5625 3.046875 C 11.613281 2.992188 11.660156 2.9375 11.703125 2.875 C 11.753906 2.800781 11.800781 2.738281 11.84375 2.6875 L 18.125 -5.90625 C 18.226562 -6.050781 18.203125 -6.179688 18.046875 -6.296875 C 17.992188 -6.328125 17.988281 -6.375 18.03125 -6.4375 C 18.070312 -6.476562 18.117188 -6.484375 18.171875 -6.453125 L 18.46875 -6.234375 L 18.78125 -6 C 18.832031 -5.957031 18.835938 -5.914062 18.796875 -5.875 C 18.753906 -5.8125 18.707031 -5.800781 18.65625 -5.84375 C 18.507812 -5.945312 18.382812 -5.925781 18.28125 -5.78125 L 12 2.8125 C 11.957031 2.875 11.910156 2.9375 11.859375 3 C 11.804688 3.082031 11.742188 3.140625 11.671875 3.171875 C 11.628906 3.234375 11.585938 3.296875 11.546875 3.359375 C 11.535156 3.347656 11.53125 3.34375 11.53125 3.34375 C 10.976562 3.925781 10.320312 4.332031 9.5625 4.5625 C 8.8125 4.800781 8.046875 4.863281 7.265625 4.75 C 6.492188 4.644531 5.78125 4.351562 5.125 3.875 C 4.394531 3.332031 3.859375 2.664062 3.515625 1.875 C 3.171875 1.082031 3.035156 0.257812 3.109375 -0.59375 C 3.191406 -1.457031 3.503906 -2.257812 4.046875 -3 L 10.328125 -11.59375 C 10.429688 -11.738281 10.410156 -11.867188 10.265625 -11.984375 Z M 10.265625 -11.984375 "/></g></g></g><g fill="#000000" fill-opacity="1"><g transform="translate(75.929964, 266.339594)"><g><path d="M 10.125 5.390625 C 10.09375 5.441406 10.046875 5.453125 9.984375 5.421875 L 1.15625 0.71875 C 1.09375 0.6875 1.078125 0.644531 1.109375 0.59375 C 1.140625 0.539062 1.1875 0.53125 1.25 0.5625 C 1.414062 0.644531 1.539062 0.601562 1.625 0.4375 L 8.734375 -12.890625 C 8.816406 -13.046875 8.773438 -13.164062 8.609375 -13.25 C 8.546875 -13.28125 8.53125 -13.328125 8.5625 -13.390625 C 8.59375 -13.441406 8.640625 -13.453125 8.703125 -13.421875 L 9.765625 -12.859375 C 9.804688 -12.835938 9.8125 -12.800781 9.78125 -12.75 C 9.75 -12.6875 9.710938 -12.664062 9.671875 -12.6875 C 9.492188 -12.78125 9.363281 -12.75 9.28125 -12.59375 L 2.046875 0.984375 C 3.171875 1.585938 4.15625 2.097656 5 2.515625 C 5.84375 2.941406 6.582031 3.285156 7.21875 3.546875 C 7.851562 3.816406 8.429688 4.019531 8.953125 4.15625 C 9.472656 4.289062 9.992188 4.367188 10.515625 4.390625 C 10.546875 4.390625 10.570312 4.40625 10.59375 4.4375 C 10.613281 4.457031 10.613281 4.484375 10.59375 4.515625 Z M 10.125 5.390625 "/></g></g></g><g fill="#000000" fill-opacity="1"><g transform="translate(92.706519, 274.709235)"><g><path d="M 5.6875 -14.671875 C 5.625 -14.691406 5.601562 -14.738281 5.625 -14.8125 C 5.644531 -14.863281 5.6875 -14.878906 5.75 -14.859375 L 6.109375 -14.734375 L 6.578125 -14.5625 L 6.921875 -14.421875 C 6.984375 -14.398438 7.003906 -14.363281 6.984375 -14.3125 C 6.960938 -14.238281 6.921875 -14.210938 6.859375 -14.234375 C 6.796875 -14.265625 6.75 -14.269531 6.71875 -14.25 C 6.664062 -14.207031 6.644531 -14.144531 6.65625 -14.0625 L 7.34375 -3.515625 L 14.734375 -11.0625 C 14.804688 -11.113281 14.84375 -11.171875 14.84375 -11.234375 C 14.820312 -11.265625 14.785156 -11.289062 14.734375 -11.3125 C 14.679688 -11.332031 14.664062 -11.378906 14.6875 -11.453125 C 14.707031 -11.503906 14.742188 -11.519531 14.796875 -11.5 L 15.140625 -11.375 C 15.148438 -11.375 15.210938 -11.351562 15.328125 -11.3125 C 15.441406 -11.269531 15.5 -11.25 15.5 -11.25 C 15.550781 -11.226562 15.566406 -11.191406 15.546875 -11.140625 C 15.523438 -11.066406 15.488281 -11.039062 15.4375 -11.0625 C 15.25 -11.125 15.066406 -11.078125 14.890625 -10.921875 L 7.296875 -3.1875 L 5.5 1.65625 C 5.4375 1.820312 5.5 1.9375 5.6875 2 C 5.738281 2.019531 5.753906 2.0625 5.734375 2.125 C 5.710938 2.1875 5.675781 2.207031 5.625 2.1875 L 4.484375 1.765625 C 4.421875 1.742188 4.398438 1.703125 4.421875 1.640625 C 4.441406 1.578125 4.484375 1.554688 4.546875 1.578125 C 4.722656 1.648438 4.84375 1.601562 4.90625 1.4375 L 6.703125 -3.40625 L 6 -14.21875 C 5.988281 -14.445312 5.882812 -14.597656 5.6875 -14.671875 Z M 5.6875 -14.671875 "/></g></g></g><g fill="#000000" fill-opacity="1"><g transform="translate(109.699866, 280.454124)"><g/></g></g><g fill="#000000" fill-opacity="1"><g transform="translate(123.20514, 283.488821)"><g><path d="M 10 -8.765625 C 10.59375 -9.003906 11.0625 -9.335938 11.40625 -9.765625 C 11.757812 -10.191406 11.96875 -10.671875 12.03125 -11.203125 C 12.101562 -11.765625 12 -12.300781 11.71875 -12.8125 C 11.4375 -13.332031 11.019531 -13.785156 10.46875 -14.171875 C 9.925781 -14.554688 9.28125 -14.820312 8.53125 -14.96875 C 8.53125 -14.96875 8.523438 -14.96875 8.515625 -14.96875 C 8.503906 -14.96875 8.5 -14.96875 8.5 -14.96875 C 8.445312 -14.96875 8.382812 -14.976562 8.3125 -15 C 8.207031 -15.007812 8.128906 -15.019531 8.078125 -15.03125 C 7.453125 -15.101562 6.832031 -15.085938 6.21875 -14.984375 C 5.445312 -14.796875 4.863281 -14.535156 4.46875 -14.203125 C 4.082031 -13.867188 3.820312 -13.5 3.6875 -13.09375 C 3.550781 -12.6875 3.488281 -12.304688 3.5 -11.953125 C 3.5 -11.929688 3.488281 -11.910156 3.46875 -11.890625 C 3.4375 -11.867188 3.40625 -11.859375 3.375 -11.859375 L 2.84375 -11.921875 C 2.78125 -11.929688 2.753906 -11.96875 2.765625 -12.03125 C 2.859375 -12.800781 3.210938 -13.46875 3.828125 -14.03125 C 4.453125 -14.601562 5.238281 -14.976562 6.1875 -15.15625 C 6.8125 -15.28125 7.453125 -15.304688 8.109375 -15.234375 C 8.160156 -15.222656 8.238281 -15.210938 8.34375 -15.203125 C 8.445312 -15.179688 8.523438 -15.164062 8.578125 -15.15625 C 9.398438 -14.988281 10.125 -14.691406 10.75 -14.265625 C 11.382812 -13.835938 11.859375 -13.328125 12.171875 -12.734375 C 12.492188 -12.140625 12.613281 -11.519531 12.53125 -10.875 C 12.457031 -10.269531 12.21875 -9.722656 11.8125 -9.234375 C 11.414062 -8.742188 10.882812 -8.351562 10.21875 -8.0625 L 7.03125 -6.6875 C 5.644531 -6.050781 4.503906 -5.128906 3.609375 -3.921875 C 2.722656 -2.722656 2.1875 -1.367188 2 0.140625 L 6.078125 0.625 C 7.003906 0.726562 7.769531 0.804688 8.375 0.859375 C 8.976562 0.910156 9.484375 0.921875 9.890625 0.890625 C 10.304688 0.867188 10.691406 0.800781 11.046875 0.6875 C 11.078125 0.65625 11.109375 0.660156 11.140625 0.703125 C 11.148438 0.710938 11.15625 0.738281 11.15625 0.78125 L 11.09375 1.3125 C 11.082031 1.375 11.046875 1.398438 10.984375 1.390625 L 6.046875 0.8125 C 6.046875 0.8125 5.90625 0.789062 5.625 0.75 C 5.34375 0.71875 4.992188 0.675781 4.578125 0.625 C 4.171875 0.582031 3.757812 0.535156 3.34375 0.484375 C 2.925781 0.441406 2.570312 0.398438 2.28125 0.359375 C 2 0.328125 1.859375 0.3125 1.859375 0.3125 L 1.40625 0.265625 C 1.34375 0.253906 1.316406 0.21875 1.328125 0.15625 C 1.460938 -0.945312 1.78125 -1.992188 2.28125 -2.984375 C 2.78125 -3.972656 3.429688 -4.847656 4.234375 -5.609375 C 5.035156 -6.378906 5.953125 -6.988281 6.984375 -7.4375 Z M 10 -8.765625 "/></g></g></g><g fill="#000000" fill-opacity="1"><g transform="translate(141.960971, 285.455197)"><g><path d="M 9 -0.171875 C 7.925781 -0.191406 6.914062 -0.398438 5.96875 -0.796875 C 5.03125 -1.203125 4.191406 -1.757812 3.453125 -2.46875 C 2.722656 -3.175781 2.144531 -4 1.71875 -4.9375 C 1.289062 -5.875 1.050781 -6.890625 1 -7.984375 C 0.945312 -9.066406 1.09375 -10.09375 1.4375 -11.0625 C 1.789062 -12.03125 2.300781 -12.898438 2.96875 -13.671875 C 3.632812 -14.441406 4.421875 -15.066406 5.328125 -15.546875 C 6.242188 -16.023438 7.226562 -16.320312 8.28125 -16.4375 C 8.300781 -16.4375 8.316406 -16.4375 8.328125 -16.4375 C 8.335938 -16.4375 8.347656 -16.4375 8.359375 -16.4375 L 8.4375 -16.453125 C 8.46875 -16.453125 8.492188 -16.453125 8.515625 -16.453125 C 8.535156 -16.460938 8.550781 -16.46875 8.5625 -16.46875 C 8.5625 -16.46875 8.566406 -16.46875 8.578125 -16.46875 L 8.78125 -16.46875 L 9.203125 -16.484375 C 10.273438 -16.472656 11.289062 -16.265625 12.25 -15.859375 C 13.207031 -15.460938 14.050781 -14.90625 14.78125 -14.1875 C 15.519531 -13.476562 16.109375 -12.65625 16.546875 -11.71875 C 16.984375 -10.78125 17.226562 -9.769531 17.28125 -8.6875 C 17.320312 -7.601562 17.164062 -6.570312 16.8125 -5.59375 C 16.457031 -4.625 15.945312 -3.75 15.28125 -2.96875 C 14.613281 -2.195312 13.816406 -1.566406 12.890625 -1.078125 C 11.972656 -0.597656 10.984375 -0.3125 9.921875 -0.21875 C 9.921875 -0.21875 9.910156 -0.21875 9.890625 -0.21875 L 9.5 -0.1875 L 9.296875 -0.1875 C 9.285156 -0.1875 9.28125 -0.1875 9.28125 -0.1875 C 9.269531 -0.1875 9.253906 -0.1875 9.234375 -0.1875 C 9.210938 -0.1875 9.1875 -0.1875 9.15625 -0.1875 L 9.078125 -0.171875 C 9.066406 -0.171875 9.054688 -0.171875 9.046875 -0.171875 C 9.035156 -0.171875 9.019531 -0.171875 9 -0.171875 Z M 9.1875 -16.296875 L 8.796875 -16.265625 L 8.5 -16.265625 C 8.40625 -16.242188 8.328125 -16.234375 8.265625 -16.234375 C 8.222656 -16.234375 8.179688 -16.226562 8.140625 -16.21875 C 8.066406 -16.207031 7.988281 -16.191406 7.90625 -16.171875 C 7.851562 -16.171875 7.800781 -16.164062 7.75 -16.15625 C 7.695312 -16.132812 7.640625 -16.125 7.578125 -16.125 C 7.484375 -16.113281 7.40625 -16.085938 7.34375 -16.046875 C 7.332031 -16.046875 7.304688 -16.046875 7.265625 -16.046875 C 6.179688 -15.753906 5.222656 -15.234375 4.390625 -14.484375 C 3.554688 -13.742188 2.898438 -12.84375 2.421875 -11.78125 C 1.941406 -10.726562 1.695312 -9.597656 1.6875 -8.390625 C 1.6875 -8.273438 1.691406 -8.148438 1.703125 -8.015625 C 1.710938 -7.878906 1.71875 -7.75 1.71875 -7.625 C 1.832031 -6.40625 2.175781 -5.289062 2.75 -4.28125 C 3.320312 -3.269531 4.0625 -2.429688 4.96875 -1.765625 C 5.875 -1.109375 6.878906 -0.679688 7.984375 -0.484375 C 8.003906 -0.472656 8.019531 -0.46875 8.03125 -0.46875 C 8.09375 -0.457031 8.175781 -0.445312 8.28125 -0.4375 C 8.332031 -0.425781 8.378906 -0.414062 8.421875 -0.40625 C 8.472656 -0.414062 8.535156 -0.410156 8.609375 -0.390625 C 8.679688 -0.378906 8.753906 -0.378906 8.828125 -0.390625 C 8.867188 -0.390625 8.910156 -0.382812 8.953125 -0.375 C 9.015625 -0.375 9.09375 -0.378906 9.1875 -0.390625 L 9.484375 -0.359375 L 9.875 -0.421875 C 11.039062 -0.523438 12.085938 -0.882812 13.015625 -1.5 C 13.953125 -2.113281 14.722656 -2.90625 15.328125 -3.875 C 15.941406 -4.851562 16.335938 -5.929688 16.515625 -7.109375 C 16.585938 -7.628906 16.613281 -8.144531 16.59375 -8.65625 C 16.550781 -9.695312 16.328125 -10.675781 15.921875 -11.59375 C 15.515625 -12.507812 14.972656 -13.316406 14.296875 -14.015625 C 13.628906 -14.722656 12.859375 -15.273438 11.984375 -15.671875 C 11.109375 -16.066406 10.175781 -16.273438 9.1875 -16.296875 Z M 9.1875 -16.296875 "/></g></g></g><g fill="#000000" fill-opacity="1"><g transform="translate(167.273827, 283.571244)"><g><path d="M 6.703125 -11.484375 C 7.179688 -11.898438 7.519531 -12.363281 7.71875 -12.875 C 7.925781 -13.394531 7.972656 -13.921875 7.859375 -14.453125 C 7.753906 -15.003906 7.484375 -15.476562 7.046875 -15.875 C 6.617188 -16.269531 6.078125 -16.5625 5.421875 -16.75 C 4.773438 -16.945312 4.082031 -17 3.34375 -16.90625 C 3.34375 -16.90625 3.335938 -16.898438 3.328125 -16.890625 C 3.316406 -16.890625 3.3125 -16.890625 3.3125 -16.890625 C 3.257812 -16.878906 3.195312 -16.875 3.125 -16.875 C 3.019531 -16.851562 2.945312 -16.835938 2.90625 -16.828125 C 2.28125 -16.691406 1.695312 -16.476562 1.15625 -16.1875 C 0.476562 -15.769531 0.0078125 -15.335938 -0.25 -14.890625 C -0.519531 -14.441406 -0.65625 -14.003906 -0.65625 -13.578125 C -0.65625 -13.160156 -0.59375 -12.785156 -0.46875 -12.453125 C -0.46875 -12.429688 -0.472656 -12.40625 -0.484375 -12.375 C -0.503906 -12.34375 -0.53125 -12.328125 -0.5625 -12.328125 L -1.078125 -12.21875 C -1.140625 -12.207031 -1.175781 -12.234375 -1.1875 -12.296875 C -1.34375 -13.054688 -1.21875 -13.800781 -0.8125 -14.53125 C -0.40625 -15.257812 0.210938 -15.863281 1.046875 -16.34375 C 1.597656 -16.65625 2.203125 -16.878906 2.859375 -17.015625 C 2.898438 -17.023438 2.972656 -17.039062 3.078125 -17.0625 C 3.191406 -17.070312 3.273438 -17.082031 3.328125 -17.09375 C 4.160156 -17.195312 4.941406 -17.144531 5.671875 -16.9375 C 6.410156 -16.738281 7.019531 -16.40625 7.5 -15.9375 C 7.988281 -15.476562 8.300781 -14.929688 8.4375 -14.296875 C 8.5625 -13.703125 8.507812 -13.101562 8.28125 -12.5 C 8.0625 -11.90625 7.679688 -11.367188 7.140625 -10.890625 L 4.5625 -8.578125 C 3.4375 -7.535156 2.640625 -6.300781 2.171875 -4.875 C 1.710938 -3.445312 1.632812 -1.988281 1.9375 -0.5 L 5.96875 -1.34375 C 6.875 -1.53125 7.617188 -1.695312 8.203125 -1.84375 C 8.796875 -1.988281 9.285156 -2.132812 9.671875 -2.28125 C 10.054688 -2.425781 10.394531 -2.613281 10.6875 -2.84375 C 10.707031 -2.882812 10.738281 -2.890625 10.78125 -2.859375 C 10.800781 -2.859375 10.816406 -2.835938 10.828125 -2.796875 L 10.9375 -2.28125 C 10.945312 -2.21875 10.921875 -2.175781 10.859375 -2.15625 L 6 -1.15625 C 6 -1.15625 5.859375 -1.125 5.578125 -1.0625 C 5.296875 -1 4.953125 -0.925781 4.546875 -0.84375 C 4.148438 -0.757812 3.742188 -0.675781 3.328125 -0.59375 C 2.910156 -0.507812 2.5625 -0.4375 2.28125 -0.375 C 2 -0.320312 1.859375 -0.296875 1.859375 -0.296875 L 1.421875 -0.203125 C 1.359375 -0.191406 1.320312 -0.21875 1.3125 -0.28125 C 1.082031 -1.375 1.046875 -2.46875 1.203125 -3.5625 C 1.367188 -4.65625 1.710938 -5.691406 2.234375 -6.671875 C 2.753906 -7.648438 3.429688 -8.519531 4.265625 -9.28125 Z M 6.703125 -11.484375 "/></g></g></g><g fill="#000000" fill-opacity="1"><g transform="translate(185.813219, 279.263361)"><g><path d="M 5.34375 -1.703125 C 4.632812 -1.441406 3.925781 -1.378906 3.21875 -1.515625 C 2.519531 -1.660156 1.890625 -1.960938 1.328125 -2.421875 C 0.765625 -2.878906 0.351562 -3.460938 0.09375 -4.171875 L -2.640625 -11.765625 C -2.890625 -12.472656 -2.945312 -13.179688 -2.8125 -13.890625 C -2.675781 -14.597656 -2.378906 -15.234375 -1.921875 -15.796875 C -1.472656 -16.359375 -0.894531 -16.769531 -0.1875 -17.03125 L 0.75 -17.359375 C 0.75 -17.359375 0.753906 -17.363281 0.765625 -17.375 C 0.847656 -17.40625 0.910156 -17.425781 0.953125 -17.4375 C 1.566406 -17.65625 2.191406 -17.773438 2.828125 -17.796875 C 3.804688 -17.835938 4.65625 -17.648438 5.375 -17.234375 C 6.101562 -16.828125 6.601562 -16.253906 6.875 -15.515625 C 6.894531 -15.460938 6.882812 -15.425781 6.84375 -15.40625 L 6.34375 -15.234375 C 6.300781 -15.210938 6.269531 -15.210938 6.25 -15.234375 C 6.207031 -15.242188 6.1875 -15.257812 6.1875 -15.28125 C 6.125 -15.632812 5.984375 -15.992188 5.765625 -16.359375 C 5.546875 -16.734375 5.203125 -17.035156 4.734375 -17.265625 C 4.273438 -17.492188 3.644531 -17.613281 2.84375 -17.625 C 2.226562 -17.59375 1.617188 -17.46875 1.015625 -17.25 C 0.960938 -17.226562 0.894531 -17.203125 0.8125 -17.171875 C 0.8125 -17.171875 0.804688 -17.171875 0.796875 -17.171875 L 0.09375 -16.921875 C -0.519531 -16.691406 -1.023438 -16.316406 -1.421875 -15.796875 C -1.816406 -15.285156 -2.0625 -14.691406 -2.15625 -14.015625 C -2.257812 -13.347656 -2.191406 -12.679688 -1.953125 -12.015625 L 0 -6.609375 C 0.132812 -7.234375 0.425781 -7.800781 0.875 -8.3125 C 1.332031 -8.832031 1.890625 -9.210938 2.546875 -9.453125 L 4.4375 -10.125 C 5.125 -10.375 5.820312 -10.425781 6.53125 -10.28125 C 7.238281 -10.144531 7.867188 -9.84375 8.421875 -9.375 C 8.984375 -8.914062 9.390625 -8.328125 9.640625 -7.609375 C 9.898438 -6.898438 9.960938 -6.191406 9.828125 -5.484375 C 9.703125 -4.773438 9.410156 -4.140625 8.953125 -3.578125 C 8.492188 -3.023438 7.921875 -2.625 7.234375 -2.375 Z M 2.828125 -9.34375 C 2.210938 -9.113281 1.707031 -8.742188 1.3125 -8.234375 C 0.914062 -7.722656 0.664062 -7.128906 0.5625 -6.453125 C 0.46875 -5.785156 0.539062 -5.109375 0.78125 -4.421875 C 1.03125 -3.734375 1.40625 -3.164062 1.90625 -2.71875 C 2.414062 -2.28125 2.988281 -1.984375 3.625 -1.828125 C 4.257812 -1.671875 4.882812 -1.707031 5.5 -1.9375 L 6.921875 -2.453125 C 7.535156 -2.671875 8.039062 -3.039062 8.4375 -3.5625 C 8.832031 -4.09375 9.082031 -4.691406 9.1875 -5.359375 C 9.300781 -6.035156 9.234375 -6.707031 8.984375 -7.375 C 8.742188 -8.0625 8.363281 -8.628906 7.84375 -9.078125 C 7.332031 -9.535156 6.757812 -9.832031 6.125 -9.96875 C 5.488281 -10.113281 4.863281 -10.078125 4.25 -9.859375 Z M 2.828125 -9.34375 "/></g></g></g><g fill="#fff9f1" fill-opacity="1"><g transform="translate(105.631543, 150.494422)"><g><path d="M 6.214844 -2.292969 C 0.585938 -7.347656 -2.230469 -13.667969 -2.230469 -21.25 C -2.230469 -22.496094 -1.804688 -23.542969 -0.960938 -24.386719 C -0.117188 -25.234375 0.929688 -25.65625 2.175781 -25.65625 L 4.976562 -25.65625 C 5.691406 -25.65625 6.355469 -25.503906 6.972656 -25.195312 C 7.816406 -24.773438 8.445312 -24.140625 8.867188 -23.300781 C 9.417969 -22.203125 9.488281 -21.039062 9.078125 -19.8125 C 9.039062 -19.699219 8.964844 -18.933594 8.851562 -17.519531 C 8.746094 -16.21875 8.917969 -14.691406 9.367188 -12.929688 C 9.726562 -11.515625 10.648438 -10.136719 12.136719 -8.796875 L 19.667969 -2.019531 L 9.484375 -2.019531 L 9.484375 -9.796875 L 11.941406 -9.796875 L 13.117188 -7.441406 L 9.640625 -5.703125 L 12.203125 -8.625 C 15.410156 -5.8125 19.152344 -4.40625 23.429688 -4.40625 L 24.359375 -4.40625 L 24.359375 -0.519531 L 24.113281 -4.398438 C 26.621094 -4.558594 28.90625 -5.375 30.964844 -6.84375 C 33.105469 -8.375 34.8125 -10.390625 36.078125 -12.898438 C 37.355469 -15.421875 37.992188 -18.207031 37.992188 -21.25 L 37.992188 -81.167969 C 37.992188 -80.527344 38.273438 -79.941406 38.839844 -79.414062 C 39.328125 -78.960938 39.820312 -78.730469 40.324219 -78.730469 C 38.941406 -78.730469 37.824219 -79.261719 36.976562 -80.320312 C 36.339844 -81.117188 36.023438 -82.054688 36.023438 -83.136719 C 36.023438 -84.21875 36.339844 -85.160156 36.976562 -85.957031 C 37.824219 -87.015625 38.941406 -87.542969 40.324219 -87.542969 L 46.648438 -87.542969 C 47.894531 -87.542969 48.941406 -87.121094 49.785156 -86.277344 C 50.632812 -85.429688 51.054688 -84.382812 51.054688 -83.136719 C 51.054688 -81.890625 50.632812 -80.84375 49.785156 -80 C 48.941406 -79.15625 47.894531 -78.730469 46.648438 -78.730469 C 47.238281 -78.730469 47.792969 -78.992188 48.308594 -79.507812 C 48.824219 -80.023438 49.085938 -80.578125 49.085938 -81.167969 L 49.085938 -20.734375 C 49.003906 -16.1875 47.832031 -12.042969 45.570312 -8.304688 C 43.351562 -4.632812 40.445312 -1.667969 36.847656 0.59375 C 33.207031 2.886719 29.148438 4.15625 24.675781 4.398438 L 24.570312 4.40625 L 23.429688 4.40625 C 16.917969 4.40625 11.222656 2.25 6.339844 -2.0625 L 5.027344 -3.222656 L 5.027344 -5.078125 L 8.914062 -5.078125 L 6.167969 -2.332031 L 6.0625 -2.433594 L 8.8125 -5.183594 Z M 11.488281 -8.003906 L 12.800781 -6.691406 L 12.800781 -4.976562 L 8.914062 -4.976562 L 11.488281 -7.890625 C 14.898438 -4.875 18.878906 -3.371094 23.429688 -3.371094 L 24.464844 -3.371094 L 24.464844 0.519531 L 24.253906 -3.363281 C 27.382812 -3.535156 30.203125 -4.410156 32.707031 -5.984375 C 35.265625 -7.59375 37.332031 -9.707031 38.914062 -12.324219 C 40.457031 -14.875 41.253906 -17.675781 41.308594 -20.734375 L 41.308594 -81.167969 C 41.308594 -82.726562 41.808594 -84.003906 42.8125 -85.003906 C 43.8125 -86.007812 45.089844 -86.507812 46.648438 -86.507812 C 45.746094 -86.507812 44.960938 -86.171875 44.289062 -85.496094 C 43.617188 -84.824219 43.277344 -84.039062 43.277344 -83.136719 C 43.277344 -82.238281 43.617188 -81.449219 44.289062 -80.777344 C 44.960938 -80.105469 45.746094 -79.769531 46.648438 -79.769531 L 40.324219 -79.769531 C 41.433594 -79.769531 42.339844 -80.210938 43.050781 -81.097656 C 43.546875 -81.722656 43.796875 -82.402344 43.796875 -83.136719 C 43.796875 -83.875 43.546875 -84.554688 43.050781 -85.175781 C 42.339844 -86.0625 41.433594 -86.507812 40.324219 -86.507812 C 41.863281 -86.507812 43.136719 -86.039062 44.144531 -85.097656 C 45.226562 -84.089844 45.765625 -82.777344 45.765625 -81.167969 L 45.765625 -21.25 C 45.765625 -16.96875 44.851562 -13.015625 43.015625 -9.390625 C 41.175781 -5.746094 38.664062 -2.789062 35.484375 -0.515625 C 32.21875 1.8125 28.59375 3.105469 24.609375 3.363281 L 24.484375 3.371094 L 23.429688 3.371094 C 17.199219 3.371094 11.75 1.320312 7.078125 -2.777344 L 6.503906 -3.28125 L 6.058594 -4.171875 L 9.535156 -5.910156 L 9.535156 -2.019531 L 9.484375 -2.019531 C 8.96875 -2.019531 8.472656 -2.121094 7.996094 -2.316406 C 7.519531 -2.515625 7.101562 -2.796875 6.734375 -3.160156 C 6.371094 -3.523438 6.089844 -3.945312 5.894531 -4.421875 C 5.695312 -4.898438 5.597656 -5.394531 5.597656 -5.910156 C 5.597656 -6.425781 5.695312 -6.921875 5.894531 -7.398438 C 6.089844 -7.871094 6.371094 -8.292969 6.734375 -8.65625 C 7.101562 -9.023438 7.519531 -9.304688 7.996094 -9.5 C 8.472656 -9.699219 8.96875 -9.796875 9.484375 -9.796875 L 9.535156 -9.796875 L 9.535156 -5.910156 L 6.9375 -3.019531 C 4.277344 -5.410156 2.578125 -8.078125 1.828125 -11.015625 C 1.171875 -13.609375 0.929688 -15.984375 1.101562 -18.140625 C 1.265625 -20.183594 1.464844 -21.558594 1.703125 -22.273438 C 1.433594 -21.460938 1.503906 -20.644531 1.914062 -19.824219 C 2.265625 -19.121094 2.792969 -18.59375 3.496094 -18.238281 C 3.972656 -18 4.46875 -17.882812 4.976562 -17.882812 L 2.175781 -17.882812 C 3.078125 -17.882812 3.863281 -18.21875 4.539062 -18.890625 C 5.210938 -19.5625 5.546875 -20.351562 5.546875 -21.25 C 5.546875 -15.980469 7.5 -11.585938 11.410156 -8.074219 Z M 11.488281 -8.003906 "/></g></g></g><g fill="#000000" fill-opacity="1"><g transform="translate(105.631543, 150.494422)"><g><path d="M 8.8125 -5.1875 C 4.039062 -9.46875 1.65625 -14.820312 1.65625 -21.25 C 1.65625 -21.59375 1.828125 -21.765625 2.171875 -21.765625 L 4.96875 -21.765625 C 5.175781 -21.765625 5.316406 -21.695312 5.390625 -21.5625 C 5.460938 -21.425781 5.460938 -21.253906 5.390625 -21.046875 C 5.253906 -20.628906 5.113281 -19.554688 4.96875 -17.828125 C 4.832031 -16.097656 5.039062 -14.144531 5.59375 -11.96875 C 6.144531 -9.789062 7.457031 -7.769531 9.53125 -5.90625 C 9.46875 -5.90625 9.46875 -5.90625 9.53125 -5.90625 L 9.640625 -5.703125 C 13.578125 -2.242188 18.171875 -0.515625 23.421875 -0.515625 C 23.765625 -0.515625 24.078125 -0.515625 24.359375 -0.515625 C 27.609375 -0.722656 30.5625 -1.773438 33.21875 -3.671875 C 35.882812 -5.578125 37.992188 -8.066406 39.546875 -11.140625 C 41.097656 -14.210938 41.875 -17.582031 41.875 -21.25 L 41.875 -81.15625 C 41.875 -82.125 41.359375 -82.609375 40.328125 -82.609375 C 40.046875 -82.609375 39.90625 -82.78125 39.90625 -83.125 C 39.90625 -83.476562 40.046875 -83.65625 40.328125 -83.65625 L 46.640625 -83.65625 C 46.984375 -83.65625 47.15625 -83.476562 47.15625 -83.125 C 47.15625 -82.78125 46.984375 -82.609375 46.640625 -82.609375 C 45.671875 -82.609375 45.1875 -82.125 45.1875 -81.15625 L 45.1875 -20.828125 C 45.1875 -20.828125 45.1875 -20.796875 45.1875 -20.734375 C 45.125 -16.929688 44.140625 -13.457031 42.234375 -10.3125 C 40.335938 -7.164062 37.847656 -4.625 34.765625 -2.6875 C 31.691406 -0.757812 28.257812 0.304688 24.46875 0.515625 C 24.46875 0.515625 24.429688 0.515625 24.359375 0.515625 C 24.078125 0.515625 23.765625 0.515625 23.421875 0.515625 C 17.898438 0.515625 13.066406 -1.3125 8.921875 -4.96875 C 8.921875 -4.96875 8.921875 -5.003906 8.921875 -5.078125 Z M 8.8125 -5.1875 "/></g></g></g><g fill="#fff9f1" fill-opacity="1"><g transform="translate(127.086653, 213.325509)"><g><path d="M 7.152344 -4.40625 C 6.5625 -4.40625 6.007812 -4.148438 5.492188 -3.628906 C 4.976562 -3.113281 4.714844 -2.558594 4.714844 -1.96875 L 4.714844 -81.167969 C 4.714844 -80.578125 4.976562 -80.023438 5.492188 -79.507812 C 6.007812 -78.992188 6.5625 -78.730469 7.152344 -78.730469 C 5.90625 -78.730469 4.859375 -79.15625 4.015625 -80 C 3.167969 -80.84375 2.746094 -81.890625 2.746094 -83.136719 C 2.746094 -84.382812 3.167969 -85.429688 4.015625 -86.277344 C 4.859375 -87.121094 5.90625 -87.542969 7.152344 -87.542969 L 13.476562 -87.542969 C 14.859375 -87.542969 15.976562 -87.015625 16.824219 -85.957031 C 17.460938 -85.160156 17.777344 -84.21875 17.777344 -83.136719 C 17.777344 -82.054688 17.460938 -81.117188 16.824219 -80.320312 C 15.976562 -79.261719 14.859375 -78.730469 13.476562 -78.730469 C 13.980469 -78.730469 14.476562 -78.960938 14.960938 -79.414062 C 15.527344 -79.941406 15.808594 -80.527344 15.808594 -81.167969 L 15.808594 -37.527344 C 15.808594 -37.386719 15.84375 -37.285156 15.910156 -37.21875 C 16.019531 -37.113281 16.175781 -37.058594 16.378906 -37.058594 C 16.535156 -37.058594 16.632812 -37.070312 16.667969 -37.089844 L 16.660156 -37.085938 C 16.695312 -37.121094 16.734375 -37.171875 16.777344 -37.246094 L 45.027344 -83.570312 L 45.070312 -83.636719 C 44.941406 -83.441406 44.839844 -83.183594 44.769531 -82.867188 C 44.566406 -81.941406 44.734375 -81.070312 45.28125 -80.253906 L 45.144531 -80.457031 L 45.035156 -80.671875 C 45.441406 -79.859375 46.058594 -79.289062 46.890625 -78.957031 C 47.265625 -78.808594 47.636719 -78.730469 47.996094 -78.730469 C 46.75 -78.730469 45.703125 -79.15625 44.859375 -80 C 44.011719 -80.84375 43.589844 -81.890625 43.589844 -83.136719 C 43.589844 -84.382812 44.011719 -85.429688 44.859375 -86.277344 C 45.703125 -87.121094 46.75 -87.542969 47.996094 -87.542969 L 51.933594 -87.542969 C 53.320312 -87.542969 54.433594 -87.015625 55.28125 -85.957031 C 55.917969 -85.160156 56.238281 -84.21875 56.238281 -83.136719 C 56.238281 -82.054688 55.917969 -81.117188 55.28125 -80.320312 C 54.433594 -79.261719 53.320312 -78.730469 51.933594 -78.730469 C 52.09375 -78.730469 52.242188 -78.773438 52.386719 -78.859375 C 52.425781 -78.882812 52.449219 -78.898438 52.460938 -78.910156 C 52.425781 -78.878906 52.386719 -78.828125 52.339844 -78.757812 L 49.136719 -80.960938 L 52.457031 -78.9375 L 32.449219 -46.078125 L 29.128906 -48.101562 L 32.5 -50.035156 L 57.277344 -6.914062 C 57.742188 -6.066406 58.277344 -5.449219 58.882812 -5.058594 C 59.476562 -4.675781 60.21875 -4.457031 61.109375 -4.398438 L 60.851562 -0.519531 L 60.851562 -4.40625 C 62.097656 -4.40625 63.140625 -3.984375 63.988281 -3.136719 C 64.832031 -2.292969 65.257812 -1.246094 65.257812 0 C 65.257812 1.246094 64.832031 2.292969 63.988281 3.136719 C 63.140625 3.984375 62.097656 4.40625 60.851562 4.40625 L 60.742188 4.40625 L 60.632812 4.398438 C 57.488281 4.226562 54.601562 3.324219 51.96875 1.703125 C 49.339844 0.0820312 47.242188 -2.082031 45.671875 -4.785156 L 23.597656 -42.507812 L 26.953125 -44.472656 L 30.277344 -42.457031 L 24.34375 -32.671875 L 24.316406 -32.632812 C 23.414062 -31.214844 22.285156 -30.132812 20.9375 -29.386719 C 19.570312 -28.625 18.050781 -28.246094 16.378906 -28.246094 C 13.191406 -28.246094 10.660156 -29.542969 8.777344 -32.128906 L 11.921875 -34.417969 L 15.808594 -34.417969 L 15.808594 -1.96875 C 15.808594 -2.613281 15.527344 -3.195312 14.960938 -3.722656 C 14.476562 -4.179688 13.980469 -4.40625 13.476562 -4.40625 C 14.859375 -4.40625 15.976562 -3.875 16.824219 -2.816406 C 17.460938 -2.019531 17.777344 -1.082031 17.777344 0 C 17.777344 1.082031 17.460938 2.019531 16.824219 2.816406 C 15.976562 3.875 14.859375 4.40625 13.476562 4.40625 L 7.152344 4.40625 C 5.90625 4.40625 4.859375 3.984375 4.015625 3.136719 C 3.167969 2.292969 2.746094 1.246094 2.746094 0 C 2.746094 -1.246094 3.167969 -2.292969 4.015625 -3.136719 C 4.859375 -3.984375 5.90625 -4.40625 7.152344 -4.40625 Z M 7.152344 3.371094 C 8.054688 3.371094 8.839844 3.03125 9.511719 2.359375 C 10.1875 1.6875 10.523438 0.902344 10.523438 0 C 10.523438 -0.902344 10.1875 -1.6875 9.511719 -2.359375 C 8.839844 -3.03125 8.054688 -3.371094 7.152344 -3.371094 L 13.476562 -3.371094 C 12.367188 -3.371094 11.460938 -2.925781 10.75 -2.039062 C 10.253906 -1.417969 10.003906 -0.738281 10.003906 0 C 10.003906 0.738281 10.253906 1.417969 10.75 2.039062 C 11.460938 2.925781 12.367188 3.371094 13.476562 3.371094 C 11.9375 3.371094 10.664062 2.898438 9.65625 1.960938 C 8.574219 0.949219 8.035156 -0.359375 8.035156 -1.96875 L 8.035156 -46.371094 L 15.066406 -36.703125 C 15.253906 -36.445312 15.445312 -36.265625 15.636719 -36.167969 C 15.824219 -36.070312 16.070312 -36.023438 16.378906 -36.023438 C 16.710938 -36.023438 16.96875 -36.074219 17.160156 -36.183594 C 17.367188 -36.296875 17.570312 -36.511719 17.769531 -36.824219 L 21.042969 -34.726562 L 17.71875 -36.742188 L 27.011719 -52.066406 L 52.394531 -8.691406 C 53.3125 -7.109375 54.53125 -5.851562 56.050781 -4.914062 C 57.5625 -3.984375 59.234375 -3.464844 61.066406 -3.363281 L 60.851562 0.519531 L 60.851562 -3.371094 C 59.949219 -3.371094 59.164062 -3.03125 58.488281 -2.359375 C 57.816406 -1.6875 57.480469 -0.902344 57.480469 0 C 57.480469 0.902344 57.816406 1.6875 58.488281 2.359375 C 59.164062 3.03125 59.949219 3.371094 60.851562 3.371094 L 60.722656 3.371094 L 60.589844 3.359375 C 58.371094 3.210938 56.402344 2.585938 54.679688 1.484375 C 52.96875 0.386719 51.585938 -1.121094 50.535156 -3.039062 L 24.613281 -48.15625 L 45.871094 -83.074219 L 45.933594 -83.164062 C 46.636719 -84.1875 47.464844 -84.980469 48.425781 -85.550781 C 49.5 -86.1875 50.671875 -86.507812 51.933594 -86.507812 C 50.828125 -86.507812 49.917969 -86.0625 49.210938 -85.175781 C 48.710938 -84.554688 48.460938 -83.875 48.460938 -83.136719 C 48.460938 -82.402344 48.710938 -81.722656 49.210938 -81.097656 C 49.917969 -80.210938 50.828125 -79.769531 51.933594 -79.769531 L 47.996094 -79.769531 C 48.898438 -79.769531 49.683594 -80.105469 50.355469 -80.777344 C 51.027344 -81.449219 51.367188 -82.238281 51.367188 -83.136719 C 51.367188 -84.039062 51.027344 -84.824219 50.355469 -85.496094 C 49.683594 -86.171875 48.898438 -86.507812 47.996094 -86.507812 C 48.632812 -86.507812 49.226562 -86.398438 49.777344 -86.175781 C 50.777344 -85.777344 51.515625 -85.101562 51.992188 -84.152344 L 48.515625 -82.414062 L 51.75 -84.570312 C 52.429688 -83.542969 52.636719 -82.414062 52.359375 -81.179688 C 52.222656 -80.550781 51.949219 -79.933594 51.542969 -79.324219 L 48.308594 -81.480469 L 51.625 -79.453125 L 23.445312 -33.246094 C 22.671875 -31.960938 21.671875 -30.976562 20.445312 -30.292969 C 19.234375 -29.621094 17.878906 -29.285156 16.378906 -29.285156 C 14.09375 -29.285156 12.140625 -30.058594 10.523438 -31.613281 C 8.863281 -33.207031 8.035156 -35.175781 8.035156 -37.527344 L 8.035156 -81.167969 C 8.035156 -82.777344 8.574219 -84.089844 9.65625 -85.097656 C 10.664062 -86.039062 11.9375 -86.507812 13.476562 -86.507812 C 12.367188 -86.507812 11.460938 -86.0625 10.75 -85.175781 C 10.253906 -84.554688 10.003906 -83.875 10.003906 -83.136719 C 10.003906 -82.402344 10.253906 -81.722656 10.75 -81.097656 C 11.460938 -80.210938 12.367188 -79.769531 13.476562 -79.769531 L 7.152344 -79.769531 C 8.054688 -79.769531 8.839844 -80.105469 9.511719 -80.777344 C 10.1875 -81.449219 10.523438 -82.238281 10.523438 -83.136719 C 10.523438 -84.039062 10.1875 -84.824219 9.511719 -85.496094 C 8.839844 -86.171875 8.054688 -86.507812 7.152344 -86.507812 C 8.710938 -86.507812 9.988281 -86.007812 10.988281 -85.003906 C 11.992188 -84.003906 12.492188 -82.726562 12.492188 -81.167969 L 12.492188 -1.96875 C 12.492188 -0.414062 11.992188 0.867188 10.988281 1.867188 C 9.988281 2.867188 8.710938 3.371094 7.152344 3.371094 Z M 7.152344 3.371094 "/></g></g></g><g fill="#000000" fill-opacity="1"><g transform="translate(127.086653, 213.325509)"><g><path d="M 7.15625 -0.515625 C 8.125 -0.515625 8.609375 -1 8.609375 -1.96875 L 8.609375 -81.15625 C 8.609375 -82.125 8.125 -82.609375 7.15625 -82.609375 C 6.8125 -82.609375 6.640625 -82.78125 6.640625 -83.125 C 6.640625 -83.476562 6.8125 -83.65625 7.15625 -83.65625 L 13.46875 -83.65625 C 13.75 -83.65625 13.890625 -83.476562 13.890625 -83.125 C 13.890625 -82.78125 13.75 -82.609375 13.46875 -82.609375 C 12.4375 -82.609375 11.921875 -82.125 11.921875 -81.15625 L 11.921875 -37.53125 C 11.921875 -36.28125 12.351562 -35.238281 13.21875 -34.40625 C 14.082031 -33.582031 15.132812 -33.171875 16.375 -33.171875 C 18.03125 -33.171875 19.273438 -33.863281 20.109375 -35.25 L 48.296875 -81.46875 C 48.578125 -81.882812 48.648438 -82.195312 48.515625 -82.40625 C 48.441406 -82.539062 48.269531 -82.609375 48 -82.609375 C 47.644531 -82.609375 47.46875 -82.78125 47.46875 -83.125 C 47.46875 -83.476562 47.644531 -83.65625 48 -83.65625 L 51.9375 -83.65625 C 52.207031 -83.65625 52.34375 -83.476562 52.34375 -83.125 C 52.34375 -82.78125 52.207031 -82.609375 51.9375 -82.609375 C 50.820312 -82.609375 49.890625 -82.054688 49.140625 -80.953125 L 29.125 -48.09375 L 53.90625 -4.96875 C 55.425781 -2.207031 57.738281 -0.722656 60.84375 -0.515625 C 61.1875 -0.515625 61.359375 -0.34375 61.359375 0 C 61.359375 0.34375 61.1875 0.515625 60.84375 0.515625 C 58.351562 0.378906 56.070312 -0.328125 54 -1.609375 C 51.925781 -2.890625 50.269531 -4.597656 49.03125 -6.734375 L 26.953125 -44.46875 L 21.046875 -34.71875 C 19.941406 -33 18.382812 -32.140625 16.375 -32.140625 C 14.507812 -32.140625 13.023438 -32.894531 11.921875 -34.40625 L 11.921875 -1.96875 C 11.921875 -1 12.4375 -0.515625 13.46875 -0.515625 C 13.75 -0.515625 13.890625 -0.34375 13.890625 0 C 13.890625 0.34375 13.75 0.515625 13.46875 0.515625 L 7.15625 0.515625 C 6.8125 0.515625 6.640625 0.34375 6.640625 0 C 6.640625 -0.34375 6.8125 -0.515625 7.15625 -0.515625 Z M 7.15625 -0.515625 "/></g></g></g></g></g></svg>